<svg xmlns="http://www.w3.org/2000/svg" width="212.814" height="138.009" viewBox="0 0 212.814 138.009">
  <g id="Groupe_66" data-name="Groupe 66" transform="translate(641 270)">
    <g id="Groupe_65" data-name="Groupe 65" transform="translate(-641 -270)">
      <path id="Tracé_363" data-name="Tracé 363" d="M701.549,564.231c-12.868-.445-25.124-4.6-36.828-9.146s-23.3-9.58-35.855-11.987c-8.079-1.549-17.318-1.77-23.826,2.557-6.265,4.176-8.289,11.363-9.377,18.038-.819,5.022-1.3,10.309.942,15.012,1.559,3.265,4.323,6.009,6.235,9.136,6.655,10.88,1.951,24.3-5.259,34.921-3.38,4.983-7.307,9.743-9.918,15.042s-3.818,11.391-1.533,16.811c2.263,5.369,7.657,9.393,13.5,12.226,11.868,5.756,25.848,7.4,39.49,8.337,30.189,2.064,60.536,1.171,90.8.274,11.2-.33,22.452-.666,33.471-2.4,6.12-.962,12.437-2.489,16.881-6.176a14.135,14.135,0,0,0,3.257-18.466c-6.339-9.842-23.86-12.286-28.3-22.846-2.438-5.814.066-12.288,3.611-17.678,7.6-11.566,20.347-21.712,21.016-34.931.461-9.079-5.665-18.171-15.137-22.468-9.928-4.5-23.7-3.937-31.018,3.517C726.167,561.674,712.913,564.627,701.549,564.231Z" transform="translate(-572.839 -542.082)" fill="#bcbcbc" opacity="0.1" style="isolation: isolate"/>
      <g id="Groupe_63" data-name="Groupe 63" transform="translate(0 8.166)">
        <path id="Tracé_364" data-name="Tracé 364" d="M859.348,797.565s-7.556-.455-6.673,4.845a1.293,1.293,0,0,0,.672,1.362s.014-.4.775-.261a3.472,3.472,0,0,0,.821.04,1.7,1.7,0,0,0,1.006-.415h0s2.126-.877,2.953-4.353c0,0,.612-.759.6-.954l-1.277.547a2.287,2.287,0,0,1,.091,1.686s-.04-1.652-.286-1.615c-.05,0-.662.32-.662.32a3.772,3.772,0,0,1,.183,2.77s.215-1.976-.418-2.654l-.9.525a3.967,3.967,0,0,1,.282,3.008s.153-2.074-.471-2.881l-.815.634a3.881,3.881,0,0,1,.322,2.756s-.066-2.414-.5-2.6a4.919,4.919,0,0,0-.819.887s.563,1.193.213,1.811c0,0-.215-1.609-.4-1.616a5.353,5.353,0,0,0-.783,1.789,3.869,3.869,0,0,1,.61-1.9,2.128,2.128,0,0,0-1.086.563s.109-.753,1.261-.819a5.437,5.437,0,0,1,.744-.859,4.662,4.662,0,0,0-1.839.213A2.083,2.083,0,0,1,855,800l.8-.656a6.856,6.856,0,0,0-2.147.022,2.613,2.613,0,0,1,2.364-.171l.875-.523a7.853,7.853,0,0,0-2.05-.177,3.145,3.145,0,0,1,2.306.036l.626-.28s-.942-.185-1.217-.215-.29-.105-.29-.105a3.253,3.253,0,0,1,1.768.2A7.807,7.807,0,0,0,859.348,797.565Z" transform="translate(-811.262 -777.799)" fill="#ffc000"/>
        <path id="Tracé_365" data-name="Tracé 365" d="M1069.39,1040.133s-7.556-.455-6.673,4.846a1.293,1.293,0,0,0,.672,1.362s.014-.4.777-.26a3.478,3.478,0,0,0,.821.04,1.7,1.7,0,0,0,.994-.414h0s2.128-.879,2.955-4.354c0,0,.61-.757.587-.952l-1.276.545a2.294,2.294,0,0,1,.093,1.686s-.042-1.652-.286-1.614c-.05,0-.664.32-.664.32a3.77,3.77,0,0,1,.185,2.77s.215-1.977-.42-2.655l-.889.519a3.966,3.966,0,0,1,.282,3.008s.153-2.074-.471-2.881l-.813.636a3.886,3.886,0,0,1,.322,2.754s-.066-2.414-.5-2.6a4.986,4.986,0,0,0-.821.887s.565,1.193.215,1.811c0,0-.215-1.609-.4-1.616a5.353,5.353,0,0,0-.783,1.789,3.882,3.882,0,0,1,.613-1.9,2.139,2.139,0,0,0-1.088.563s.111-.754,1.263-.819a4.965,4.965,0,0,1,.744-.859,4.662,4.662,0,0,0-1.839.213,2.066,2.066,0,0,1,2.048-.388l.8-.656a6.856,6.856,0,0,0-2.147.022,2.614,2.614,0,0,1,2.364-.171l.875-.523a7.965,7.965,0,0,0-2.052-.177,3.152,3.152,0,0,1,2.308.036l.626-.28s-.943-.185-1.219-.215-.29-.105-.29-.105a3.261,3.261,0,0,1,1.77.2A8.011,8.011,0,0,0,1069.39,1040.133Z" transform="translate(-998.347 -993.855)" fill="#ffc000" opacity="0.1" style="isolation: isolate"/>
        <path id="Tracé_366" data-name="Tracé 366" d="M662.371,936.252s1.74-7.375-3.637-7.4a1.292,1.292,0,0,0-1.455.429s.384.082.123.809a3.538,3.538,0,0,0-.179.8,1.709,1.709,0,0,0,.237,1.06h0s.5,2.247,3.778,3.655c0,0,.644.732.839.74l-.318-1.35a2.285,2.285,0,0,1-1.678-.2s1.636.24,1.638,0c0-.05-.2-.708-.2-.708a3.775,3.775,0,0,1-2.762-.292s1.911.549,2.688.042l-.358-.978a3.968,3.968,0,0,1-3.014-.235s2.018.505,2.921.028l-.487-.911a3.885,3.885,0,0,1-2.77-.153s2.386.346,2.644-.048a4.94,4.94,0,0,0-.734-.96s-1.265.354-1.821-.1c0,0,1.62.062,1.658-.109a5.361,5.361,0,0,0-1.636-1.08,3.9,3.9,0,0,1,1.768.927,2.144,2.144,0,0,0-.37-1.167s.724.239.6,1.392a4.951,4.951,0,0,1,.718.879,4.675,4.675,0,0,0,.1-1.849,2.067,2.067,0,0,1,.034,2.086l.509.9a6.6,6.6,0,0,0,.344-2.12,2.607,2.607,0,0,1-.235,2.358l.368.952a7.962,7.962,0,0,0,.523-1.988,3.143,3.143,0,0,1-.43,2.269l.171.664s.342-.9.418-1.163.153-.268.153-.268a3.257,3.257,0,0,1-.5,1.71A7.9,7.9,0,0,0,662.371,936.252Z" transform="translate(-637.228 -894.68)" fill="#ffc000" opacity="0.1" style="isolation: isolate"/>
        <path id="Tracé_367" data-name="Tracé 367" d="M482.952,1004.582s-6.068-4.539-8.238.378a1.294,1.294,0,0,0-.187,1.507s.227-.32.8.211a3.49,3.49,0,0,0,.664.485,1.706,1.706,0,0,0,1.068.2h0s2.259.435,4.859-2.012c0,0,.929-.3,1.016-.473l-1.37-.241a2.3,2.3,0,0,1-.849,1.459s.873-1.4.646-1.505c-.046-.022-.73-.1-.73-.1a3.773,3.773,0,0,1-1.368,2.416s1.267-1.533,1.109-2.448l-1.04-.056a3.966,3.966,0,0,1-1.418,2.67s1.267-1.648,1.193-2.666l-1.03.083a3.875,3.875,0,0,1-1.245,2.475s1.27-2.052,1.01-2.442a5,5,0,0,0-1.173.288s-.181,1.3-.817,1.63c0,0,.706-1.461.563-1.563a5.345,5.345,0,0,0-1.642,1.068,3.882,3.882,0,0,1,1.555-1.249,2.142,2.142,0,0,0-1.217-.127s.5-.569,1.5.01a5.025,5.025,0,0,1,1.094-.308,4.654,4.654,0,0,0-1.654-.833,2.07,2.07,0,0,1,1.927.8l1.032-.105a6.813,6.813,0,0,0-1.805-1.161s.96-.121,2.068,1.155l1.018.046a7.936,7.936,0,0,0-1.614-1.276,3.144,3.144,0,0,1,1.907,1.3l.678.109s-.686-.672-.9-.847-.185-.249-.185-.249a3.267,3.267,0,0,1,1.37,1.137A8.044,8.044,0,0,0,482.952,1004.582Z" transform="translate(-474.356 -960.497)" fill="#ffc000" opacity="0.1" style="isolation: isolate"/>
        <path id="Tracé_368" data-name="Tracé 368" d="M667.8,618.71s-6.068-4.541-8.238.378a1.294,1.294,0,0,0-.187,1.507s.227-.32.8.211a3.534,3.534,0,0,0,.666.483,1.7,1.7,0,0,0,1.068.2h0s2.259.435,4.859-2.014c0,0,.929-.3,1.014-.473l-1.37-.237a2.288,2.288,0,0,1-.849,1.46s.875-1.4.648-1.505c-.046-.022-.73-.1-.73-.1a3.79,3.79,0,0,1-1.376,2.416s1.265-1.533,1.109-2.448l-1.04-.056a3.969,3.969,0,0,1-1.418,2.668s1.267-1.648,1.193-2.666l-1.028.083a3.885,3.885,0,0,1-1.247,2.477s1.273-2.052,1.012-2.442a5,5,0,0,0-1.173.288s-.181,1.3-.817,1.63c0,0,.706-1.461.563-1.565a5.365,5.365,0,0,0-1.642,1.07,3.865,3.865,0,0,1,1.555-1.249,2.128,2.128,0,0,0-1.219-.127s.507-.569,1.505.01a4.912,4.912,0,0,1,1.094-.308,4.679,4.679,0,0,0-1.654-.835,2.073,2.073,0,0,1,1.925.8l1.032-.105a6.819,6.819,0,0,0-1.805-1.163s.96-.119,2.07,1.157l1.018.044a7.853,7.853,0,0,0-1.616-1.274,3.145,3.145,0,0,1,1.909,1.3l.676.109s-.688-.664-.9-.835-.185-.247-.185-.247a3.262,3.262,0,0,1,1.37,1.137A8.59,8.59,0,0,0,667.8,618.71Z" transform="translate(-638.999 -616.799)" fill="#ffc000" opacity="0.1" style="isolation: isolate"/>
        <path id="Tracé_369" data-name="Tracé 369" d="M884.736,646.04s-2.426-7.18-7-4.358a1.307,1.307,0,0,0-1.008,1.135s.368-.135.531.62a3.588,3.588,0,0,0,.272.777,1.723,1.723,0,0,0,.764.773h0s1.615,1.64,5.146,1.1c0,0,.932.282,1.1.185l-.994-.976a2.287,2.287,0,0,1-1.527.72s1.517-.66,1.392-.873c-.026-.042-.545-.493-.545-.493a3.778,3.778,0,0,1-2.5,1.213s1.911-.545,2.3-1.392l-.823-.634a3.962,3.962,0,0,1-2.682,1.392s1.988-.638,2.491-1.521l-.895-.515a3.847,3.847,0,0,1-2.43,1.334s2.211-.968,2.217-1.438a4.968,4.968,0,0,0-1.129-.427s-.887.968-1.591.881c0,0,1.408-.805,1.348-.97a5.335,5.335,0,0,0-1.959-.05,3.874,3.874,0,0,1,1.988-.149,2.145,2.145,0,0,0-.933-.8s.74-.181,1.235.861a5.009,5.009,0,0,1,1.074.366,4.675,4.675,0,0,0-.889-1.624,2.071,2.071,0,0,1,1.131,1.754l.911.5a6.715,6.715,0,0,0-.829-1.988s.861.445,1.048,2.125l.815.614a7.907,7.907,0,0,0-.608-1.968,3.148,3.148,0,0,1,.835,2.153l.5.473s-.183-.942-.258-1.209-.014-.284-.014-.284a3.279,3.279,0,0,1,.483,1.714A7.926,7.926,0,0,0,884.736,646.04Z" transform="translate(-832.749 -638.377)" fill="#ffc000" opacity="0.1" style="isolation: isolate"/>
        <path id="Tracé_370" data-name="Tracé 370" d="M748.524,689.76s-7.536-.839-6.913,4.508a1.291,1.291,0,0,0,.6,1.392s.034-.4.8-.219a3.655,3.655,0,0,0,.819.081,1.71,1.71,0,0,0,1.024-.364h0s2.169-.769,3.181-4.2c0,0,.648-.726.634-.923l-1.3.481a2.217,2.217,0,0,1,0,1.688s.042-1.652-.2-1.626c-.05,0-.678.286-.678.286a3.793,3.793,0,0,1,.044,2.784s.314-1.964-.284-2.672l-.925.477a3.952,3.952,0,0,1,.129,3.02s.259-2.064-.324-2.9l-.845.6a3.883,3.883,0,0,1,.181,2.768s.058-2.414-.366-2.619a5.175,5.175,0,0,0-.865.843s.5,1.213.123,1.819c0,0-.133-1.617-.308-1.633a5.344,5.344,0,0,0-.875,1.754,3.872,3.872,0,0,1,.708-1.865,2.14,2.14,0,0,0-1.113.507s.147-.746,1.3-.754c0,0,.626-.777.8-.819a4.677,4.677,0,0,0-1.849.119,2.063,2.063,0,0,1,2.066-.284l.837-.614a6.449,6.449,0,0,0-2.153-.107,2.589,2.589,0,0,1,2.37-.05l.9-.479a7.914,7.914,0,0,0-2.04-.28,3.122,3.122,0,0,1,2.3.153l.64-.248s-.932-.233-1.207-.276-.284-.119-.284-.119a3.27,3.27,0,0,1,1.758.286A8.135,8.135,0,0,0,748.524,689.76Z" transform="translate(-712.368 -681.743)" fill="#ffc000" opacity="0.1" style="isolation: isolate"/>
        <path id="Tracé_371" data-name="Tracé 371" d="M1351.795,1224.905s-7.532-.839-6.909,4.5a1.29,1.29,0,0,0,.6,1.392s.034-.4.8-.221a3.448,3.448,0,0,0,.819.082,1.7,1.7,0,0,0,1.024-.364h0s2.169-.769,3.171-4.2c0,0,.648-.728.634-.923l-1.3.479a2.224,2.224,0,0,1,0,1.69s.042-1.654-.2-1.626c-.05,0-.678.284-.678.284a3.793,3.793,0,0,1,.044,2.784s.314-1.963-.285-2.672l-.924.479a3.958,3.958,0,0,1,.131,3.02s.256-2.064-.326-2.9l-.845.6a3.877,3.877,0,0,1,.181,2.766s.058-2.414-.366-2.617a5.251,5.251,0,0,0-.865.843s.505,1.213.123,1.819c0,0-.133-1.617-.308-1.632a5.349,5.349,0,0,0-.875,1.754,3.873,3.873,0,0,1,.708-1.865,2.124,2.124,0,0,0-1.113.507s.147-.748,1.3-.756c0,0,.628-.777.8-.817a4.659,4.659,0,0,0-1.849.117,2.069,2.069,0,0,1,2.068-.282l.835-.614a6.649,6.649,0,0,0-2.145-.088,2.593,2.593,0,0,1,2.37-.052l.9-.477a7.925,7.925,0,0,0-2.04-.28,3.123,3.123,0,0,1,2.3.153l.64-.251s-.932-.232-1.207-.274-.284-.119-.284-.119a3.259,3.259,0,0,1,1.758.284A7.8,7.8,0,0,0,1351.795,1224.905Z" transform="translate(-1249.706 -1158.398)" fill="#ffc000" opacity="0.1" style="isolation: isolate"/>
        <path id="Tracé_372" data-name="Tracé 372" d="M1457.143,1289.27s-7.532-.837-6.909,4.5a1.294,1.294,0,0,0,.6,1.392s.034-.4.8-.219a3.516,3.516,0,0,0,.817.08,1.719,1.719,0,0,0,1.02-.362h0s2.167-.77,3.17-4.2c0,0,.65-.726.634-.923l-1.3.479a2.222,2.222,0,0,1,0,1.69s.042-1.652-.2-1.626c-.05,0-.678.284-.678.284a3.792,3.792,0,0,1,.044,2.784s.314-1.962-.284-2.67l-.925.477a3.958,3.958,0,0,1,.131,3.02s.256-2.064-.326-2.9l-.845.6a3.891,3.891,0,0,1,.183,2.768s.056-2.416-.368-2.619a5.25,5.25,0,0,0-.865.843s.505,1.213.123,1.819c0,0-.133-1.616-.308-1.632a5.315,5.315,0,0,0-.873,1.754,3.88,3.88,0,0,1,.706-1.865,2.142,2.142,0,0,0-1.114.507s.149-.748,1.3-.753c0,0,.626-.778.8-.819a4.675,4.675,0,0,0-1.849.119,2.066,2.066,0,0,1,2.068-.284l.835-.614a6.645,6.645,0,0,0-2.145-.088,2.589,2.589,0,0,1,2.37-.05l.9-.479a7.913,7.913,0,0,0-2.04-.28,3.123,3.123,0,0,1,2.3.153l.64-.249s-.932-.233-1.2-.276-.286-.119-.286-.119a3.27,3.27,0,0,1,1.758.286A7.871,7.871,0,0,0,1457.143,1289.27Z" transform="translate(-1343.54 -1215.728)" fill="#ffc000" opacity="0.1" style="isolation: isolate"/>
        <path id="Tracé_373" data-name="Tracé 373" d="M1209.8,731.961s-6.068-4.539-8.238.378a1.294,1.294,0,0,0-.187,1.507s.227-.32.8.211a3.487,3.487,0,0,0,.664.485,1.709,1.709,0,0,0,1.068.2h0s2.259.435,4.862-2.012c0,0,.927-.3,1.014-.473l-1.366-.247a2.3,2.3,0,0,1-.849,1.459s.873-1.4.646-1.505c-.046-.022-.728-.1-.728-.1a3.779,3.779,0,0,1-1.37,2.416s1.267-1.533,1.109-2.448l-1.04-.056a3.967,3.967,0,0,1-1.418,2.67s1.269-1.648,1.193-2.666l-1.03.083a3.822,3.822,0,0,1-1.245,2.476s1.273-2.052,1.01-2.442a5,5,0,0,0-1.173.288s-.179,1.3-.815,1.63c0,0,.7-1.461.561-1.563a5.345,5.345,0,0,0-1.642,1.068,3.882,3.882,0,0,1,1.555-1.249,2.142,2.142,0,0,0-1.217-.127s.507-.569,1.505.01a5,5,0,0,1,1.092-.308,4.654,4.654,0,0,0-1.654-.833,2.07,2.07,0,0,1,1.927.8l1.032-.105a6.775,6.775,0,0,0-1.805-1.161s.96-.121,2.068,1.155l1.02.046a7.976,7.976,0,0,0-1.616-1.276,3.139,3.139,0,0,1,1.907,1.3l.678.109s-.686-.672-.9-.847-.183-.233-.183-.233a3.269,3.269,0,0,1,1.368,1.137A7.982,7.982,0,0,0,1209.8,731.961Z" transform="translate(-1121.764 -717.673)" fill="#ffc000" opacity="0.1" style="isolation: isolate"/>
        <path id="Tracé_374" data-name="Tracé 374" d="M1258.733,1004.7s-2.092-7.283-6.8-4.669a1.292,1.292,0,0,0-1.06,1.088s.374-.117.5.644a3.526,3.526,0,0,0,.239.8,1.709,1.709,0,0,0,.728.811h0s1.539,1.71,5.09,1.328c0,0,.919.322,1.094.235l-.941-1.022a2.286,2.286,0,0,1-1.557.652s1.543-.6,1.424-.809c-.024-.044-.521-.519-.521-.519a3.767,3.767,0,0,1-2.549,1.1s1.935-.457,2.36-1.28l-.8-.672a3.972,3.972,0,0,1-2.742,1.273s2-.551,2.557-1.408l-.871-.555a3.874,3.874,0,0,1-2.487,1.223s2.253-.869,2.281-1.336a4.96,4.96,0,0,0-1.112-.477s-.929.927-1.634.807c0,0,1.443-.742,1.392-.909a5.371,5.371,0,0,0-1.954-.139,3.88,3.88,0,0,1,1.988-.058,2.134,2.134,0,0,0-.895-.835s.748-.149,1.193.915a4.963,4.963,0,0,1,1.056.414,4.649,4.649,0,0,0-.815-1.662,2.066,2.066,0,0,1,1.052,1.8l.887.539a6.613,6.613,0,0,0-.74-2.016,2.61,2.61,0,0,1,.953,2.169l.8.65a7.884,7.884,0,0,0-.519-1.988,3.142,3.142,0,0,1,.738,2.187l.473.5s-.139-.95-.2-1.221,0-.308,0-.308a3.26,3.26,0,0,1,.407,1.734A7.89,7.89,0,0,0,1258.733,1004.7Z" transform="translate(-1166.005 -957.641)" fill="#ffc000" opacity="0.1" style="isolation: isolate"/>
        <path id="Tracé_375" data-name="Tracé 375" d="M826.514,1166.628s-4.062-6.4-7.834-2.569a1.286,1.286,0,0,0-.712,1.342s.328-.219.666.477a3.4,3.4,0,0,0,.449.688,1.7,1.7,0,0,0,.925.573h0s1.958,1.209,5.259-.159c0,0,.972.052,1.116-.082l-1.193-.716a2.286,2.286,0,0,1-1.312,1.064s1.316-.994,1.139-1.177c-.034-.036-.646-.35-.646-.35a3.778,3.778,0,0,1-2.138,1.772s1.728-.984,1.907-1.9l-.952-.42a3.961,3.961,0,0,1-2.273,1.988s1.77-1.092,2.058-2.07l-.994-.286s-.839,1.625-2.042,1.873c0,0,1.917-1.467,1.811-1.925a4.939,4.939,0,0,0-1.193-.145s-.63,1.151-1.342,1.235c0,0,1.177-1.118,1.08-1.265a5.358,5.358,0,0,0-1.915.418,3.87,3.87,0,0,1,1.9-.616,2.135,2.135,0,0,0-1.092-.551s.674-.352,1.392.543a4.909,4.909,0,0,1,1.131.1,4.578,4.578,0,0,0-1.251-1.366s.935.08,1.515,1.433l1,.266a6.647,6.647,0,0,0-1.276-1.726s.94.227,1.523,1.815l.938.4a7.929,7.929,0,0,0-1.06-1.766,3.132,3.132,0,0,1,1.322,1.891l.6.344s-.4-.873-.539-1.113-.085-.3-.085-.3a3.261,3.261,0,0,1,.877,1.549A8.074,8.074,0,0,0,826.514,1166.628Z" transform="translate(-780.397 -1103.157)" fill="#ffc000" opacity="0.1" style="isolation: isolate"/>
        <path id="Tracé_376" data-name="Tracé 376" d="M1071.147,866.209s-3.863-6.52-7.754-2.81a1.293,1.293,0,0,0-.752,1.32s.332-.211.65.5a3.432,3.432,0,0,0,.427.7,1.688,1.688,0,0,0,.907.6h0s1.919,1.269,5.261,0c0,0,.97.082,1.118-.048l-1.167-.752a2.286,2.286,0,0,1-1.344,1.022s1.346-.96,1.177-1.141c-.036-.038-.636-.372-.636-.372a3.779,3.779,0,0,1-2.187,1.706s1.758-.93,1.962-1.833l-.938-.441a3.965,3.965,0,0,1-2.334,1.921s1.8-1.036,2.121-2l-.982-.318s-.891,1.591-2.1,1.809c0,0,1.961-1.408,1.869-1.867a4.913,4.913,0,0,0-1.193-.183s-.666,1.131-1.38,1.193c0,0,1.211-1.078,1.119-1.229a5.351,5.351,0,0,0-1.927.358,3.883,3.883,0,0,1,1.915-.557,2.138,2.138,0,0,0-1.076-.585s.686-.332,1.392.585a5.032,5.032,0,0,1,1.127.135,4.756,4.756,0,0,0-1.207-1.4s.931.107,1.47,1.479l.994.3a6.608,6.608,0,0,0-1.223-1.766s.935.257,1.467,1.861l.925.431a7.988,7.988,0,0,0-.994-1.789,3.145,3.145,0,0,1,1.265,1.931l.583.362s-.374-.885-.505-1.129-.076-.3-.076-.3a3.266,3.266,0,0,1,.829,1.575A7.7,7.7,0,0,0,1071.147,866.209Z" transform="translate(-998.332 -835.43)" fill="#ffc000"/>
        <path id="Tracé_377" data-name="Tracé 377" d="M864.739,969.966s.2-7.575-5.064-6.508a1.3,1.3,0,0,0-1.34.718s.4,0,.286.766a3.488,3.488,0,0,0-.012.823,1.7,1.7,0,0,0,.447.994h0s.948,2.1,4.45,2.807c0,0,.777.587.972.555l-.6-1.257a2.3,2.3,0,0,1-1.682.149s1.65-.1,1.6-.34c0-.05-.342-.654-.342-.654a3.763,3.763,0,0,1-2.762.276s1.988.149,2.638-.505l-.555-.881a3.972,3.972,0,0,1-3,.382s2.078.083,2.865-.567l-.662-.8a3.878,3.878,0,0,1-2.742.414s2.41-.145,2.585-.585a5.162,5.162,0,0,0-.915-.8s-1.165.6-1.8.274c0,0,1.591-.266,1.6-.443a5.337,5.337,0,0,0-1.821-.724,3.872,3.872,0,0,1,1.919.549,2.137,2.137,0,0,0-.6-1.068s.758.086.861,1.233a4.947,4.947,0,0,1,.883.716,4.649,4.649,0,0,0-.274-1.831,2.063,2.063,0,0,1,.457,2.034l.682.783a6.658,6.658,0,0,0-.093-2.145,2.614,2.614,0,0,1,.25,2.356l.551.857a7.926,7.926,0,0,0,.109-2.056,3.155,3.155,0,0,1,.04,2.308l.3.616s.153-.948.173-1.225.1-.294.1-.294a3.265,3.265,0,0,1-.137,1.776A7.577,7.577,0,0,0,864.739,969.966Z" transform="translate(-816.367 -925.478)" fill="#ffc000"/>
      </g>
      <g id="Groupe_64" data-name="Groupe 64" transform="translate(5.662 27.764)">
        <path id="Tracé_378" data-name="Tracé 378" d="M1086.431,1032.994h-81.8a10.114,10.114,0,0,1-10.114-10.114h0V985.346a3.87,3.87,0,0,1,1.207-2.808l43.607-41.336a9.009,9.009,0,0,1,12.4,0l41.659,39.489a10.113,10.113,0,0,1,3.156,7.34v35.2a9.767,9.767,0,0,1-9.767,9.767Z" transform="translate(-943.33 -923.142)" fill="#a3825b"/>
        <path id="Tracé_379" data-name="Tracé 379" d="M994.521,1371.4H1095.7v40.867a6.107,6.107,0,0,1-6.107,6.107h-88.96a6.107,6.107,0,0,1-6.107-6.107h0V1371.4Z" transform="translate(-943.33 -1308.517)" opacity="0.1" style="isolation: isolate"/>
        <path id="Tracé_380" data-name="Tracé 380" d="M993.766,1349.28" transform="translate(-942.657 -1288.819)" fill="none" stroke="#3f3d56" stroke-miterlimit="10" stroke-width="1"/>
        <rect id="Rectangle_177" data-name="Rectangle 177" width="75.243" height="75.243" transform="translate(64.582 30.783)" fill="#ffc000"/>
        <path id="Tracé_381" data-name="Tracé 381" d="M1192.28,1387.827v41.352h-75.243v-41.352l37.621,18.184Z" transform="translate(-1052.455 -1323.153)" opacity="0.1" style="isolation: isolate"/>
        <path id="Tracé_382" data-name="Tracé 382" d="M1045.533,1384.147l-48.161-23.278a1.989,1.989,0,0,0-1.861.035,1.969,1.969,0,0,0-.99,1.7V1402.7a6.107,6.107,0,0,0,6.107,6.107h89.81a6.107,6.107,0,0,0,6.107-6.107h0v-39.341a2.434,2.434,0,0,0-1.257-2.164,2.394,2.394,0,0,0-2.168-.044Z" transform="translate(-943.33 -1298.951)" fill="#a3825b"/>
        <rect id="Rectangle_178" data-name="Rectangle 178" width="21.042" height="2.976" transform="translate(70.958 37.585)" fill="#f2f2f2"/>
        <rect id="Rectangle_179" data-name="Rectangle 179" width="62.49" height="1.7" transform="translate(69.258 48.425)" fill="#f2f2f2"/>
        <rect id="Rectangle_180" data-name="Rectangle 180" width="62.49" height="1.7" transform="translate(69.258 54.164)" fill="#f2f2f2"/>
        <rect id="Rectangle_181" data-name="Rectangle 181" width="62.49" height="1.7" transform="translate(69.258 59.903)" fill="#f2f2f2"/>
        <line id="Ligne_2" data-name="Ligne 2" x2="175.141" transform="translate(12.932 109.746)" fill="none" stroke="#3f3d56" stroke-miterlimit="10" stroke-width="1"/>
        <path id="Tracé_383" data-name="Tracé 383" d="M526.158,1560.982c0,12.532,7.862,22.673,17.578,22.673" transform="translate(-526.158 -1477.382)" fill="#ffc000"/>
        <path id="Tracé_384" data-name="Tracé 384" d="M686.982,1581.579c0-12.673,8.773-22.927,19.616-22.927" transform="translate(-669.404 -1475.306)" fill="green"/>
        <path id="Tracé_385" data-name="Tracé 385" d="M584.427,1571.376c0,11.9,5.013,21.537,11.209,21.537" transform="translate(-578.058 -1486.64)" fill="green"/>
        <path id="Tracé_386" data-name="Tracé 386" d="M686.982,1529.678c0-16.193,10.141-29.3,22.673-29.3" transform="translate(-669.404 -1423.406)" fill="#ffc000"/>
        <path id="Tracé_387" data-name="Tracé 387" d="M653.149,1758.908s2.493-.077,3.244-.612,3.835-1.174,4.021-.316,3.746,4.267.932,4.29-6.539-.438-7.289-.9S653.149,1758.908,653.149,1758.908Z" transform="translate(-639.269 -1652.475)" fill="#a8a8a8"/>
        <path id="Tracé_388" data-name="Tracé 388" d="M661.4,1772.923c-2.814.023-6.539-.438-7.289-.9-.571-.348-.8-1.6-.875-2.172l-.083,0s.158,2.011.908,2.467,4.475.918,7.289.895c.812-.006,1.093-.3,1.078-.724C662.311,1772.757,662,1772.918,661.4,1772.923Z" transform="translate(-639.269 -1663.427)" opacity="0.2" style="isolation: isolate"/>
        <path id="Tracé_389" data-name="Tracé 389" d="M1913.9,904.642c-.128,1.138-1,2.055-1.318,3.154a5.221,5.221,0,0,0,1.5,4.718,10.448,10.448,0,0,0,7.276,3.455,3.105,3.105,0,0,0,1.2-.131,2.574,2.574,0,0,0,.915-.625,5.851,5.851,0,0,0,1.51-3.274,17.433,17.433,0,0,0,.041-3.659,2.065,2.065,0,0,0-.135-.738,1.892,1.892,0,0,0-.475-.584,11.067,11.067,0,0,0-2.038-1.481,2.338,2.338,0,0,1-.854-.654,2.111,2.111,0,0,1-.264-.782l-.225-1.147a2.259,2.259,0,0,0-.331-.93,2.288,2.288,0,0,0-1.826-.636l-2.445-.1a11.778,11.778,0,0,0-2.506-.1c-.694.139-.463.779-.337,1.36A9.842,9.842,0,0,1,1913.9,904.642Z" transform="translate(-1760.923 -889.608)" fill="#a0616a"/>
        <path id="Tracé_390" data-name="Tracé 390" d="M1913.9,904.642c-.128,1.138-1,2.055-1.318,3.154a5.221,5.221,0,0,0,1.5,4.718,10.448,10.448,0,0,0,7.276,3.455,3.105,3.105,0,0,0,1.2-.131,2.574,2.574,0,0,0,.915-.625,5.851,5.851,0,0,0,1.51-3.274,17.433,17.433,0,0,0,.041-3.659,2.065,2.065,0,0,0-.135-.738,1.892,1.892,0,0,0-.475-.584,11.067,11.067,0,0,0-2.038-1.481,2.338,2.338,0,0,1-.854-.654,2.111,2.111,0,0,1-.264-.782l-.225-1.147a2.259,2.259,0,0,0-.331-.93,2.288,2.288,0,0,0-1.826-.636l-2.445-.1a11.778,11.778,0,0,0-2.506-.1c-.694.139-.463.779-.337,1.36A9.842,9.842,0,0,1,1913.9,904.642Z" transform="translate(-1760.923 -889.608)" fill="#efb7b9"/>
        <path id="Tracé_391" data-name="Tracé 391" d="M1964.428,1356.435l-1.04,11.394c-.271,2.989-.548,5.99-1.079,8.94-.184,1.017-.4,2.028-.655,3.031a64.552,64.552,0,0,0-2.073,8.359c-.01.082-.019.166-.028.25a7.261,7.261,0,0,1-.355,1.855c-.166.436-.422.833-.6,1.263a8.06,8.06,0,0,0-.45,2.745,11.835,11.835,0,0,0-4.075-1.393,3.117,3.117,0,0,1-1.932-.693,2.762,2.762,0,0,1-.376-2.21q.412-3.569.822-7.135a18.615,18.615,0,0,1,.52-3.031c.095-.331.208-.656.324-.982.159-.448.32-.9.441-1.356a16.322,16.322,0,0,0,.364-2.259c.282-2.394.621-4.782.919-7.174l.016-.126a73.376,73.376,0,0,0,.688-10.92c-.014-.541-.037-1.081-.072-1.624-.049-.786-.121-1.2.53-1.694a12.239,12.239,0,0,1,2.488-1.277c.443-.193,5.317-1.923,5.431-1.543a9.49,9.49,0,0,1,.357,2.488A27.715,27.715,0,0,1,1964.428,1356.435Z" transform="translate(-1795.896 -1290.173)" fill="#202020"/>
        <path id="Tracé_392" data-name="Tracé 392" d="M1976.351,1516.226c-.184,1.017-.4,2.028-.654,3.031a64.53,64.53,0,0,0-2.073,8.359c-.01.082-.019.166-.028.25-2.173-3.1-4-6.443-6.124-9.58.159-.448.32-.9.441-1.356a16.318,16.318,0,0,0,.364-2.259c.282-2.394.621-4.782.919-7.174l.016-.126a7.415,7.415,0,0,0,.53,1.472c1.424,2.894,4.808,4.357,6.464,7.127Q1976.28,1516.1,1976.351,1516.226Z" transform="translate(-1809.939 -1429.63)" opacity="0.1" style="isolation: isolate"/>
        <path id="Tracé_393" data-name="Tracé 393" d="M1887.31,1240.777a53.862,53.862,0,0,0,.814,6.914l.765,4.73a24.233,24.233,0,0,0,2.08,7.549,34.955,34.955,0,0,0,3.431,4.771c2.937,3.826,5.142,8.159,7.927,12.1.809,1.145,1.966,2.382,3.348,2.143a5.439,5.439,0,0,0,2.277-1.493,14.185,14.185,0,0,0,2.514-2.048c.661-.86.791-2.289-.105-2.9a4.722,4.722,0,0,0-1.025-.419,5.566,5.566,0,0,1-2.859-3.255,31.144,31.144,0,0,0-1.68-4.12c-1.655-2.77-5.04-4.233-6.464-7.128a12.869,12.869,0,0,1-.935-5.3l-.155-4.6a3.363,3.363,0,0,1,.174-1.488c.545-1.226,2.191-1.34,3.523-1.495a12.049,12.049,0,0,0,4.317-1.362,4.505,4.505,0,0,0,1.928-1.712,5.52,5.52,0,0,0,.47-2.32l.461-8.344a5.223,5.223,0,0,0-.177-2.133c-.635-1.69-2.769-2.242-4.573-2.161-3.356.15-6.454,1.594-9.619,2.569a24.472,24.472,0,0,1-2.384.622,19.212,19.212,0,0,0-2.247.312c-1.2.406-1.174,3.041-1.345,4.133A34.809,34.809,0,0,0,1887.31,1240.777Z" transform="translate(-1738.532 -1179.63)" fill="#202020"/>
        <path id="Tracé_394" data-name="Tracé 394" d="M2045.783,1664.331a2.134,2.134,0,0,1,.47,1.149,39.225,39.225,0,0,1,.664,6.949,1.136,1.136,0,0,0,.125.63.793.793,0,0,0,.327.263c.855.408,1.848-.161,2.561-.785a6.607,6.607,0,0,0,2.514-4.466,10.368,10.368,0,0,1,.048-1.354,5.654,5.654,0,0,1,.842-1.814,15.326,15.326,0,0,0,1.391-3.119c.13-.409.216-.924-.1-1.209a1.16,1.16,0,0,0-.381-.2l-3.864-1.435c-.335-.125-1.168,2.016-1.3,2.25a1.768,1.768,0,0,1-1.294,1.029c-.662.135-1.451-.059-2.069.272C2044.667,1663.051,2045.191,1663.733,2045.783,1664.331Z" transform="translate(-1879.096 -1564.63)" fill="#494949"/>
        <path id="Tracé_395" data-name="Tracé 395" d="M1960.832,1714.949a1.188,1.188,0,0,0-.294-.373,1.334,1.334,0,0,0-.593-.2,2.316,2.316,0,0,0-2.115.34c-.476.513-.394,1.348-.792,1.923-.126.182-.3.332-.406.525a1.978,1.978,0,0,0-.178.941c-.021.892-.041,1.785.021,2.675a3.742,3.742,0,0,0,.644,2.111c.748.938,2.1,1.072,3.3,1.133l.97.049a1.894,1.894,0,0,0,.8-.073,1.31,1.31,0,0,0,.686-.755c.505-1.255-.295-2.608-.788-3.868C1961.512,1717.928,1961.613,1716.319,1960.832,1714.949Z" transform="translate(-1800.107 -1613.928)" fill="#494949"/>
        <path id="Tracé_396" data-name="Tracé 396" d="M1896.017,818.856a.8.8,0,0,1,.055-.374c.142-.251.513-.183.793-.112a18.458,18.458,0,0,0,3.471.093c1.159.066,2.465.646,2.7,1.783a8.466,8.466,0,0,0,2.14-2.2,2.641,2.641,0,0,0,.558-1.61,3.146,3.146,0,0,0-1.409-1.984l-1.929-1.574a2.9,2.9,0,0,0-.863-.549,4.3,4.3,0,0,0-1.4-.079c-1.4,0-2.9-.638-4.149,0a4.481,4.481,0,0,0-1.293,1.176l-1.721,2.038a1.087,1.087,0,0,0-.275.467,2.073,2.073,0,0,0,.123.744c.081.455-.115.941.036,1.378.25.726,1.131.828,1.67,1.245.2.155.516.68.755.674C1895.708,819.962,1896.006,819.191,1896.017,818.856Z" transform="translate(-1743.323 -810.234)" fill="#303030"/>
        <circle id="Ellipse_48" data-name="Ellipse 48" cx="5.512" cy="5.512" r="5.512" transform="translate(150.103 3.605)" fill="#efb7b9"/>
        <path id="Tracé_397" data-name="Tracé 397" d="M1853.656,941.379a2.67,2.67,0,0,0-2.6-1.789.793.793,0,0,1-.479-.061.659.659,0,0,1-.2-.246,9.613,9.613,0,0,1-.8-1.9c-.088-.292-.208-.636-.5-.712a.68.68,0,0,0-.642.279,5.628,5.628,0,0,1-.459.576c-.693.62-1.922.055-2.658.624-.12.093-.219.212-.346.3a1.615,1.615,0,0,1-.4.173,38.819,38.819,0,0,0-4.172,1.634,39.3,39.3,0,0,0,2.138,8.7c.546,1.313,1.165,2.6,1.6,3.952a30.656,30.656,0,0,1,1.022,9.355,19.5,19.5,0,0,1-.7,6.4,6.038,6.038,0,0,0-.394,1.406,1.456,1.456,0,0,0,.493,1.31,1.686,1.686,0,0,0,.761.267,9.861,9.861,0,0,0,3.617-.42c3.19-.739,6.443-1.161,9.691-1.583l5.441-.707a3.159,3.159,0,0,0,1.126-.291,2.157,2.157,0,0,0,.472-2.995,16.252,16.252,0,0,1-.964-1.315,1.221,1.221,0,0,1,.158-1.5c.872-.682.612-1.947.654-3.053q.174-4.64-.047-9.283a18.452,18.452,0,0,1-.031-1.925,17.051,17.051,0,0,1,.6-3.213l1.653-6.51a3.392,3.392,0,0,0-2.042-1.312c-.783-.2-1.6-.255-2.371-.494-1.581-.49-2.988-1.733-4.638-1.617a.842.842,0,0,0-.359.088c-.372.211-.313.747-.337,1.175a3.244,3.244,0,0,1-1.516,2.289,27.036,27.036,0,0,0-2.35,1.589A1.048,1.048,0,0,0,1853.656,941.379Z" transform="translate(-1696.75 -920.2)" fill="green"/>
        <path id="Tracé_398" data-name="Tracé 398" d="M1738.042,1029.745a6.511,6.511,0,0,1-1.159.6,3.812,3.812,0,0,0-1.111.539,1.74,1.74,0,0,0-.386.477,2.122,2.122,0,0,0,1.957,3.161,4.255,4.255,0,0,0,1.447-.431l3.888-1.685a3.058,3.058,0,0,0,1.68-1.265.294.294,0,0,0,.038-.2.331.331,0,0,0-.16-.168,8.681,8.681,0,0,1-2.263-2.135c-.16-.216-.355-.728-.58-.858C1740.568,1027.3,1738.7,1029.318,1738.042,1029.745Z" transform="translate(-1602.976 -1002.391)" fill="#efb7b9"/>
        <path id="Tracé_399" data-name="Tracé 399" d="M2066.536,1033.721l1.433,1.637c.308.352.616.7.9,1.077a12.566,12.566,0,0,1,1.642,3.093,5.4,5.4,0,0,1,.461,2.556,6.254,6.254,0,0,1-.358,1.3,16.167,16.167,0,0,1-.974,2.346,13.353,13.353,0,0,1-1.1,1.642,38.382,38.382,0,0,1-3.633,4.156,4.731,4.731,0,0,0-.909,1.925,8.042,8.042,0,0,1-2.235,3.045,6.2,6.2,0,0,1-.96.826,3.124,3.124,0,0,1-1.746.5,1.918,1.918,0,0,1-.787-.163,2.035,2.035,0,0,1-1-1.693,3.6,3.6,0,0,1,.3-1.811c.823-1.822,2.934-2.611,4.427-3.941a14.362,14.362,0,0,0,2.2-2.727,9.416,9.416,0,0,0,1.115-1.955c.333-.89.2-1.943.495-2.847.123-.382.342-.727.474-1.106a1.29,1.29,0,0,0-.066-1.157,1.68,1.68,0,0,0-.649-.475c-.954-.484-2.022-1.107-2.2-2.161a2.313,2.313,0,0,1,.427-1.65,6.875,6.875,0,0,1,1.2-1.26C2065.417,1034.5,2066.119,1034.09,2066.536,1033.721Z" transform="translate(-1889.911 -1007.75)" fill="#efb7b9"/>
        <path id="Tracé_400" data-name="Tracé 400" d="M1699.633,1055.449a2.665,2.665,0,0,0-1.08-1.287,1.99,1.99,0,0,0-1.57-.006,5.9,5.9,0,0,0-1.378.833l-1.235.911a3.043,3.043,0,0,0-.733.677,2.854,2.854,0,0,0-.382,1.048,7.489,7.489,0,0,0-.194,2.592,7.365,7.365,0,0,0,1.96,3.67,3.262,3.262,0,0,0,2.169,1.36,1,1,0,0,0,.959-.482,1.2,1.2,0,0,0,.086-.43,9.579,9.579,0,0,0-1.109-4.487,2.876,2.876,0,0,1-.358-1.206.33.33,0,0,1,.053-.2.341.341,0,0,1,.211-.1c.887-.175,2.415.514,3.038-.471C1700.472,1057.226,1699.919,1056.028,1699.633,1055.449Z" transform="translate(-1565.487 -1025.809)" fill="#efb7b9"/>
        <path id="Tracé_401" data-name="Tracé 401" d="M1893.372,802.988a.8.8,0,0,1,.055-.374c.142-.251.513-.183.793-.112a18.459,18.459,0,0,0,3.471.093c1.159.066,2.465.646,2.7,1.783a8.466,8.466,0,0,0,2.14-2.2,2.64,2.64,0,0,0,.558-1.61,3.145,3.145,0,0,0-1.409-1.984l-1.928-1.574a2.906,2.906,0,0,0-.863-.549,4.3,4.3,0,0,0-1.4-.079c-1.4,0-2.9-.638-4.149,0a4.485,4.485,0,0,0-1.292,1.176l-1.721,2.038a1.086,1.086,0,0,0-.275.467,2.073,2.073,0,0,0,.123.744c.081.455-.115.941.036,1.378.25.726,1.131.828,1.67,1.245.2.155.515.68.754.674C1893.063,804.094,1893.361,803.323,1893.372,802.988Z" transform="translate(-1740.968 -796.1)" fill="#303030"/>
        <path id="Tracé_402" data-name="Tracé 402" d="M1789.435,982.381a2.237,2.237,0,0,0-.577.537c-.2.306-.243.691-.417,1.014-.371.69-1.24.936-1.782,1.5a.558.558,0,0,0-.171.294.654.654,0,0,0,.146.423l2.614,4.109c.87.077,1.705-.469,2.576-.4a2.587,2.587,0,0,0,.969.043,2.764,2.764,0,0,0,.622-.38c.52-.328,1.211-.367,1.647-.8a2.255,2.255,0,0,0,.467-1.656,6.674,6.674,0,0,0-.155-1.524c-.385-1.577-1.591-2.787-2.347-4.185-.368-.68-.569-1.078-1.348-.611S1790.172,981.842,1789.435,982.381Z" transform="translate(-1648.736 -960.389)" fill="green"/>
        <path id="Tracé_403" data-name="Tracé 403" d="M2067.278,967a6.114,6.114,0,0,1,1.315,1.152c.4.513.624,1.142,1.006,1.667a18.6,18.6,0,0,0,1.3,1.372,10.6,10.6,0,0,1,1.494,2.434,36.336,36.336,0,0,1-3.381,3.821,1.091,1.091,0,0,1-.513.337.828.828,0,0,1-.726-.3c-.188-.2-.322-.441-.5-.646a2.585,2.585,0,0,0-1.6-.773,10.989,10.989,0,0,0-1.811-.025.716.716,0,0,1-.386-.065.649.649,0,0,1-.211-.242c-.708-1.2-.48-2.716-.23-4.09l.573-3.153a7.073,7.073,0,0,1,.477-1.752c.217-.464.7-1.25,1.3-1.111S2066.772,966.64,2067.278,967Z" transform="translate(-1894.837 -947.089)" fill="green"/>
        <path id="Tracé_404" data-name="Tracé 404" d="M1059.6,994.374a10.415,10.415,0,1,0,10.415,10.415A10.415,10.415,0,0,0,1059.6,994.374Zm-2.138,15.968-5.338-5.338,1.5-1.5,3.845,3.845,8.117-8.117,1.5,1.5-9.619,9.609Z" transform="translate(-992.024 -972.703)" fill="#57b894"/>
      </g>
      <circle id="Ellipse_49" data-name="Ellipse 49" cx="10.984" cy="10.984" r="10.984" transform="translate(62.261 48.847)" fill="#d60021"/>
      <rect id="Rectangle_182" data-name="Rectangle 182" width="1.447" height="8.752" transform="matrix(0.769, 0.639, -0.639, 0.769, 75.685, 56.047)" fill="#fff"/>
      <rect id="Rectangle_183" data-name="Rectangle 183" width="1.447" height="8.752" transform="matrix(0.731, -0.683, 0.683, 0.731, 69.664, 57.3)" fill="#fff"/>
    </g>
  </g>
</svg>
