<svg xmlns="http://www.w3.org/2000/svg" width="90" height="71" viewBox="0 0 90 71">
  <g id="Groupe_235" data-name="Groupe 235" transform="translate(-2778 -1220)">
    <g id="User_font_awesome" transform="translate(2778 2628)">
      <path id="Tracé_561" data-name="Tracé 561" d="M65.128-1350.537a11.053,11.053,0,0,1-3.377,8.527,12.681,12.681,0,0,1-8.974,3.127H12.35a12.681,12.681,0,0,1-8.974-3.127A11.053,11.053,0,0,1,0-1350.537q0-2.385.162-4.657a44.645,44.645,0,0,1,.648-4.9,37.279,37.279,0,0,1,1.226-4.882,22.816,22.816,0,0,1,1.989-4.387,15.876,15.876,0,0,1,2.868-3.645,12.121,12.121,0,0,1,3.955-2.407,14.236,14.236,0,0,1,5.158-.9,5.718,5.718,0,0,1,1.943.968q1.526.968,3.446,2.16a22.163,22.163,0,0,0,5,2.16,20.478,20.478,0,0,0,6.175.968,20.478,20.478,0,0,0,6.175-.968,22.163,22.163,0,0,0,5-2.16q1.92-1.192,3.446-2.16a5.718,5.718,0,0,1,1.943-.968,14.236,14.236,0,0,1,5.158.9,12.121,12.121,0,0,1,3.955,2.407,15.876,15.876,0,0,1,2.868,3.645,22.815,22.815,0,0,1,1.989,4.387,37.277,37.277,0,0,1,1.226,4.882,44.649,44.649,0,0,1,.648,4.9Q65.128-1352.922,65.128-1350.537Zm-14.8-40.184a16.424,16.424,0,0,1-5.2,12.217,17.357,17.357,0,0,1-12.558,5.062,17.357,17.357,0,0,1-12.558-5.062,16.424,16.424,0,0,1-5.2-12.217,16.425,16.425,0,0,1,5.2-12.217A17.356,17.356,0,0,1,32.564-1408a17.356,17.356,0,0,1,12.558,5.062A16.425,16.425,0,0,1,50.326-1390.72Z" transform="translate(0)" fill="green"/>
    </g>
    <circle id="Ellipse_96" data-name="Ellipse 96" cx="16.5" cy="16.5" r="16.5" transform="translate(2835 1258)" fill="#fff"/>
    <circle id="Ellipse_97" data-name="Ellipse 97" cx="13.5" cy="13.5" r="13.5" transform="translate(2838 1261)" fill="#d60021"/>
    <path id="Tracé_562" data-name="Tracé 562" d="M2917.5,1167.36v16.229" transform="translate(1619.702 -1619.696) rotate(45)" fill="#fff" stroke="#feffff" stroke-linecap="round" stroke-width="2"/>
    <path id="Tracé_563" data-name="Tracé 563" d="M2917.5,1167.36v16.229" transform="translate(-42.67 2506.272) rotate(-45)" fill="#fff" stroke="#feffff" stroke-linecap="round" stroke-width="2"/>
  </g>
</svg>
