<svg xmlns="http://www.w3.org/2000/svg" width="101.831" height="69.118" viewBox="0 0 101.831 69.118">
  <g id="carton" transform="translate(0 -71.347)">
    <g id="Groupe_234" data-name="Groupe 234" transform="translate(0 71.347)">
      <path id="Tracé_557" data-name="Tracé 557" d="M270.409,199.694a.8.8,0,0,0-.726-.107s-27.283,9.279-28.029,9.536a.947.947,0,0,1-1.029-.326l-8.585-10.6a.8.8,0,0,0-1.426.5v38.49a.8.8,0,0,0,1.109.741l38.525-15.919a.8.8,0,0,0,.5-.741V200.346A.8.8,0,0,0,270.409,199.694Z" transform="translate(-177.746 -168.884)" fill="green"/>
      <path id="Tracé_558" data-name="Tracé 558" d="M101.671,93.555,94.319,83.73a.8.8,0,0,0-.425-.291L51.156,71.372a.976.976,0,0,0-.481.011L7.937,83.45a.8.8,0,0,0-.424.291L.16,93.567a.8.8,0,0,0,.385,1.241l36.139,12.266a.8.8,0,0,0,.881-.254L47.682,94.35l3,.825a.8.8,0,0,0,.426,0v0c.015,0,.03-.005.044-.009l3-.825,10.117,12.469a.8.8,0,0,0,.881.254L101.287,94.8a.8.8,0,0,0,.384-1.241Zm-50.733-1.8L20.289,83.385l30.649-8.6,30.6,8.592Z" transform="translate(0 -71.347)" fill="green"/>
      <path id="Tracé_559" data-name="Tracé 559" d="M78.121,197.992a.8.8,0,0,0-.892.252l-8.585,10.6a.948.948,0,0,1-1.029.326c-.746-.257-28.029-9.536-28.029-9.536a.8.8,0,0,0-1.061.76V221.32a.8.8,0,0,0,.5.741L77.547,237.98a.8.8,0,0,0,1.109-.741v-38.49A.8.8,0,0,0,78.121,197.992Z" transform="translate(-29.694 -168.923)" fill="green"/>
    </g>
  </g>
</svg>
