<svg xmlns="http://www.w3.org/2000/svg" width="28" height="28" viewBox="0 0 28 28">
  <g id="Groupe_77" data-name="Groupe 77" transform="translate(-124 -535)">
    <circle id="Ellipse_51" data-name="Ellipse 51" cx="14" cy="14" r="14" transform="translate(124 535)" fill="green" opacity="0.09"/>
    <path id="archive" d="M7.079,9.984h2.54a.635.635,0,0,0,0-1.27H7.079a.635.635,0,0,0,0,1.27ZM12.794,3H3.9A1.9,1.9,0,0,0,2,4.9v1.9a.635.635,0,0,0,.635.635H3.27v5.079a1.9,1.9,0,0,0,1.9,1.9h6.349a1.9,1.9,0,0,0,1.9-1.9V7.444h.635A.635.635,0,0,0,14.7,6.81V4.9A1.9,1.9,0,0,0,12.794,3Zm-.635,9.524a.635.635,0,0,1-.635.635H5.175a.635.635,0,0,1-.635-.635V7.444h7.619Zm1.27-6.349H3.27V4.9A.635.635,0,0,1,3.9,4.27h8.889a.635.635,0,0,1,.635.635Z" transform="translate(129.651 540.286)" fill="#008100"/>
  </g>
</svg>
