<svg xmlns="http://www.w3.org/2000/svg" xmlns:xlink="http://www.w3.org/1999/xlink" width="87.51" height="61.5" viewBox="0 0 87.51 61.5">
  <defs>
    <clipPath id="clip-path">
      <path id="Tracé_314" data-name="Tracé 314" d="M635.547,158.41v11.321a1.193,1.193,0,0,0,1.19,1.19h10.594a1.151,1.151,0,0,1,.851.358l2.764,2.827a1.151,1.151,0,0,0,.851.358h6.86a1.19,1.19,0,0,0,1.1-1.65l-6.232-14.864a1.17,1.17,0,0,0-1.1-.73H636.737A1.193,1.193,0,0,0,635.547,158.41Z" transform="translate(-635.547 -157.22)" fill="none" clip-rule="evenodd"/>
    </clipPath>
  </defs>
  <g id="Groupe_70" data-name="Groupe 70" transform="translate(-402.245 -208.5)">
    <g id="Groupe_69" data-name="Groupe 69" transform="translate(-31.428 76.258)">
      <g id="Groupe_68" data-name="Groupe 68" transform="translate(433.673 132.242)">
        <g id="Groupe_64" data-name="Groupe 64">
          <rect id="Rectangle_178" data-name="Rectangle 178" width="55.27" height="39.839" rx="3.456" transform="translate(1.14)" fill="#ffc000"/>
          <path id="Tracé_274" data-name="Tracé 274" d="M442.949,137.667v2.527h52.056v-2.527Zm0,3.393v5.275h52.056V141.06Zm0,6.141v5.275h52.056V147.2Zm0,6.141v5.275h52.056v-5.275Zm0,6.141v5.275h52.056v-5.275Zm0,6.141V170.9h52.056v-5.275Zm0,6.141v2.527h52.056v-2.527Z" transform="translate(-440.202 -136.06)" fill="green" fill-rule="evenodd"/>
          <path id="Tracé_275" data-name="Tracé 275" d="M501.622,169.854a8.651,8.651,0,0,1,8.516,8.779q0,.305-.02.605l-4.217-1.768,1.754-1.722-10.676-4.475a8.293,8.293,0,0,1,4.643-1.419Zm7.072,13.67a8.442,8.442,0,0,1-7.072,3.887,8.616,8.616,0,0,1-8.465-7.817l5.355,1.1-2.141,2.1,12.324.732Zm-14.085-11.667-5.516,5.416,12.375,2.532-1.754,1.722,14.1.838-10.48-4.393,1.754-1.722Z" transform="translate(-472.678 -158.714)" fill="#fff" fill-rule="evenodd"/>
          <rect id="Rectangle_179" data-name="Rectangle 179" width="57.947" height="2.205" transform="translate(0.196 40.941)"/>
          <g id="Groupe_60" data-name="Groupe 60" transform="translate(57.591 5.196)">
            <path id="Tracé_276" data-name="Tracé 276" d="M628.9,149.786h19.757a1.169,1.169,0,0,1,1.1.73l8.183,19.519a1.135,1.135,0,0,1,.093.46v25.27a.79.79,0,0,1-.788.787H653.9a10.2,10.2,0,1,0-20.392,0H628.9a.79.79,0,0,1-.787-.787V150.573A.79.79,0,0,1,628.9,149.786Z" transform="translate(-628.113 -149.786)" fill="#ffc000" fill-rule="evenodd"/>
            <path id="Tracé_277" data-name="Tracé 277" d="M633.136,156.714a1.907,1.907,0,0,1,1.9-1.9h15.688a1.884,1.884,0,0,1,1.756,1.168l6.231,14.864a1.9,1.9,0,0,1-1.756,2.641H650.1a1.863,1.863,0,0,1-1.362-.573l-2.764-2.827a.438.438,0,0,0-.34-.143H635.041a1.907,1.907,0,0,1-1.9-1.9Z" transform="translate(-631.648 -153.321)" fill="#cc9805" fill-rule="evenodd"/>
            <path id="Tracé_278" data-name="Tracé 278" d="M635.547,158.41v11.321a1.193,1.193,0,0,0,1.19,1.19h10.594a1.151,1.151,0,0,1,.851.358l2.764,2.827a1.151,1.151,0,0,0,.851.358h6.86a1.19,1.19,0,0,0,1.1-1.65l-6.232-14.864a1.17,1.17,0,0,0-1.1-.73H636.737A1.193,1.193,0,0,0,635.547,158.41Z" transform="translate(-633.345 -155.018)" fill="#fff" fill-rule="evenodd"/>
            <path id="Tracé_279" data-name="Tracé 279" d="M636.728,218.336v20.23a1.192,1.192,0,0,0,.626,1.047,13.151,13.151,0,0,1,23.4-2.87V221.879a1.193,1.193,0,0,0-1.19-1.19h-7.613a1.15,1.15,0,0,1-.851-.358l-2.764-2.827a1.15,1.15,0,0,0-.851-.358h-9.568A1.192,1.192,0,0,0,636.728,218.336Z" transform="translate(-634.176 -197.195)" fill="#cc9805" fill-rule="evenodd"/>
            <path id="Tracé_280" data-name="Tracé 280" d="M723.51,229.962h-1.929a.434.434,0,0,0-.433.433v16.022a.434.434,0,0,0,.433.433h1.929Z" transform="translate(-693.592 -206.215)" fill-rule="evenodd"/>
            <path id="Tracé_281" data-name="Tracé 281" d="M725.381,233.783h-1.349a.227.227,0,0,0-.226.226v.531a.227.227,0,0,0,.226.227h1.349v-.984Zm0,14.624v-.984h-1.349a.227.227,0,0,0-.226.227v.531a.227.227,0,0,0,.226.227Zm0-1.516v-.984h-1.349a.227.227,0,0,0-.226.227v.531a.227.227,0,0,0,.226.227Zm0-1.516v-.984h-1.349a.227.227,0,0,0-.226.227v.531a.227.227,0,0,0,.226.227Zm0-1.516v-.984h-1.349a.227.227,0,0,0-.226.227v.531a.227.227,0,0,0,.226.227Zm0-1.516v-.984h-1.349a.227.227,0,0,0-.226.227v.531a.227.227,0,0,0,.226.226Zm0-1.516v-.984h-1.349a.227.227,0,0,0-.226.227v.531a.227.227,0,0,0,.226.226Zm0-1.516v-.984h-1.349a.227.227,0,0,0-.226.227v.531a.227.227,0,0,0,.226.226Zm0-1.516v-.984h-1.349a.227.227,0,0,0-.226.226v.531a.227.227,0,0,0,.226.226Zm0-1.516V235.3h-1.349a.227.227,0,0,0-.226.226v.531a.227.227,0,0,0,.226.226Z" transform="translate(-695.463 -208.904)" fill="#4e4e4e" fill-rule="evenodd"/>
            <rect id="Rectangle_180" data-name="Rectangle 180" width="3.346" height="1.299" rx="0.65" transform="translate(4.576 21.582)" fill="#ffc000"/>
            <path id="Tracé_282" data-name="Tracé 282" d="M725.919,240.836a4.22,4.22,0,0,0,0,6.185Z" transform="translate(-696 -213.868)" fill="#eeb400" fill-rule="evenodd"/>
          </g>
          <path id="Tracé_283" data-name="Tracé 283" d="M572.182,270.466h5.856a5.157,5.157,0,0,1,5.142,5.142h0a5.157,5.157,0,0,1-5.142,5.142h-5.856a5.157,5.157,0,0,1-5.142-5.142h0A5.157,5.157,0,0,1,572.182,270.466Z" transform="translate(-527.538 -229.525)" fill="#ffc000" fill-rule="evenodd"/>
          <path id="Tracé_284" data-name="Tracé 284" d="M584.9,270.466V280.75h-1.321c-.117,0-.232,0-.347-.012v-10.26q.172-.012.347-.012Zm3.213,0h1.321q.175,0,.347.012v10.26c-.115.008-.23.012-.347.012h-1.321Z" transform="translate(-538.932 -229.525)" fill="#cc9805" fill-rule="evenodd"/>
          <g id="Groupe_61" data-name="Groupe 61" transform="translate(63.704 42.525)">
            <path id="Tracé_285" data-name="Tracé 285" d="M658.237,275.816a9.487,9.487,0,1,1-9.487,9.487,9.487,9.487,0,0,1,9.487-9.487Zm0,3.656a5.831,5.831,0,1,0,5.831,5.831A5.831,5.831,0,0,0,658.237,279.472Z" transform="translate(-648.75 -275.816)" fill="#b7b7b7" fill-rule="evenodd"/>
            <path id="Tracé_286" data-name="Tracé 286" d="M666.925,288.16a5.831,5.831,0,1,1-5.831,5.831,5.831,5.831,0,0,1,5.831-5.831Zm-2.087,3.142.838.838a2.22,2.22,0,0,1,.823-.341v-1.185a3.389,3.389,0,0,0-1.662.689Zm.236,1.44-.838-.838a3.39,3.39,0,0,0-.689,1.662h1.185a2.222,2.222,0,0,1,.342-.823Zm-.342,1.674h-1.185a3.387,3.387,0,0,0,.689,1.662l.838-.838a2.218,2.218,0,0,1-.341-.824Zm.943,1.425-.838.838a3.386,3.386,0,0,0,1.662.689v-1.185a2.219,2.219,0,0,1-.823-.342Zm1.674.342v1.185a3.386,3.386,0,0,0,1.662-.688l-.838-.838a2.223,2.223,0,0,1-.824.342Zm1.425-.943.838.838a3.391,3.391,0,0,0,.689-1.662h-1.185a2.224,2.224,0,0,1-.341.824Zm.341-1.675H670.3a3.392,3.392,0,0,0-.688-1.662l-.838.839a2.215,2.215,0,0,1,.341.823Zm-.943-1.425.838-.838a3.388,3.388,0,0,0-1.662-.689V291.8A2.217,2.217,0,0,1,668.174,292.14Z" transform="translate(-657.438 -284.504)" fill="#90a1a1" fill-rule="evenodd"/>
            <path id="Tracé_287" data-name="Tracé 287" d="M668.34,290.17a5.236,5.236,0,1,1-5.236,5.236,5.236,5.236,0,0,1,5.236-5.236Zm0,.823a4.413,4.413,0,1,0,4.413,4.413A4.413,4.413,0,0,0,668.34,290.993Z" transform="translate(-658.852 -285.918)" fill="#979797" fill-rule="evenodd" style="mix-blend-mode: multiply;isolation: isolate"/>
            <path id="Tracé_288" data-name="Tracé 288" d="M678.422,304.495a.993.993,0,1,1-.993.993A.993.993,0,0,1,678.422,304.495Z" transform="translate(-668.935 -296.001)" fill="#979797" fill-rule="evenodd" style="mix-blend-mode: multiply;isolation: isolate"/>
          </g>
          <g id="Groupe_62" data-name="Groupe 62" transform="translate(19.404 42.525)">
            <path id="Tracé_289" data-name="Tracé 289" d="M508.671,275.816a9.487,9.487,0,1,1-9.487,9.487,9.487,9.487,0,0,1,9.487-9.487Zm0,3.656A5.831,5.831,0,1,0,514.5,285.3,5.831,5.831,0,0,0,508.671,279.472Z" transform="translate(-499.184 -275.816)" fill="#b7b7b7" fill-rule="evenodd"/>
            <path id="Tracé_290" data-name="Tracé 290" d="M517.359,288.16a5.831,5.831,0,1,1-5.831,5.831,5.831,5.831,0,0,1,5.831-5.831Zm-2.087,3.142.838.838a2.221,2.221,0,0,1,.823-.341v-1.185a3.389,3.389,0,0,0-1.662.689Zm.236,1.44-.838-.838a3.386,3.386,0,0,0-.688,1.662h1.185a2.221,2.221,0,0,1,.341-.823Zm-.341,1.674h-1.185a3.387,3.387,0,0,0,.689,1.662l.838-.838a2.222,2.222,0,0,1-.341-.824Zm.943,1.425-.838.838a3.386,3.386,0,0,0,1.662.689v-1.185a2.22,2.22,0,0,1-.823-.342Zm1.674.342v1.185a3.386,3.386,0,0,0,1.662-.688l-.838-.838a2.222,2.222,0,0,1-.824.342Zm1.426-.943.838.838a3.385,3.385,0,0,0,.689-1.662h-1.185a2.222,2.222,0,0,1-.341.824Zm.342-1.675h1.185a3.385,3.385,0,0,0-.688-1.662l-.838.839a2.222,2.222,0,0,1,.342.823Zm-.943-1.425.838-.838a3.39,3.39,0,0,0-1.662-.689V291.8A2.217,2.217,0,0,1,518.608,292.14Z" transform="translate(-507.872 -284.504)" fill="#90a1a1" fill-rule="evenodd"/>
            <path id="Tracé_291" data-name="Tracé 291" d="M518.774,290.17a5.236,5.236,0,1,1-5.236,5.236,5.236,5.236,0,0,1,5.236-5.236Zm0,.823a4.413,4.413,0,1,0,4.413,4.413A4.413,4.413,0,0,0,518.774,290.993Z" transform="translate(-509.286 -285.918)" fill="#979797" fill-rule="evenodd" style="mix-blend-mode: multiply;isolation: isolate"/>
            <path id="Tracé_292" data-name="Tracé 292" d="M528.856,304.495a.993.993,0,1,1-.993.993A.993.993,0,0,1,528.856,304.495Z" transform="translate(-519.369 -296.001)" fill="#979797" fill-rule="evenodd" style="mix-blend-mode: multiply;isolation: isolate"/>
          </g>
          <g id="Groupe_63" data-name="Groupe 63" transform="translate(0 42.525)">
            <path id="Tracé_293" data-name="Tracé 293" d="M443.16,275.816a9.487,9.487,0,1,1-9.487,9.487,9.487,9.487,0,0,1,9.487-9.487Zm0,3.656a5.831,5.831,0,1,0,5.831,5.831A5.831,5.831,0,0,0,443.16,279.472Z" transform="translate(-433.673 -275.816)" fill="#b7b7b7" fill-rule="evenodd"/>
            <path id="Tracé_294" data-name="Tracé 294" d="M451.848,288.16a5.831,5.831,0,1,1-5.831,5.831,5.831,5.831,0,0,1,5.831-5.831Zm-2.087,3.142.838.838a2.223,2.223,0,0,1,.823-.341v-1.185a3.39,3.39,0,0,0-1.662.689Zm.236,1.44-.838-.838a3.384,3.384,0,0,0-.689,1.662h1.185a2.216,2.216,0,0,1,.341-.823Zm-.341,1.674H448.47a3.386,3.386,0,0,0,.689,1.662l.838-.838a2.222,2.222,0,0,1-.341-.824Zm.943,1.425-.838.838a3.388,3.388,0,0,0,1.662.689v-1.185a2.222,2.222,0,0,1-.823-.342Zm1.675.342v1.185a3.386,3.386,0,0,0,1.662-.688l-.838-.838a2.223,2.223,0,0,1-.823.342Zm1.425-.943.838.838a3.385,3.385,0,0,0,.689-1.662H454.04a2.217,2.217,0,0,1-.341.824Zm.341-1.675h1.185a3.388,3.388,0,0,0-.689-1.662l-.838.839a2.221,2.221,0,0,1,.341.823Zm-.943-1.425.838-.838a3.39,3.39,0,0,0-1.662-.689V291.8A2.217,2.217,0,0,1,453.1,292.14Z" transform="translate(-442.361 -284.504)" fill="#90a1a1" fill-rule="evenodd"/>
            <path id="Tracé_295" data-name="Tracé 295" d="M453.263,290.17a5.236,5.236,0,1,1-5.235,5.236,5.236,5.236,0,0,1,5.235-5.236Zm0,.823a4.413,4.413,0,1,0,4.413,4.413A4.413,4.413,0,0,0,453.263,290.993Z" transform="translate(-443.776 -285.918)" fill="#979797" fill-rule="evenodd" style="mix-blend-mode: multiply;isolation: isolate"/>
            <path id="Tracé_296" data-name="Tracé 296" d="M463.345,304.495a.993.993,0,1,1-.993.993A.993.993,0,0,1,463.345,304.495Z" transform="translate(-453.858 -296.001)" fill="#979797" fill-rule="evenodd" style="mix-blend-mode: multiply;isolation: isolate"/>
          </g>
        </g>
        <g id="Groupe_67" data-name="Groupe 67" transform="translate(59.793 7.398)">
          <g id="Groupe_66" data-name="Groupe 66" clip-path="url(#clip-path)">
            <g id="Groupe_65" data-name="Groupe 65" transform="translate(3.558 1.412)">
              <path id="Tracé_297" data-name="Tracé 297" d="M665.148,200.966a2.03,2.03,0,0,0-.163-.661l-.52-1.407c-.056-.15-.111-.3-.171-.449-.078-.195-.164-.387-.25-.578l-.081-.18-.376-.838a.611.611,0,0,0-.165-.248.687.687,0,0,0-.5-.054,2.984,2.984,0,0,1-2.269-.693,6.692,6.692,0,0,0,.684,2.926,8.189,8.189,0,0,0,1.4,2.067,2,2,0,0,0,1.619.808C664.8,201.662,665.155,201.463,665.148,200.966Z" transform="translate(-656.772 -185.826)" fill="#025b02"/>
              <path id="Tracé_298" data-name="Tracé 298" d="M661.376,174.36c.064.427.206.839.281,1.264a4.128,4.128,0,0,1-.285,2.363,2.285,2.285,0,0,1-1.27,1.314c-.311.1-.647.106-.964.188a2.029,2.029,0,0,0-1.387,1.277,9.087,9.087,0,0,1-2.723-1.611,9.373,9.373,0,0,0-.338-4.774.7.7,0,0,1-.022-.6.643.643,0,0,1,.3-.207,9.957,9.957,0,0,1,6.144-.5c.306.074.368.1.288.407A2.2,2.2,0,0,0,661.376,174.36Z" transform="translate(-652.519 -169.595)" fill="#edb38c"/>
              <path id="Tracé_299" data-name="Tracé 299" d="M669.471,179.688a2.239,2.239,0,0,1,.628,1.529,4.455,4.455,0,0,1-.605,1.942,3.466,3.466,0,0,1-.535.863,1.171,1.171,0,0,1-.9.409,1.751,1.751,0,0,1-1.009-.584l-.886-.831a.723.723,0,0,1-.262-.385.124.124,0,0,0,.18-.022.356.356,0,0,0,.059-.195c.044-.426.073-.853.094-1.281.007-.148-.041-.454.071-.57.093-.1.436-.123.567-.159Z" transform="translate(-660.471 -174.445)" fill="#b7e2e1"/>
              <path id="Tracé_300" data-name="Tracé 300" d="M655,184.254a.078.078,0,0,0-.036.144c.032.018.087,0,.081-.047a.668.668,0,0,0-.141-.337c-.064-.08-.2-.214-.3-.123a.284.284,0,0,0-.022.333.785.785,0,0,0,.3.282c.052.034.108-.042.065-.085a.185.185,0,0,0-.276.037.478.478,0,0,0-.071.169.281.281,0,0,0,0,.167.167.167,0,0,0,.27.044.5.5,0,0,0,.1-.148l.119-.22c.033-.061-.06-.116-.093-.055l-.129.239c-.024.043-.083.16-.151.121-.053-.03,0-.157.014-.2s.085-.137.142-.079l.065-.085a.883.883,0,0,1-.216-.174c-.047-.058-.106-.177-.056-.25.028-.041.071.007.1.031a.52.52,0,0,1,.083.094.545.545,0,0,1,.093.238l.081-.047-.018.057C655.072,184.355,655.072,184.246,655,184.254Z" transform="translate(-652.473 -177.382)" fill="#b7e2e1"/>
              <path id="Tracé_301" data-name="Tracé 301" d="M667.178,182.481a1.267,1.267,0,0,0,.637,1.508l.7.53a1.219,1.219,0,0,0,.582.294.42.42,0,0,0,.479-.343.617.617,0,0,0-.26-.431l-.632-.582,1.49-.007.036-.716-1.21-.092,1.154-.235a.607.607,0,0,0,.288-.113.407.407,0,0,0,.115-.349,1.2,1.2,0,0,0-.118-.361l-1.213.343a.3.3,0,0,1-.163.014.1.1,0,0,1-.076-.126l1-.521a.619.619,0,0,0,.279-.226.214.214,0,0,0-.093-.3,1.68,1.68,0,0,0-.529.1q-.285.057-.569.12-.547.12-1.089.261c-.223.058-.55.078-.664.31A3.2,3.2,0,0,0,667.178,182.481Z" transform="translate(-661.341 -175.196)" fill="#a3cecc"/>
              <path id="Tracé_302" data-name="Tracé 302" d="M657.526,165.529a29.091,29.091,0,0,1,3.951.277.214.214,0,0,0,.161-.379,2.646,2.646,0,0,0-.449-.282,2.754,2.754,0,0,1-.908-.6,5.05,5.05,0,0,1-.509-1.1,2.645,2.645,0,0,0-1.693-1.326,4.8,4.8,0,0,0-2.2-.016,4.583,4.583,0,0,0-2.493,1.227,2.472,2.472,0,0,0-.575,2.6,1.4,1.4,0,0,0,.225.363c.139.157.2.085.374.011a8.785,8.785,0,0,1,.952-.338,10.971,10.971,0,0,1,2-.378C656.753,165.557,657.139,165.536,657.526,165.529Z" transform="translate(-651.14 -161.986)" fill="#025b02"/>
              <path id="Tracé_303" data-name="Tracé 303" d="M660.74,165.1a5.654,5.654,0,0,0-1.263-1.784,2.43,2.43,0,0,0-2.029-.627,2.351,2.351,0,0,0-1.672,1.716,1.159,1.159,0,0,1-.3.642c-.262.207-.687.113-.922.35-.165.166-.174.441-.332.613a1.363,1.363,0,0,1-.275.195.453.453,0,0,0-.213.252c-.134.551.855,0,1.013-.065q.7-.277,1.414-.5a18.6,18.6,0,0,1,2.925-.643q.42-.057.842-.1A3.917,3.917,0,0,1,660.74,165.1Z" transform="translate(-651.895 -162.456)" fill="green"/>
              <path id="Tracé_304" data-name="Tracé 304" d="M656.585,176.177l-.416.055a2.047,2.047,0,0,0-.149-.829.8.8,0,0,0-.646-.484.768.768,0,0,0-.694.48,1.508,1.508,0,0,0-.06.881c.054.294.151.579.2.873a1.512,1.512,0,0,1-.059.881,1.646,1.646,0,0,0-.515-1.159c.061.01.1-.077.072-.134a.559.559,0,0,0-.123-.137.661.661,0,0,1-.127-.4l-.061-.7a.889.889,0,0,1,.051-.495.85.85,0,0,1,.451-.337,8.661,8.661,0,0,1,1.913-.568q.251-.044.5-.073c.155-.018.26-.055.216.125-.075.308-.273.608-.364.92A5.214,5.214,0,0,0,656.585,176.177Z" transform="translate(-652.092 -170.453)" fill="#2d1416"/>
              <path id="Tracé_305" data-name="Tracé 305" d="M672.905,177.181l.436.077c.095.017.207.022.248-.085a.15.15,0,0,0-.07-.2c-.081-.025-.228.044-.3.069S672.963,177.192,672.905,177.181Z" transform="translate(-665.398 -172.532)" fill="#e5e2da"/>
              <path id="Tracé_306" data-name="Tracé 306" d="M673.327,175.159a.629.629,0,0,0-.341-.153.737.737,0,0,0-.342,0,1.168,1.168,0,0,0-.544.369s0,0,0,0a.758.758,0,0,1,.557-.255,1.7,1.7,0,0,1,.293,0,.814.814,0,0,1,.154.039c.06.021.113.054.172.076S673.358,175.192,673.327,175.159Z" transform="translate(-664.831 -171.136)" fill="#2d1416"/>
              <path id="Tracé_307" data-name="Tracé 307" d="M673.615,176.228a1.31,1.31,0,0,0-.158.022.262.262,0,0,0,.112-.193c0-.029-.042-.029-.046,0v.01a.232.232,0,0,1-.125.181.013.013,0,0,0-.007.015l0,0c-.08.019-.159.043-.236.067a4.116,4.116,0,0,0-.449.169.033.033,0,0,0,0,.056.5.5,0,0,0,.195.044l.248.017c.073.005.147.008.22.015a.014.014,0,0,0,.021,0h0a.22.22,0,0,1,.109.038c.025.019.04.046.065.064a.01.01,0,0,0,.014-.006.131.131,0,0,0-.074-.124.227.227,0,0,0-.078-.029.371.371,0,0,0,.023-.272c.058-.017.115-.034.171-.055C673.63,176.248,673.63,176.227,673.615,176.228Zm-.239.1a.32.32,0,0,1-.007.089.279.279,0,0,1-.015.045c-.035,0-.046-.035-.045-.07.01-.02.023-.039.031-.053Zm-.365.219a1.4,1.4,0,0,1-.2-.019c.121-.052.245-.1.37-.141l.036-.012a.208.208,0,0,0-.005.161.178.178,0,0,0,.016.026Z" transform="translate(-665.244 -171.874)" fill="#2d1416"/>
              <path id="Tracé_308" data-name="Tracé 308" d="M662.669,180.321l-.045.078-1.747-.882c-.048-.024-.179-.1-.118-.176.046-.056.2.05.242.072.193.091.383.188.573.287C661.665,179.749,662.679,180.3,662.669,180.321Z" transform="translate(-656.838 -174.189)" fill="#b7e2e1"/>
              <path id="Tracé_309" data-name="Tracé 309" d="M656.051,185.45l2.416.977.679.275a.082.082,0,0,0,.1-.057.083.083,0,0,0-.057-.1l-2.416-.977-.679-.274a.082.082,0,0,0-.1.057A.083.083,0,0,0,656.051,185.45Z" transform="translate(-653.494 -178.387)" fill="#b7e2e1"/>
              <path id="Tracé_310" data-name="Tracé 310" d="M657.717,178.4a.348.348,0,0,0-.406-.155.517.517,0,0,0-.318.327,1.033,1.033,0,0,0-.035.467,2.094,2.094,0,0,0,.333.911c.068.1.178.212.3.177.287-.086.135-.623.07-.809C657.551,179.006,657.863,178.688,657.717,178.4Z" transform="translate(-654.167 -173.418)" fill="#c48d69"/>
              <path id="Tracé_311" data-name="Tracé 311" d="M653.3,192.236a2.071,2.071,0,0,0,.212.743,2.036,2.036,0,0,1,.209.744.7.7,0,0,1-.346.65l.806,0q.191,1.623.381,3.247l-6.552-.263c-.071-.831-.336-1.634-.428-2.463a2.94,2.94,0,0,1,.591-2.35c.338-.36.809-.583,1.11-.974a3.062,3.062,0,0,0,.422-.9c.042-.124.127-.6.248-.657.156-.068.3.2.377.293a5.689,5.689,0,0,0,1.849,1.508C652.282,191.858,653.3,192.229,653.3,192.236Z" transform="translate(-647.559 -181.7)" fill="green"/>
              <path id="Tracé_312" data-name="Tracé 312" d="M648.86,200.334a8.187,8.187,0,0,0,.677,2.622,12.747,12.747,0,0,0,3.557.1,6.466,6.466,0,0,0-.409-2.411c-.116-.294-.258-.576-.4-.858a4.118,4.118,0,0,0-.417-.706,2.129,2.129,0,0,0-1.668-.778,1.15,1.15,0,0,0-1.185.724A2.494,2.494,0,0,0,648.86,200.334Z" transform="translate(-648.461 -187.548)" fill="green"/>
              <path id="Tracé_313" data-name="Tracé 313" d="M698.52,211.474h0a.514.514,0,0,1-.317-.654l1.63-4.693a.514.514,0,0,1,.654-.317h0a.514.514,0,0,1,.317.654l-1.63,4.692A.514.514,0,0,1,698.52,211.474Z" transform="translate(-683.183 -192.81)" fill="#0b0c0c"/>
            </g>
          </g>
        </g>
        <path id="Tracé_315" data-name="Tracé 315" d="M636.2,191.867l20.643.042a1.215,1.215,0,0,1,1.137.805l1.872,4.745c.167.423.473.814.237,1.191a1.186,1.186,0,0,1-1.029.586h-7.12a1.161,1.161,0,0,1-.883-.4l-2.869-3.117a1.161,1.161,0,0,0-.883-.4h-11a1.184,1.184,0,0,1-.763-.281v-2.486A.677.677,0,0,1,636.2,191.867Z" transform="translate(-575.754 -174.206)" fill="#cbd7d7" fill-rule="evenodd" style="mix-blend-mode: multiply;isolation: isolate"/>
      </g>
    </g>
  </g>
</svg>
