<svg id="blankslateToCollect.ef4273a2" xmlns="http://www.w3.org/2000/svg" xmlns:xlink="http://www.w3.org/1999/xlink" width="284.261" height="236.688" viewBox="0 0 284.261 236.688">
  <defs>
    <clipPath id="clip-path">
      <path id="_Clipping_Path_" data-name="&lt;Clipping Path&gt;" d="M397.534,197.808S413.561,202.616,436,195.4s68.92,10.417,68.92,10.417,36.864,0,91.361-23.24c0,0-24.843,24.041-7.213,38.468s1.6,35.26-19.234,43.275S547.4,288.364,549,303.592s0,.8,0,.8-62.509-11.219-78.539,27.255L391.123,206.625S386.315,197.009,397.534,197.808Z" transform="translate(-390.099 -182.58)" fill="#6c63ff"/>
    </clipPath>
  </defs>
  <path id="Tracé_31" data-name="Tracé 31" d="M340.219,414.52h-.057l-2.691-3.47-4.354,4.354.482.723-.548.133s8.788,16.974,10.252,10.531S340.219,414.52,340.219,414.52Z" transform="translate(-274.021 -303.599)" fill="#fdb797"/>
  <path id="_Clipping_Path_2" data-name="&lt;Clipping Path&gt;" d="M397.534,197.808S413.561,202.616,436,195.4s68.92,10.417,68.92,10.417,36.864,0,91.361-23.24c0,0-24.843,24.041-7.213,38.468s1.6,35.26-19.234,43.275S547.4,288.364,549,303.592s0,.8,0,.8-62.509-11.219-78.539,27.255L391.123,206.625S386.315,197.009,397.534,197.808Z" transform="translate(-312.99 -147.535)" fill="green"/>
  <g id="Groupe_9" data-name="Groupe 9" transform="translate(77.109 35.045)" clip-path="url(#clip-path)">
    <path id="Tracé_32" data-name="Tracé 32" d="M141.46,84.18,341.008,227.63l12.021-35.26Z" transform="translate(-173.738 -92.547)" opacity="0.1"/>
    <path id="Tracé_33" data-name="Tracé 33" d="M179.39,225.79l110.592,112.2,16.03-12.021Z" transform="translate(-199.647 -189.278)" opacity="0.1"/>
  </g>
  <g id="Groupe_10" data-name="Groupe 10" transform="translate(77.724 35.137)" opacity="0.1">
    <path id="Tracé_34" data-name="Tracé 34" d="M403.49,209.317s16.027,4.808,38.468-2.405,68.914,10.42,68.914,10.42,29.822,0,75.471-16.911c3.61-9.546,11.881-17.551,11.881-17.551-54.51,23.24-91.361,23.24-91.361,23.24s-46.482-17.63-68.92-10.417-38.468,2.405-38.468,2.405c-11.219-.8-6.411,8.817-6.411,8.817l3.3,5.2C397.05,210.363,398.967,208.994,403.49,209.317Z" transform="translate(-392.039 -182.87)"/>
    <path id="Tracé_35" data-name="Tracé 35" d="M1014.911,299.516a20.165,20.165,0,0,1-2.3-2.2c-.184,4.732,1.448,9.438,6.307,13.415a25.016,25.016,0,0,1,3.543,3.505C1022.615,309.1,1020.387,304,1014.911,299.516Z" transform="translate(-815.93 -261.049)"/>
  </g>
  <path id="Tracé_36" data-name="Tracé 36" d="M342.657,694.4l-1.477,7.387H335.27l1.48-10.341Z" transform="translate(-229.017 -472.317)" fill="#fdb797"/>
  <path id="Tracé_37" data-name="Tracé 37" d="M344.743,701.3l-.415,1.249-5.828-1.664.415-.833Z" transform="translate(-231.223 -478.191)" opacity="0.1"/>
  <path id="Tracé_38" data-name="Tracé 38" d="M237.41,694.4l1.477,7.387h5.907l-1.477-10.341Z" transform="translate(-162.17 -472.317)" fill="#fdb797"/>
  <path id="Tracé_39" data-name="Tracé 39" d="M237.34,701.3l.415,1.664,5.831-2.079v-.833Z" transform="translate(-162.123 -478.191)" opacity="0.1"/>
  <path id="Tracé_40" data-name="Tracé 40" d="M527.42,112.5s-.165-7.4-5.365-11.479-1.309,14.638-1.309,14.638Z" transform="translate(-401.277 -91.425)" fill="#fdb797"/>
  <path id="Tracé_41" data-name="Tracé 41" d="M372.48,791.42H365.1l-1.477,4.437s-7.549-.165-7.384,1.477,4.266,4.437,14.768,1.477l2.954-2.954S375.433,794.374,372.48,791.42Z" transform="translate(-289.856 -563.423)" fill="#333"/>
  <path id="Tracé_42" data-name="Tracé 42" d="M478.081,791.42h7.384l1.477,4.437s7.549-.165,7.384,1.477-4.266,4.437-14.768,1.477l-2.954-2.954S475.127,794.374,478.081,791.42Z" transform="translate(-371.828 -563.423)" fill="#333"/>
  <path id="Tracé_43" data-name="Tracé 43" d="M395.284,474.51H353.939c-13.456,35.447-11.815,51.7-11.815,51.7l11.815,44.308,8.874-1.477-8.874-44.3c7.384-6.072,20.679-29.54,20.679-29.54s13.288,23.455,20.666,29.54l-8.874,44.308,8.874,1.477L407.1,526.215S408.75,509.957,395.284,474.51Z" transform="translate(-280.176 -346.947)" fill="#333"/>
  <path id="Tracé_44" data-name="Tracé 44" d="M379.54,476.32s23.452,8.874,41.355,0Z" transform="translate(-305.777 -348.184)" opacity="0.1"/>
  <path id="Tracé_45" data-name="Tracé 45" d="M322.275,262.011,310.46,273.826l4.437,23.633L308.99,301.9l-10.338-31.017s-3.118-5.743,1.477-8.874l17.725-17.725s7.606-5.1,12.835-2.485-8.516,20.029-8.516,20.029" transform="translate(-249.818 -187.475)" fill="#ffc000"/>
  <path id="Tracé_46" data-name="Tracé 46" d="M374.87,189.056l1.477,53.173s23.452,8.874,41.355,0l-1.477-50.054-.377-1.654.273-.814,17.747-14.718c4.865-2.678,2.294-8.687,2.294-8.687l-7.416-31.841-6.3,3.86,2.218,23.94-12.639,10.484-.317-.016v.079l-32.4-1.474" transform="translate(-302.587 -114.665)" fill="#ffc000"/>
  <rect id="Rectangle_73" data-name="Rectangle 73" width="11.815" height="13.292" rx="5.907" transform="translate(88.614 49.363)" fill="#fdb797"/>
  <path id="Tracé_47" data-name="Tracé 47" d="M427.59,234.543A13.288,13.288,0,0,0,439,233.275a5.93,5.93,0,0,0-5.552-3.895h0A5.926,5.926,0,0,0,427.59,234.543Z" transform="translate(-338.599 -179.503)" opacity="0.1"/>
  <circle id="Ellipse_14" data-name="Ellipse 14" cx="13.292" cy="13.292" r="13.292" transform="translate(79.753 28.687)" fill="#fdb797"/>
  <path id="Tracé_48" data-name="Tracé 48" d="M394.486,149.64a6.845,6.845,0,0,1-2.472-.139,5.457,5.457,0,0,1-2.092-1.369,9.919,9.919,0,0,1-3.2-6.294,6.6,6.6,0,0,1,3.033-6.139c2.916-1.661,6.633-.349,9.444,1.483,2.418,1.585,5.305,3.616,7.9,2.358a17.962,17.962,0,0,0,2.288-1.68c3-2.107,7.47-1.068,9.92,1.661s3.137,6.677,2.716,10.322-1.816,7.089-3.1,10.525a5.105,5.105,0,0,1-.992,1.848c-1.559,1.6-4.478.358-5.5-1.626-1.784-3.451,0-9.435-4.215-11.447C404.865,147.545,398.089,149.406,394.486,149.64Z" transform="translate(-310.673 -114.991)" opacity="0.1"/>
  <path id="Tracé_49" data-name="Tracé 49" d="M395.116,148.6a6.845,6.845,0,0,1-2.472-.139,5.457,5.457,0,0,1-2.092-1.369,9.918,9.918,0,0,1-3.2-6.294,6.6,6.6,0,0,1,3.033-6.139c2.916-1.661,6.633-.349,9.444,1.483,2.418,1.585,5.305,3.616,7.9,2.358a17.963,17.963,0,0,0,2.288-1.68c3-2.107,7.47-1.068,9.919,1.661s3.138,6.677,2.716,10.322-1.835,7.089-3.1,10.525a5.106,5.106,0,0,1-.992,1.848c-1.559,1.6-4.478.358-5.5-1.626-1.784-3.451,0-9.435-4.215-11.447C405.5,146.505,398.716,148.369,395.116,148.6Z" transform="translate(-311.104 -114.281)" fill="#333"/>
  <ellipse id="Ellipse_15" data-name="Ellipse 15" cx="1.477" cy="2.954" rx="1.477" ry="2.954" transform="translate(98.951 39.025)" fill="#fdb797"/>
  <path id="Tracé_50" data-name="Tracé 50" d="M228.14,234.71l3.749,1.756-3.749,4.583Z" transform="translate(-155.838 -160.326)" opacity="0.1"/>
  <path id="Tracé_51" data-name="Tracé 51" d="M352.817,236.75l-2.5,2.776,1.664,2.5.973-2.776Z" transform="translate(-239.297 -161.72)" opacity="0.1"/>
  <path id="Tracé_52" data-name="Tracé 52" d="M406.818,253.909v2.405s-17.541-3.2-17.988-8.015l11.577.8Z" transform="translate(-312.123 -192.427)" fill="#007300"/>
  <path id="Tracé_53" data-name="Tracé 53" d="M445.59,253.909v2.405s17.541-3.2,17.988-8.015L452,249.1Z" transform="translate(-350.895 -192.427)" fill="#007300"/>
  <path id="Tracé_54" data-name="Tracé 54" d="M637.09,276.36l57.7,13.624L673.954,298.8Z" transform="translate(-435.184 -188.776)" opacity="0.1"/>
  <path id="Tracé_55" data-name="Tracé 55" d="M389,237.816s0-5.036,3.359-5.036,6.716,10.075,6.716,10.075Z" transform="translate(-312.239 -181.826)" fill="#007300"/>
  <circle id="Ellipse_16" data-name="Ellipse 16" cx="2.199" cy="2.199" r="2.199" transform="translate(1.464 90.867)" fill="#333" opacity="0.5"/>
  <circle id="Ellipse_17" data-name="Ellipse 17" cx="2.199" cy="2.199" r="2.199" transform="translate(28.944 142.531)" fill="#333" opacity="0.5"/>
  <circle id="Ellipse_18" data-name="Ellipse 18" cx="2.199" cy="2.199" r="2.199" transform="translate(263.077 4.028)" fill="#333" opacity="0.5"/>
  <path id="Tracé_56" data-name="Tracé 56" d="M639.889,90.859a1.347,1.347,0,0,1-.751-1.626.632.632,0,0,0,.029-.149h0a.675.675,0,0,0-1.214-.447h0a.63.63,0,0,0-.076.133,1.347,1.347,0,0,1-1.623.748.633.633,0,0,0-.149-.029h0a.675.675,0,0,0-.447,1.214h0a.635.635,0,0,0,.133.076,1.347,1.347,0,0,1,.742,1.623.635.635,0,0,0-.028.149h0a.675.675,0,0,0,1.214.447h0a.632.632,0,0,0,.076-.133,1.347,1.347,0,0,1,1.626-.751.634.634,0,0,0,.149.029h0a.675.675,0,0,0,.45-1.211h0A.633.633,0,0,0,639.889,90.859Z" transform="translate(-480.542 -83.18)" fill="#007300" opacity="0.5"/>
  <path id="Tracé_57" data-name="Tracé 57" d="M980.942,512.849a1.347,1.347,0,0,1-.751-1.626.638.638,0,0,0,.029-.149h0a.675.675,0,0,0-1.214-.447h0a.629.629,0,0,0-.076.133,1.347,1.347,0,0,1-1.626.751.634.634,0,0,0-.149-.029h0a.675.675,0,0,0-.447,1.214h0a.636.636,0,0,0,.133.076,1.347,1.347,0,0,1,.751,1.626.633.633,0,0,0-.028.149h0a.675.675,0,0,0,1.214.447h0a.631.631,0,0,0,.076-.133,1.347,1.347,0,0,1,1.626-.751.639.639,0,0,0,.149.029h0a.675.675,0,0,0,.447-1.214h0A.636.636,0,0,0,980.942,512.849Z" transform="translate(-713.507 -371.434)" fill="#007300" opacity="0.5"/>
  <circle id="Ellipse_19" data-name="Ellipse 19" cx="2.199" cy="2.199" r="2.199" transform="translate(183.933 201.887)" fill="#ffc000" opacity="0.5"/>
  <circle id="Ellipse_20" data-name="Ellipse 20" cx="2.199" cy="2.199" r="2.199" transform="translate(1.464 186.5)" fill="#ffc000" opacity="0.5"/>
  <circle id="Ellipse_21" data-name="Ellipse 21" cx="2.199" cy="2.199" r="2.199" transform="translate(177.338 27.112)" fill="#ffc000" opacity="0.5"/>
  <g id="Groupe_11" data-name="Groupe 11" opacity="0.5">
    <rect id="Rectangle_74" data-name="Rectangle 74" width="1.1" height="6.227" transform="translate(2.564)" fill="#ffc000"/>
    <rect id="Rectangle_75" data-name="Rectangle 75" width="1.1" height="6.227" transform="translate(6.227 2.564) rotate(90)" fill="#ffc000"/>
  </g>
  <g id="Groupe_12" data-name="Groupe 12" transform="translate(20.153 59.723)" opacity="0.5">
    <rect id="Rectangle_76" data-name="Rectangle 76" width="1.1" height="6.227" transform="translate(2.564)" fill="#ffc000"/>
    <rect id="Rectangle_77" data-name="Rectangle 77" width="1.1" height="6.227" transform="translate(6.227 2.564) rotate(90)" fill="#ffc000"/>
  </g>
  <g id="Groupe_13" data-name="Groupe 13" transform="translate(221.678 32.975)" opacity="0.5">
    <rect id="Rectangle_78" data-name="Rectangle 78" width="1.1" height="6.227" transform="translate(2.561)" fill="#ffc000"/>
    <rect id="Rectangle_79" data-name="Rectangle 79" width="1.1" height="6.227" transform="translate(6.227 2.564) rotate(90)" fill="#ffc000"/>
  </g>
</svg>
