<svg xmlns="http://www.w3.org/2000/svg" width="28" height="28" viewBox="0 0 28 28">
  <g id="Groupe_78" data-name="Groupe 78" transform="translate(-163 -535)">
    <circle id="Ellipse_52" data-name="Ellipse 52" cx="14" cy="14" r="14" transform="translate(163 535)" fill="green" opacity="0.09"/>
    <path id="truck-loading" d="M13.976,10.651H12.629a1.854,1.854,0,0,0,.111-.618V6.943A1.854,1.854,0,0,0,10.887,5.09H7.179A1.854,1.854,0,0,0,5.325,6.943v3.09a1.854,1.854,0,0,0,.111.618H4.708a.618.618,0,0,1-.618-.618V3.854A1.854,1.854,0,0,0,2.236,2H1.618a.618.618,0,0,0,0,1.236h.618a.618.618,0,0,1,.618.618v6.179a1.854,1.854,0,0,0,1.372,1.78,1.854,1.854,0,1,0,3.46.074H9.762a1.854,1.854,0,1,0,3.485,0h.729a.618.618,0,1,0,0-1.236ZM5.943,13.123a.618.618,0,1,1,.618-.618A.618.618,0,0,1,5.943,13.123Zm1.236-2.472a.618.618,0,0,1-.618-.618V6.943a.618.618,0,0,1,.618-.618h3.708a.618.618,0,0,1,.618.618v3.09a.618.618,0,0,1-.618.618ZM11.5,13.123a.618.618,0,1,1,.618-.618A.618.618,0,0,1,11.5,13.123Z" transform="translate(169.203 540.341)" fill="#008100"/>
  </g>
</svg>
