<svg xmlns="http://www.w3.org/2000/svg" width="232.412" height="164.399" viewBox="0 0 232.412 164.399">
  <g id="Groupe_76" data-name="Groupe 76" transform="translate(-77 -537.722)">
    <g id="Groupe_75" data-name="Groupe 75" transform="translate(77 537.722)">
      <path id="Tracé_405" data-name="Tracé 405" d="M535.235,702.752c-14.811-.536-28.918-5.54-42.388-11.013S466.034,680.2,451.578,677.3c-9.3-1.865-19.933-2.131-27.423,3.079-7.211,5.028-9.541,13.682-10.793,21.719-.943,6.048-1.5,12.414,1.085,18.076,1.794,3.931,4.975,7.235,7.177,11,7.66,13.1,2.245,29.256-6.053,42.048-3.89,6-8.41,11.731-11.415,18.112s-4.394,13.716-1.764,20.242c2.6,6.464,8.813,11.31,15.539,14.721,13.66,6.931,29.751,8.913,45.453,10.039,34.747,2.485,69.677,1.41,104.515.33,12.894-.4,25.842-.8,38.525-2.887,7.044-1.159,14.315-3,19.43-7.436,6.49-5.633,8.1-15.171,3.749-22.234-7.3-11.851-27.463-14.793-32.568-27.508-2.806-7,.075-14.8,4.156-21.286,8.751-13.927,23.419-26.144,24.19-42.06.531-10.932-6.52-21.88-17.422-27.054-11.427-5.423-27.275-4.74-35.7,4.235C563.569,699.673,548.314,703.228,535.235,702.752Z" transform="translate(-401 -673.458)" fill="#bcbcbc" opacity="0.1" style="isolation: isolate"/>
      <g id="Groupe_67" data-name="Groupe 67" transform="translate(2.326)">
        <path id="Tracé_406" data-name="Tracé 406" d="M807.324,832.565s-7.528-.45-6.649,4.791a1.274,1.274,0,0,0,.67,1.347s.014-.393.773-.257a3.5,3.5,0,0,0,.818.039,1.705,1.705,0,0,0,1-.411h0s2.118-.867,2.942-4.3c0,0,.61-.751.594-.944l-1.272.541a2.246,2.246,0,0,1,.091,1.667s-.04-1.634-.285-1.6c-.049,0-.66.317-.66.317a3.7,3.7,0,0,1,.182,2.739s.214-1.954-.416-2.625l-.9.519a3.9,3.9,0,0,1,.281,2.975s.153-2.051-.47-2.849l-.812.627a3.812,3.812,0,0,1,.321,2.725s-.065-2.387-.5-2.568a4.879,4.879,0,0,0-.816.877s.561,1.18.212,1.791c0,0-.214-1.59-.4-1.6a5.271,5.271,0,0,0-.781,1.769,3.805,3.805,0,0,1,.608-1.876,2.127,2.127,0,0,0-1.082.556s.109-.745,1.256-.81a5.39,5.39,0,0,1,.741-.849,4.678,4.678,0,0,0-1.833.21,2.086,2.086,0,0,1,2.042-.393l.793-.649a6.885,6.885,0,0,0-2.14.022,2.621,2.621,0,0,1,2.356-.169l.872-.517a7.884,7.884,0,0,0-2.042-.175,3.156,3.156,0,0,1,2.3.035l.624-.277s-.939-.183-1.212-.212-.289-.1-.289-.1a3.265,3.265,0,0,1,1.761.2A7.8,7.8,0,0,0,807.324,832.565Z" transform="translate(-759.411 -813.021)" fill="#ffc000"/>
        <path id="Tracé_407" data-name="Tracé 407" d="M1017.366,1075.133s-7.528-.45-6.649,4.791a1.274,1.274,0,0,0,.67,1.347s.014-.393.775-.258a3.513,3.513,0,0,0,.818.039,1.7,1.7,0,0,0,.99-.409h0s2.12-.869,2.944-4.306c0,0,.608-.749.585-.942l-1.272.539a2.253,2.253,0,0,1,.093,1.667s-.042-1.634-.285-1.6c-.05,0-.662.317-.662.317a3.7,3.7,0,0,1,.184,2.739s.214-1.954-.418-2.625l-.885.513a3.9,3.9,0,0,1,.281,2.975s.153-2.051-.469-2.849l-.81.629a3.817,3.817,0,0,1,.321,2.723s-.065-2.387-.5-2.568a4.949,4.949,0,0,0-.818.877s.563,1.18.214,1.791c0,0-.214-1.591-.4-1.6a5.274,5.274,0,0,0-.781,1.769,3.82,3.82,0,0,1,.61-1.876,2.138,2.138,0,0,0-1.084.557s.111-.745,1.258-.81a4.926,4.926,0,0,1,.741-.849,4.68,4.68,0,0,0-1.833.21,2.069,2.069,0,0,1,2.041-.383l.792-.649a6.884,6.884,0,0,0-2.14.022,2.621,2.621,0,0,1,2.356-.169l.872-.517a8,8,0,0,0-2.045-.175,3.162,3.162,0,0,1,2.3.035l.624-.277s-.939-.183-1.215-.212-.289-.1-.289-.1a3.272,3.272,0,0,1,1.763.2A8.035,8.035,0,0,0,1017.366,1075.133Z" transform="translate(-946.578 -1029.374)" fill="#ffc000" opacity="0.1" style="isolation: isolate"/>
        <path id="Tracé_408" data-name="Tracé 408" d="M610.352,971.168s1.733-7.292-3.624-7.318a1.293,1.293,0,0,0-1.45.425s.382.081.123.8a3.474,3.474,0,0,0-.178.786,1.679,1.679,0,0,0,.236,1.048h0s.5,2.222,3.764,3.614c0,0,.642.723.836.731l-.317-1.335a2.293,2.293,0,0,1-1.672-.2s1.63.238,1.633,0c0-.049-.2-.7-.2-.7a3.788,3.788,0,0,1-2.752-.289s1.9.543,2.678.041l-.357-.967a3.982,3.982,0,0,1-3-.232s2.011.5,2.91.028l-.485-.9a3.9,3.9,0,0,1-2.76-.151s2.377.342,2.635-.047a4.889,4.889,0,0,0-.731-.95s-1.26.35-1.815-.1c0,0,1.615.061,1.652-.108a5.342,5.342,0,0,0-1.631-1.068,3.892,3.892,0,0,1,1.761.916,2.11,2.11,0,0,0-.368-1.154s.721.236.594,1.376a4.9,4.9,0,0,1,.715.869,4.589,4.589,0,0,0,.1-1.828,2.031,2.031,0,0,1,.034,2.062l.507.895a6.479,6.479,0,0,0,.343-2.1,2.559,2.559,0,0,1-.234,2.332l.367.942a7.826,7.826,0,0,0,.521-1.966,3.087,3.087,0,0,1-.428,2.243l.17.657s.341-.887.416-1.15.153-.265.153-.265a3.2,3.2,0,0,1-.493,1.691A7.748,7.748,0,0,0,610.352,971.168Z" transform="translate(-585.3 -930.062)" fill="#ffc000" opacity="0.1" style="isolation: isolate"/>
        <path id="Tracé_409" data-name="Tracé 409" d="M430.921,1039.561s-6.046-4.489-8.208.374a1.273,1.273,0,0,0-.186,1.49s.226-.316.792.208a3.476,3.476,0,0,0,.662.48,1.711,1.711,0,0,0,1.064.2h0s2.251.431,4.842-1.99c0,0,.925-.295,1.012-.468l-1.365-.238a2.267,2.267,0,0,1-.846,1.443s.87-1.388.644-1.488c-.046-.022-.727-.1-.727-.1a3.722,3.722,0,0,1-1.363,2.389s1.262-1.516,1.105-2.42l-1.036-.055a3.909,3.909,0,0,1-1.413,2.64s1.262-1.63,1.189-2.636l-1.026.082a3.82,3.82,0,0,1-1.24,2.448s1.266-2.029,1.006-2.414a5.011,5.011,0,0,0-1.169.285s-.18,1.286-.814,1.612c0,0,.7-1.445.561-1.545a5.33,5.33,0,0,0-1.636,1.056,3.865,3.865,0,0,1,1.549-1.235,2.149,2.149,0,0,0-1.212-.126s.5-.562,1.5.01a5.027,5.027,0,0,1,1.09-.3,4.649,4.649,0,0,0-1.648-.824,2.071,2.071,0,0,1,1.92.786l1.028-.1a6.793,6.793,0,0,0-1.8-1.148s.957-.12,2.06,1.143l1.014.045a7.9,7.9,0,0,0-1.609-1.262,3.137,3.137,0,0,1,1.9,1.284l.676.108s-.683-.665-.9-.838-.184-.246-.184-.246a3.25,3.25,0,0,1,1.365,1.125A8.059,8.059,0,0,0,430.921,1039.561Z" transform="translate(-422.356 -995.97)" fill="#ffc000" opacity="0.1" style="isolation: isolate"/>
        <path id="Tracé_410" data-name="Tracé 410" d="M615.767,653.689s-6.047-4.49-8.208.374a1.273,1.273,0,0,0-.186,1.49s.226-.317.793.208a3.515,3.515,0,0,0,.664.478,1.709,1.709,0,0,0,1.064.2h0s2.251.431,4.842-1.992c0,0,.925-.293,1.01-.468l-1.365-.234a2.257,2.257,0,0,1-.846,1.443s.872-1.388.646-1.488c-.046-.022-.727-.1-.727-.1a3.738,3.738,0,0,1-1.371,2.389s1.26-1.516,1.106-2.42l-1.036-.055a3.913,3.913,0,0,1-1.412,2.638s1.262-1.63,1.189-2.636l-1.024.083a3.828,3.828,0,0,1-1.242,2.45s1.268-2.029,1.008-2.414a5.008,5.008,0,0,0-1.169.285s-.18,1.286-.814,1.612c0,0,.7-1.445.561-1.547a5.351,5.351,0,0,0-1.636,1.058,3.845,3.845,0,0,1,1.549-1.235,2.136,2.136,0,0,0-1.215-.126s.505-.562,1.5.01a4.931,4.931,0,0,1,1.09-.3,4.676,4.676,0,0,0-1.648-.826,2.075,2.075,0,0,1,1.918.786l1.028-.1a6.8,6.8,0,0,0-1.8-1.15s.957-.118,2.062,1.144l1.014.043a7.812,7.812,0,0,0-1.611-1.26,3.138,3.138,0,0,1,1.9,1.284l.674.108s-.685-.657-.9-.826-.184-.244-.184-.244a3.246,3.246,0,0,1,1.365,1.125A8.614,8.614,0,0,0,615.767,653.689Z" transform="translate(-587.072 -651.799)" fill="#ffc000" opacity="0.1" style="isolation: isolate"/>
        <path id="Tracé_411" data-name="Tracé 411" d="M832.707,680.984s-2.417-7.1-6.976-4.31a1.3,1.3,0,0,0-1,1.123s.367-.134.529.613a3.521,3.521,0,0,0,.271.769,1.71,1.71,0,0,0,.761.765h0s1.609,1.622,5.127,1.085c0,0,.929.279,1.1.183l-.991-.965a2.284,2.284,0,0,1-1.521.712s1.512-.653,1.387-.863c-.026-.041-.543-.488-.543-.488a3.773,3.773,0,0,1-2.488,1.2s1.9-.539,2.292-1.376l-.82-.627a3.954,3.954,0,0,1-2.673,1.376s1.981-.631,2.482-1.5l-.892-.509a3.839,3.839,0,0,1-2.421,1.319s2.2-.957,2.209-1.421a4.973,4.973,0,0,0-1.125-.423s-.884.957-1.585.871c0,0,1.4-.8,1.343-.959a5.357,5.357,0,0,0-1.952-.049,3.89,3.89,0,0,1,1.981-.147,2.133,2.133,0,0,0-.929-.786s.737-.179,1.23.851a5.017,5.017,0,0,1,1.07.362,4.611,4.611,0,0,0-.885-1.606,2.05,2.05,0,0,1,1.127,1.734l.907.492a6.608,6.608,0,0,0-.826-1.966,2.575,2.575,0,0,1,1.044,2.1l.812.608a7.77,7.77,0,0,0-.606-1.946,3.1,3.1,0,0,1,.832,2.129l.493.468s-.182-.932-.257-1.2-.014-.281-.014-.281a3.224,3.224,0,0,1,.482,1.695A7.87,7.87,0,0,0,832.707,680.984Z" transform="translate(-780.907 -673.406)" fill="#ffc000" opacity="0.1" style="isolation: isolate"/>
        <path id="Tracé_412" data-name="Tracé 412" d="M696.5,724.759s-7.509-.83-6.889,4.457a1.271,1.271,0,0,0,.594,1.376s.034-.393.792-.216a3.672,3.672,0,0,0,.816.08,1.712,1.712,0,0,0,1.02-.36h0s2.161-.761,3.17-4.152c0,0,.646-.718.632-.912l-1.3.476a2.177,2.177,0,0,1,0,1.669s.042-1.634-.2-1.608c-.049,0-.675.283-.675.283a3.723,3.723,0,0,1,.044,2.753s.313-1.942-.283-2.642l-.921.472a3.881,3.881,0,0,1,.129,2.986s.258-2.041-.323-2.868l-.842.59a3.813,3.813,0,0,1,.18,2.737s.057-2.387-.365-2.589a5.136,5.136,0,0,0-.862.834s.5,1.2.123,1.8c0,0-.133-1.6-.307-1.614a5.269,5.269,0,0,0-.872,1.734,3.81,3.81,0,0,1,.705-1.844,2.139,2.139,0,0,0-1.109.5s.147-.737,1.3-.745c0,0,.624-.769.793-.81a4.694,4.694,0,0,0-1.843.118,2.067,2.067,0,0,1,2.058-.281l.834-.607a6.476,6.476,0,0,0-2.146-.106,2.6,2.6,0,0,1,2.362-.049l.9-.474a7.944,7.944,0,0,0-2.033-.277,3.133,3.133,0,0,1,2.294.151l.638-.246s-.929-.23-1.2-.273-.283-.118-.283-.118a3.281,3.281,0,0,1,1.751.283A8.137,8.137,0,0,0,696.5,724.759Z" transform="translate(-660.472 -716.832)" fill="#ffc000" opacity="0.1" style="isolation: isolate"/>
        <path id="Tracé_413" data-name="Tracé 413" d="M1299.769,1259.9s-7.5-.83-6.885,4.451a1.271,1.271,0,0,0,.594,1.376s.034-.393.793-.218a3.453,3.453,0,0,0,.816.081,1.7,1.7,0,0,0,1.02-.36h0s2.162-.761,3.16-4.15c0,0,.646-.72.632-.912l-1.3.474a2.183,2.183,0,0,1,0,1.671s.042-1.636-.2-1.608c-.05,0-.676.281-.676.281a3.724,3.724,0,0,1,.044,2.753s.313-1.941-.283-2.642l-.921.474a3.887,3.887,0,0,1,.131,2.986s.256-2.041-.325-2.87l-.842.59a3.808,3.808,0,0,1,.18,2.735s.057-2.387-.365-2.588a5.224,5.224,0,0,0-.862.834s.5,1.2.123,1.8c0,0-.133-1.6-.307-1.614a5.275,5.275,0,0,0-.872,1.734,3.809,3.809,0,0,1,.705-1.844,2.121,2.121,0,0,0-1.109.5s.146-.739,1.3-.747c0,0,.626-.768.792-.808a4.676,4.676,0,0,0-1.842.116,2.073,2.073,0,0,1,2.06-.279l.832-.607a6.67,6.67,0,0,0-2.138-.087,2.6,2.6,0,0,1,2.361-.051l.9-.472a7.949,7.949,0,0,0-2.032-.277,3.133,3.133,0,0,1,2.294.151l.638-.248s-.929-.23-1.2-.271-.283-.118-.283-.118a3.271,3.271,0,0,1,1.751.281A7.8,7.8,0,0,0,1299.769,1259.9Z" transform="translate(-1198.048 -1194.143)" fill="#ffc000" opacity="0.1" style="isolation: isolate"/>
        <path id="Tracé_414" data-name="Tracé 414" d="M1405.117,1324.27s-7.5-.828-6.885,4.451a1.275,1.275,0,0,0,.594,1.376s.034-.393.792-.216a3.524,3.524,0,0,0,.814.079,1.721,1.721,0,0,0,1.016-.358h0s2.16-.761,3.158-4.152c0,0,.648-.718.632-.912l-1.3.474a2.183,2.183,0,0,1,0,1.671s.042-1.634-.2-1.608c-.05,0-.676.281-.676.281a3.724,3.724,0,0,1,.044,2.752s.313-1.94-.283-2.64l-.921.472a3.887,3.887,0,0,1,.131,2.986s.255-2.041-.325-2.868l-.842.59a3.819,3.819,0,0,1,.182,2.737s.056-2.389-.366-2.589a5.21,5.21,0,0,0-.862.834s.5,1.2.123,1.8c0,0-.133-1.6-.307-1.614a5.244,5.244,0,0,0-.87,1.734,3.822,3.822,0,0,1,.7-1.844,2.139,2.139,0,0,0-1.109.5s.149-.739,1.3-.745c0,0,.624-.769.792-.81a4.694,4.694,0,0,0-1.843.118,2.07,2.07,0,0,1,2.06-.281l.832-.608a6.669,6.669,0,0,0-2.138-.086,2.6,2.6,0,0,1,2.362-.049l.9-.474a7.946,7.946,0,0,0-2.033-.277,3.134,3.134,0,0,1,2.294.151l.638-.246s-.929-.23-1.2-.273-.285-.118-.285-.118a3.281,3.281,0,0,1,1.751.283A7.867,7.867,0,0,0,1405.117,1324.27Z" transform="translate(-1291.923 -1251.553)" fill="#ffc000" opacity="0.1" style="isolation: isolate"/>
        <path id="Tracé_415" data-name="Tracé 415" d="M1157.773,766.939s-6.047-4.488-8.208.374a1.272,1.272,0,0,0-.186,1.49s.226-.317.792.208a3.473,3.473,0,0,0,.662.479,1.713,1.713,0,0,0,1.064.2h0s2.251.431,4.844-1.99c0,0,.923-.295,1.01-.468l-1.361-.244a2.266,2.266,0,0,1-.846,1.443s.87-1.388.644-1.488c-.046-.022-.725-.1-.725-.1a3.728,3.728,0,0,1-1.365,2.389s1.262-1.516,1.105-2.42l-1.036-.055a3.909,3.909,0,0,1-1.413,2.64s1.264-1.63,1.189-2.636l-1.026.083a3.765,3.765,0,0,1-1.24,2.448s1.268-2.029,1.007-2.414a5.016,5.016,0,0,0-1.169.285s-.178,1.286-.812,1.612c0,0,.7-1.445.559-1.545a5.33,5.33,0,0,0-1.636,1.056,3.864,3.864,0,0,1,1.549-1.235,2.149,2.149,0,0,0-1.212-.126s.505-.562,1.5.01a5,5,0,0,1,1.088-.3,4.652,4.652,0,0,0-1.649-.824,2.072,2.072,0,0,1,1.92.786l1.028-.1a6.752,6.752,0,0,0-1.8-1.148s.957-.12,2.06,1.142l1.016.045a7.932,7.932,0,0,0-1.611-1.262,3.132,3.132,0,0,1,1.9,1.284l.676.108s-.684-.665-.9-.838-.182-.23-.182-.23a3.251,3.251,0,0,1,1.363,1.125A8,8,0,0,0,1157.773,766.939Z" transform="translate(-1070.05 -752.812)" fill="#ffc000" opacity="0.1" style="isolation: isolate"/>
        <path id="Tracé_416" data-name="Tracé 416" d="M1206.7,1039.642s-2.084-7.2-6.771-4.616a1.283,1.283,0,0,0-1.056,1.075s.372-.116.5.637a3.46,3.46,0,0,0,.238.786,1.7,1.7,0,0,0,.725.8h0s1.533,1.691,5.072,1.313c0,0,.915.318,1.089.232l-.937-1.011a2.285,2.285,0,0,1-1.551.645s1.537-.59,1.418-.8c-.024-.043-.519-.513-.519-.513a3.766,3.766,0,0,1-2.54,1.087s1.927-.452,2.352-1.266l-.792-.664a3.97,3.97,0,0,1-2.732,1.258s2-.545,2.547-1.392l-.868-.549a3.869,3.869,0,0,1-2.478,1.209s2.245-.859,2.272-1.321a4.972,4.972,0,0,0-1.107-.472s-.925.916-1.629.8c0,0,1.438-.733,1.387-.9a5.39,5.39,0,0,0-1.947-.138,3.892,3.892,0,0,1,1.981-.057,2.12,2.12,0,0,0-.892-.826s.745-.147,1.189.9a4.961,4.961,0,0,1,1.052.409,4.58,4.58,0,0,0-.812-1.644,2.043,2.043,0,0,1,1.048,1.781l.884.533a6.511,6.511,0,0,0-.737-1.994,2.576,2.576,0,0,1,.949,2.145l.792.643a7.751,7.751,0,0,0-.517-1.966,3.093,3.093,0,0,1,.735,2.163l.471.492s-.138-.94-.2-1.207,0-.3,0-.3a3.2,3.2,0,0,1,.406,1.714A7.843,7.843,0,0,0,1206.7,1039.642Z" transform="translate(-1114.31 -993.11)" fill="#ffc000" opacity="0.1" style="isolation: isolate"/>
        <path id="Tracé_417" data-name="Tracé 417" d="M774.483,1201.586s-4.047-6.327-7.806-2.54a1.271,1.271,0,0,0-.709,1.327s.327-.216.664.472a3.346,3.346,0,0,0,.448.68,1.694,1.694,0,0,0,.921.566h0s1.951,1.2,5.24-.157a3.407,3.407,0,0,0,1.111-.081l-1.189-.708a2.273,2.273,0,0,1-1.308,1.052s1.312-.983,1.135-1.164c-.034-.035-.644-.346-.644-.346a3.755,3.755,0,0,1-2.13,1.752s1.722-.973,1.9-1.874l-.949-.415a3.933,3.933,0,0,1-2.265,1.966s1.763-1.079,2.051-2.046l-.991-.283s-.836,1.606-2.035,1.852c0,0,1.91-1.451,1.8-1.9a4.959,4.959,0,0,0-1.189-.144s-.628,1.138-1.337,1.221c0,0,1.173-1.1,1.076-1.25a5.376,5.376,0,0,0-1.908.413,3.876,3.876,0,0,1,1.89-.609,2.133,2.133,0,0,0-1.088-.545s.672-.348,1.387.537a4.927,4.927,0,0,1,1.127.1,4.538,4.538,0,0,0-1.246-1.351s.931.079,1.51,1.417l1,.263a6.572,6.572,0,0,0-1.272-1.706s.937.224,1.518,1.795l.935.393a7.826,7.826,0,0,0-1.056-1.746,3.1,3.1,0,0,1,1.317,1.87l.594.34s-.4-.863-.537-1.1-.085-.293-.085-.293a3.218,3.218,0,0,1,.874,1.531A8.068,8.068,0,0,0,774.483,1201.586Z" transform="translate(-728.531 -1138.826)" fill="#ffc000" opacity="0.1" style="isolation: isolate"/>
        <path id="Tracé_418" data-name="Tracé 418" d="M1019.116,901.165s-3.849-6.447-7.726-2.778a1.278,1.278,0,0,0-.749,1.305s.331-.208.648.49a3.391,3.391,0,0,0,.426.7,1.683,1.683,0,0,0,.9.59h0s1.912,1.254,5.242,0a3.4,3.4,0,0,0,1.113-.047l-1.163-.743a2.274,2.274,0,0,1-1.339,1.011s1.341-.95,1.173-1.128c-.036-.037-.634-.368-.634-.368a3.758,3.758,0,0,1-2.179,1.687s1.751-.92,1.955-1.813l-.935-.437a3.941,3.941,0,0,1-2.326,1.9s1.8-1.024,2.114-1.982l-.979-.315s-.888,1.573-2.092,1.789c0,0,1.953-1.392,1.862-1.846a4.925,4.925,0,0,0-1.189-.181s-.664,1.119-1.375,1.18c0,0,1.207-1.066,1.115-1.215a5.371,5.371,0,0,0-1.92.354,3.893,3.893,0,0,1,1.908-.551,2.135,2.135,0,0,0-1.072-.578s.684-.328,1.387.578a5.059,5.059,0,0,1,1.123.134,4.712,4.712,0,0,0-1.2-1.388s.927.106,1.464,1.463l.991.3a6.533,6.533,0,0,0-1.219-1.746s.931.254,1.462,1.84l.921.427a7.875,7.875,0,0,0-.991-1.769,3.112,3.112,0,0,1,1.26,1.909l.58.358s-.372-.875-.5-1.117-.075-.295-.075-.295a3.223,3.223,0,0,1,.826,1.557A7.7,7.7,0,0,0,1019.116,901.165Z" transform="translate(-946.563 -870.731)" fill="#ffc000"/>
        <path id="Tracé_419" data-name="Tracé 419" d="M812.716,1004.892s.2-7.491-5.046-6.435a1.3,1.3,0,0,0-1.335.71s.4,0,.285.757a3.413,3.413,0,0,0-.012.814,1.675,1.675,0,0,0,.446.983h0s.945,2.072,4.434,2.776c0,0,.775.58.969.549l-.594-1.243a2.3,2.3,0,0,1-1.676.147s1.644-.1,1.6-.336c0-.049-.341-.647-.341-.647a3.776,3.776,0,0,1-2.752.273s1.981.147,2.629-.5l-.553-.871a3.983,3.983,0,0,1-2.988.377s2.07.083,2.855-.56l-.66-.786a3.889,3.889,0,0,1-2.732.409s2.4-.144,2.576-.578a5.13,5.13,0,0,0-.911-.786s-1.161.59-1.795.271c0,0,1.585-.263,1.595-.438a5.339,5.339,0,0,0-1.815-.716,3.88,3.88,0,0,1,1.912.543,2.111,2.111,0,0,0-.594-1.056s.755.085.858,1.219a4.921,4.921,0,0,1,.88.708,4.564,4.564,0,0,0-.273-1.811,2.03,2.03,0,0,1,.456,2.011l.68.775a6.533,6.533,0,0,0-.093-2.121,2.569,2.569,0,0,1,.25,2.33l.549.847a7.779,7.779,0,0,0,.109-2.033,3.1,3.1,0,0,1,.04,2.283l.3.609s.152-.938.172-1.211.1-.291.1-.291a3.206,3.206,0,0,1-.137,1.756A7.472,7.472,0,0,0,812.716,1004.892Z" transform="translate(-764.518 -960.902)" fill="#ffc000"/>
      </g>
      <g id="Groupe_74" data-name="Groupe 74" transform="translate(24.286 62.406)">
        <g id="Groupe_73" data-name="Groupe 73" transform="translate(0)">
          <g id="Groupe_72" data-name="Groupe 72">
            <rect id="Rectangle_184" data-name="Rectangle 184" width="81.112" height="58.018" rx="4" transform="translate(1.674)" fill="green"/>
            <path id="Tracé_420" data-name="Tracé 420" d="M661.021,1250.905v3.679h76.4v-3.679Zm0,4.941v7.682h76.4v-7.682Zm0,8.943v7.682h76.4v-7.682Zm0,8.944v7.682h76.4v-7.682Zm0,8.944v7.682h76.4v-7.682Zm0,8.944v7.682h76.4v-7.682Zm0,8.943v3.679h76.4v-3.679Z" transform="translate(-656.989 -1248.565)" fill="green" fill-rule="evenodd"/>
            <rect id="Rectangle_185" data-name="Rectangle 185" width="85.041" height="3.211" transform="translate(0.287 59.624)"/>
            <g id="Groupe_68" data-name="Groupe 68" transform="translate(84.519 7.568)">
              <path id="Tracé_421" data-name="Tracé 421" d="M1401.234,1299.275h29a1.717,1.717,0,0,1,1.611,1.063l12.009,28.427a1.645,1.645,0,0,1,.136.67v36.8a1.155,1.155,0,0,1-1.156,1.147h-4.911a14.963,14.963,0,0,0-29.926,0h-6.759a1.154,1.154,0,0,1-1.156-1.147v-65.815A1.155,1.155,0,0,1,1401.234,1299.275Z" transform="translate(-1400.079 -1299.275)" fill="#ffc000" fill-rule="evenodd"/>
              <path id="Tracé_422" data-name="Tracé 422" d="M1420.128,1322.1a2.788,2.788,0,0,1,2.795-2.774h23.023a2.765,2.765,0,0,1,2.578,1.7l9.145,21.647a2.71,2.71,0,0,1-.25,2.608,2.754,2.754,0,0,1-2.327,1.237h-10.067a2.746,2.746,0,0,1-2-.834l-4.056-4.117a.646.646,0,0,0-.5-.208h-15.547a2.788,2.788,0,0,1-2.795-2.773Z" transform="translate(-1417.944 -1317.158)" fill="#dd9800" fill-rule="evenodd"/>
              <path id="Tracé_423" data-name="Tracé 423" d="M1429.752,1330.682v16.488a1.743,1.743,0,0,0,1.747,1.734h15.547a1.694,1.694,0,0,1,1.249.521l4.056,4.117a1.694,1.694,0,0,0,1.249.522h10.067a1.705,1.705,0,0,0,1.455-.773,1.678,1.678,0,0,0,.156-1.63l-9.145-21.647a1.717,1.717,0,0,0-1.611-1.063H1431.5A1.744,1.744,0,0,0,1429.752,1330.682Z" transform="translate(-1426.52 -1325.742)" fill="#fff" fill-rule="evenodd"/>
              <path id="Tracé_424" data-name="Tracé 424" d="M1774.88,1619.287h-2.831a.635.635,0,0,0-.635.63v23.333a.635.635,0,0,0,.635.631h2.831Z" transform="translate(-1730.974 -1584.703)" fill-rule="evenodd"/>
              <path id="Tracé_425" data-name="Tracé 425" d="M1784.334,1634.538h-1.979a.332.332,0,0,0-.333.33v.774a.332.332,0,0,0,.333.33h1.979v-1.433Zm0,21.3V1654.4h-1.979a.332.332,0,0,0-.333.33v.774a.332.332,0,0,0,.333.33Zm0-2.207V1652.2h-1.979a.332.332,0,0,0-.333.33v.774a.332.332,0,0,0,.333.33Zm0-2.207v-1.433h-1.979a.332.332,0,0,0-.333.33v.774a.332.332,0,0,0,.333.33Zm0-2.207v-1.433h-1.979a.332.332,0,0,0-.333.33v.773a.332.332,0,0,0,.333.33Zm0-2.207v-1.433h-1.979a.332.332,0,0,0-.333.33v.774a.332.332,0,0,0,.333.33Zm0-2.207v-1.433h-1.979a.332.332,0,0,0-.333.33v.774a.332.332,0,0,0,.333.33Zm0-2.207v-1.433h-1.979a.332.332,0,0,0-.333.33v.774a.332.332,0,0,0,.333.33Zm0-2.207v-1.433h-1.979a.332.332,0,0,0-.333.33v.774a.332.332,0,0,0,.333.33Zm0-2.207v-1.433h-1.979a.332.332,0,0,0-.333.33v.774a.332.332,0,0,0,.333.33Z" transform="translate(-1740.427 -1598.305)" fill="#4d4d4d" fill-rule="evenodd"/>
              <path id="Rectangle_186" data-name="Rectangle 186" d="M.946,0H3.965a.946.946,0,0,1,.946.946v0a.946.946,0,0,1-.946.946H.946A.946.946,0,0,1,0,.946v0A.946.946,0,0,1,.946,0Z" transform="translate(6.716 31.431)" fill="#ffc000"/>
              <path id="Tracé_426" data-name="Tracé 426" d="M1787.054,1662.69a6.114,6.114,0,0,0,0,9.007Z" transform="translate(-1743.147 -1623.415)" fill="#ffb400" fill-rule="evenodd"/>
            </g>
            <path id="Tracé_427" data-name="Tracé 427" d="M1163.86,1780.953h8.594a7.54,7.54,0,0,1,7.546,7.489h0a7.54,7.54,0,0,1-7.546,7.489h-8.594a7.54,7.54,0,0,1-7.547-7.489h0A7.54,7.54,0,0,1,1163.86,1780.953Z" transform="translate(-1098.342 -1721.329)" fill="#ffc000" fill-rule="evenodd"/>
            <path id="Tracé_428" data-name="Tracé 428" d="M1223.381,1780.953v14.978h-1.939c-.171,0-.341-.006-.509-.017V1780.97c.168-.011.338-.018.509-.018Zm4.716,0h1.939c.171,0,.341.006.509.018v14.943c-.168.011-.338.017-.509.017H1228.1Z" transform="translate(-1155.924 -1721.329)" fill="#dd9800" fill-rule="evenodd"/>
            <g id="Groupe_69" data-name="Groupe 69" transform="translate(93.489 61.931)">
              <path id="Tracé_429" data-name="Tracé 429" d="M1496.37,1802.307a13.817,13.817,0,1,1-13.923,13.817,13.87,13.87,0,0,1,13.923-13.817Zm0,5.325a8.492,8.492,0,1,0,8.557,8.492A8.525,8.525,0,0,0,1496.37,1807.632Z" transform="translate(-1482.447 -1802.307)" fill="#d6d6d6" fill-rule="evenodd"/>
              <path id="Tracé_430" data-name="Tracé 430" d="M1540.274,1851.577a8.492,8.492,0,1,1-8.557,8.492,8.525,8.525,0,0,1,8.557-8.492Zm-3.063,4.576,1.23,1.221a3.268,3.268,0,0,1,1.209-.5v-1.727a4.992,4.992,0,0,0-2.439,1Zm.347,2.1-1.23-1.22a4.909,4.909,0,0,0-1.01,2.42h1.739a3.221,3.221,0,0,1,.5-1.2Zm-.5,2.439h-1.74a4.91,4.91,0,0,0,1.01,2.42l1.23-1.221a3.216,3.216,0,0,1-.5-1.2Zm1.384,2.075-1.23,1.221a4.988,4.988,0,0,0,2.439,1v-1.726a3.264,3.264,0,0,1-1.209-.5Zm2.457.5v1.726a4.992,4.992,0,0,0,2.439-1l-1.23-1.221a3.271,3.271,0,0,1-1.209.5Zm2.092-1.374,1.23,1.221a4.914,4.914,0,0,0,1.011-2.42h-1.74a3.218,3.218,0,0,1-.5,1.2Zm.5-2.438h1.74a4.915,4.915,0,0,0-1.01-2.42l-1.23,1.221a3.221,3.221,0,0,1,.5,1.2Zm-1.384-2.076,1.23-1.221a4.994,4.994,0,0,0-2.439-1v1.727A3.276,3.276,0,0,1,1542.107,1857.373Z" transform="translate(-1526.351 -1846.252)" fill="#d6d6d6" fill-rule="evenodd"/>
              <path id="Tracé_431" data-name="Tracé 431" d="M1547.425,1859.6a7.625,7.625,0,1,1-7.684,7.625,7.654,7.654,0,0,1,7.684-7.625Zm0,1.2a6.426,6.426,0,1,0,6.476,6.426A6.451,6.451,0,0,0,1547.425,1860.8Z" transform="translate(-1533.501 -1853.409)" fill="#d6d6d6" fill-rule="evenodd" style="mix-blend-mode: multiply;isolation: isolate"/>
              <path id="Tracé_432" data-name="Tracé 432" d="M1598.372,1916.774a1.446,1.446,0,1,1-1.457,1.446A1.451,1.451,0,0,1,1598.372,1916.774Z" transform="translate(-1584.449 -1904.403)" fill="#d6d6d6" fill-rule="evenodd" style="mix-blend-mode: multiply;isolation: isolate"/>
            </g>
            <g id="Groupe_70" data-name="Groupe 70" transform="translate(28.476 61.931)">
              <path id="Tracé_433" data-name="Tracé 433" d="M899.4,1802.307a13.817,13.817,0,1,1-13.923,13.817,13.87,13.87,0,0,1,13.923-13.817Zm0,5.325a8.492,8.492,0,1,0,8.557,8.492A8.525,8.525,0,0,0,899.4,1807.632Z" transform="translate(-885.477 -1802.307)" fill="#d6d6d6" fill-rule="evenodd"/>
              <path id="Tracé_434" data-name="Tracé 434" d="M943.3,1851.577a8.492,8.492,0,1,1-8.557,8.492,8.525,8.525,0,0,1,8.557-8.492Zm-3.063,4.576,1.23,1.221a3.268,3.268,0,0,1,1.209-.5v-1.727a4.992,4.992,0,0,0-2.439,1Zm.347,2.1-1.23-1.22a4.911,4.911,0,0,0-1.01,2.42h1.739a3.221,3.221,0,0,1,.5-1.2Zm-.5,2.439h-1.739a4.909,4.909,0,0,0,1.01,2.42l1.23-1.221a3.219,3.219,0,0,1-.5-1.2Zm1.384,2.075-1.23,1.221a4.987,4.987,0,0,0,2.439,1v-1.726a3.265,3.265,0,0,1-1.209-.5Zm2.457.5v1.726a4.991,4.991,0,0,0,2.439-1l-1.23-1.221a3.272,3.272,0,0,1-1.209.5Zm2.092-1.374,1.23,1.221a4.913,4.913,0,0,0,1.011-2.42h-1.74a3.221,3.221,0,0,1-.5,1.2Zm.5-2.438h1.74a4.913,4.913,0,0,0-1.01-2.42l-1.23,1.221a3.219,3.219,0,0,1,.5,1.2Zm-1.384-2.076,1.23-1.221a4.994,4.994,0,0,0-2.439-1v1.727A3.276,3.276,0,0,1,945.137,1857.373Z" transform="translate(-929.381 -1846.252)" fill="#d6d6d6" fill-rule="evenodd"/>
              <path id="Tracé_435" data-name="Tracé 435" d="M950.454,1859.6a7.625,7.625,0,1,1-7.683,7.625,7.654,7.654,0,0,1,7.683-7.625Zm0,1.2a6.426,6.426,0,1,0,6.476,6.426A6.451,6.451,0,0,0,950.454,1860.8Z" transform="translate(-936.531 -1853.409)" fill="#d6d6d6" fill-rule="evenodd" style="mix-blend-mode: multiply;isolation: isolate"/>
              <path id="Tracé_436" data-name="Tracé 436" d="M1001.4,1916.774a1.446,1.446,0,1,1-1.457,1.446A1.451,1.451,0,0,1,1001.4,1916.774Z" transform="translate(-987.478 -1904.403)" fill="#d6d6d6" fill-rule="evenodd" style="mix-blend-mode: multiply;isolation: isolate"/>
            </g>
            <g id="Groupe_71" data-name="Groupe 71" transform="translate(0 61.931)">
              <path id="Tracé_437" data-name="Tracé 437" d="M637.923,1802.307A13.817,13.817,0,1,1,624,1816.124a13.87,13.87,0,0,1,13.923-13.817Zm0,5.325a8.492,8.492,0,1,0,8.557,8.492A8.525,8.525,0,0,0,637.923,1807.632Z" transform="translate(-624 -1802.307)" fill="#d6d6d6" fill-rule="evenodd"/>
              <path id="Tracé_438" data-name="Tracé 438" d="M681.826,1851.577a8.492,8.492,0,1,1-8.557,8.492,8.525,8.525,0,0,1,8.557-8.492Zm-3.063,4.576,1.23,1.221a3.269,3.269,0,0,1,1.209-.5v-1.727a4.993,4.993,0,0,0-2.439,1Zm.347,2.1-1.23-1.22a4.912,4.912,0,0,0-1.011,2.42h1.739a3.219,3.219,0,0,1,.5-1.2Zm-.5,2.439H676.87a4.913,4.913,0,0,0,1.01,2.42l1.23-1.221a3.222,3.222,0,0,1-.5-1.2Zm1.384,2.075-1.23,1.221a4.989,4.989,0,0,0,2.439,1v-1.726a3.264,3.264,0,0,1-1.209-.5Zm2.458.5v1.726a4.991,4.991,0,0,0,2.439-1l-1.23-1.221a3.273,3.273,0,0,1-1.209.5Zm2.092-1.374,1.23,1.221a4.91,4.91,0,0,0,1.011-2.42h-1.74a3.22,3.22,0,0,1-.5,1.2Zm.5-2.438h1.739a4.912,4.912,0,0,0-1.01-2.42l-1.23,1.221a3.22,3.22,0,0,1,.5,1.2Zm-1.384-2.076,1.23-1.221a5,5,0,0,0-2.439-1v1.727A3.277,3.277,0,0,1,683.659,1857.373Z" transform="translate(-667.903 -1846.252)" fill="#d6d6d6" fill-rule="evenodd"/>
              <path id="Tracé_439" data-name="Tracé 439" d="M688.977,1859.6a7.625,7.625,0,1,1-7.684,7.625,7.654,7.654,0,0,1,7.684-7.625Zm0,1.2a6.426,6.426,0,1,0,6.476,6.426A6.451,6.451,0,0,0,688.977,1860.8Z" transform="translate(-675.053 -1853.409)" fill="#d6d6d6" fill-rule="evenodd" style="mix-blend-mode: multiply;isolation: isolate"/>
              <path id="Tracé_440" data-name="Tracé 440" d="M739.924,1916.774a1.446,1.446,0,1,1-1.457,1.446A1.451,1.451,0,0,1,739.924,1916.774Z" transform="translate(-726.001 -1904.403)" fill="#d6d6d6" fill-rule="evenodd" style="mix-blend-mode: multiply;isolation: isolate"/>
            </g>
          </g>
        </g>
      </g>
      <path id="Tracé_441" data-name="Tracé 441" d="M2166.97,1816.159c.031,12.391,7.89,22.4,17.571,22.375" transform="translate(-1974.647 -1690.324)" fill="#ffc000"/>
      <path id="Tracé_442" data-name="Tracé 442" d="M2328.307,1835.7c-.031-12.531,8.685-22.692,19.489-22.718" transform="translate(-2118.414 -1687.493)" fill="green"/>
      <path id="Tracé_443" data-name="Tracé 443" d="M2225.265,1826.409c.029,11.771,5.049,21.283,11.222,21.268" transform="translate(-2026.593 -1699.467)" fill="green"/>
      <path id="Tracé_444" data-name="Tracé 444" d="M2328.307,1783.669c-.04-16.012,10.032-28.992,22.519-29.023" transform="translate(-2118.414 -1635.459)" fill="#ffc000"/>
      <path id="Tracé_445" data-name="Tracé 445" d="M2294.142,2013.613s2.484-.076,3.232-.6,3.821-1.161,4.007-.312,3.733,4.219.928,4.242-6.516-.434-7.263-.885S2294.142,2013.613,2294.142,2013.613Z" transform="translate(-2087.969 -1865.251)" fill="#a8a8a8"/>
      <path id="Tracé_446" data-name="Tracé 446" d="M2302.359,2027.608c-2.8.022-6.516-.434-7.263-.885-.569-.344-.8-1.578-.872-2.147l-.083,0s.157,1.988.9,2.439,4.459.908,7.263.885c.81-.006,1.089-.292,1.074-.716C2303.271,2027.444,2302.962,2027.6,2302.359,2027.608Z" transform="translate(-2087.969 -1876.217)" opacity="0.2" style="isolation: isolate"/>
      <path id="Tracé_447" data-name="Tracé 447" d="M1907.17,1421.206c-.093.819-.722,1.479-.956,2.27a3.739,3.739,0,0,0,1.086,3.4,7.6,7.6,0,0,0,5.277,2.486,2.267,2.267,0,0,0,.872-.094,1.868,1.868,0,0,0,.664-.45,4.194,4.194,0,0,0,1.095-2.356,12.439,12.439,0,0,0,.03-2.633,1.468,1.468,0,0,0-.1-.531,1.361,1.361,0,0,0-.344-.42,8.018,8.018,0,0,0-1.478-1.066,1.694,1.694,0,0,1-.619-.47,1.516,1.516,0,0,1-.192-.563l-.163-.826a1.609,1.609,0,0,0-.24-.669,1.668,1.668,0,0,0-1.324-.458l-1.774-.069a8.6,8.6,0,0,0-1.817-.071c-.5.1-.336.56-.245.979A7.031,7.031,0,0,1,1907.17,1421.206Z" transform="translate(-1742.198 -1335.769)" fill="#a0616a"/>
      <path id="Tracé_448" data-name="Tracé 448" d="M1907.17,1421.206c-.093.819-.722,1.479-.956,2.27a3.739,3.739,0,0,0,1.086,3.4,7.6,7.6,0,0,0,5.277,2.486,2.267,2.267,0,0,0,.872-.094,1.868,1.868,0,0,0,.664-.45,4.194,4.194,0,0,0,1.095-2.356,12.439,12.439,0,0,0,.03-2.633,1.468,1.468,0,0,0-.1-.531,1.361,1.361,0,0,0-.344-.42,8.018,8.018,0,0,0-1.478-1.066,1.694,1.694,0,0,1-.619-.47,1.516,1.516,0,0,1-.192-.563l-.163-.826a1.609,1.609,0,0,0-.24-.669,1.668,1.668,0,0,0-1.324-.458l-1.774-.069a8.6,8.6,0,0,0-1.817-.071c-.5.1-.336.56-.245.979A7.031,7.031,0,0,1,1907.17,1421.206Z" transform="translate(-1742.198 -1335.769)" fill="#efb7b9"/>
      <path id="Tracé_449" data-name="Tracé 449" d="M1943.918,1750.029q-.376,4.1-.754,8.2c-.2,2.151-.4,4.311-.783,6.434-.133.732-.289,1.46-.475,2.181a46.123,46.123,0,0,0-1.5,6.016c-.008.059-.014.12-.021.18a5.19,5.19,0,0,1-.258,1.335c-.12.313-.306.6-.437.909a5.761,5.761,0,0,0-.326,1.976,8.626,8.626,0,0,0-2.956-1,2.27,2.27,0,0,1-1.4-.5,1.974,1.974,0,0,1-.273-1.59q.3-2.569.6-5.135a13.294,13.294,0,0,1,.377-2.181c.069-.238.151-.472.235-.706.115-.323.232-.645.32-.976a11.7,11.7,0,0,0,.264-1.626c.2-1.723.45-3.442.666-5.163l.011-.091a52.414,52.414,0,0,0,.5-7.859c-.01-.389-.027-.778-.052-1.169-.035-.565-.087-.865.385-1.219a8.9,8.9,0,0,1,1.8-.919c.321-.138,3.857-1.384,3.939-1.111a6.807,6.807,0,0,1,.259,1.791A19.82,19.82,0,0,1,1943.918,1750.029Z" transform="translate(-1767.665 -1627.724)" fill="#202020"/>
      <path id="Tracé_450" data-name="Tracé 450" d="M1952.606,1866.307c-.133.731-.289,1.459-.475,2.181a46.16,46.16,0,0,0-1.5,6.015c-.008.059-.014.12-.02.18-1.576-2.234-2.9-4.637-4.442-6.895.115-.323.232-.645.32-.976a11.7,11.7,0,0,0,.264-1.626c.2-1.723.45-3.442.666-5.163l.011-.091a5.33,5.33,0,0,0,.385,1.059c1.033,2.083,3.487,3.135,4.688,5.129Q1952.555,1866.214,1952.606,1866.307Z" transform="translate(-1777.89 -1729.368)" opacity="0.1" style="isolation: isolate"/>
      <path id="Tracé_451" data-name="Tracé 451" d="M1887.821,1665.777a38.527,38.527,0,0,0,.591,4.976l.555,3.4a17.321,17.321,0,0,0,1.508,5.433,25.14,25.14,0,0,0,2.489,3.433c2.13,2.753,3.729,5.872,5.749,8.706.587.824,1.426,1.715,2.427,1.543a3.948,3.948,0,0,0,1.652-1.075,10.263,10.263,0,0,0,1.823-1.474,1.493,1.493,0,0,0-.076-2.088,3.419,3.419,0,0,0-.743-.3,4.017,4.017,0,0,1-2.073-2.342,22.268,22.268,0,0,0-1.219-2.965c-1.2-1.993-3.655-3.046-4.688-5.13a9.193,9.193,0,0,1-.678-3.812l-.113-3.313a2.4,2.4,0,0,1,.126-1.071c.4-.882,1.589-.964,2.555-1.076a8.783,8.783,0,0,0,3.131-.98,3.257,3.257,0,0,0,1.4-1.232,3.943,3.943,0,0,0,.341-1.67l.335-6.005a3.726,3.726,0,0,0-.129-1.535c-.461-1.216-2.008-1.614-3.316-1.556-2.434.108-4.681,1.147-6.976,1.849a17.84,17.84,0,0,1-1.729.447,14.078,14.078,0,0,0-1.63.224c-.874.292-.851,2.188-.975,2.975A24.864,24.864,0,0,0,1887.821,1665.777Z" transform="translate(-1725.893 -1547.153)" fill="#202020"/>
      <path id="Tracé_452" data-name="Tracé 452" d="M2003.164,1974.134a1.525,1.525,0,0,1,.341.827,28.043,28.043,0,0,1,.482,5,.809.809,0,0,0,.091.453.571.571,0,0,0,.237.189,1.832,1.832,0,0,0,1.857-.565,4.747,4.747,0,0,0,1.823-3.214,7.427,7.427,0,0,1,.034-.975,4.053,4.053,0,0,1,.611-1.306,10.968,10.968,0,0,0,1.009-2.244c.094-.294.157-.665-.075-.87a.85.85,0,0,0-.276-.142l-2.8-1.032c-.243-.09-.847,1.451-.943,1.619a1.281,1.281,0,0,1-.938.741c-.48.1-1.052-.042-1.5.2C2002.355,1973.213,2002.734,1973.7,2003.164,1974.134Z" transform="translate(-1828.248 -1827.764)" fill="#494949"/>
      <path id="Tracé_453" data-name="Tracé 453" d="M1941.323,2011.016a.849.849,0,0,0-.213-.268.965.965,0,0,0-.43-.145,1.689,1.689,0,0,0-1.534.244c-.345.369-.286.97-.574,1.384-.092.131-.215.239-.294.378a1.416,1.416,0,0,0-.129.678c-.015.642-.03,1.284.015,1.925a2.676,2.676,0,0,0,.467,1.52,3.156,3.156,0,0,0,2.39.815l.7.036a1.389,1.389,0,0,0,.577-.052.945.945,0,0,0,.5-.543c.366-.9-.214-1.877-.571-2.784C1941.816,2013.16,1941.889,2012,1941.323,2011.016Z" transform="translate(-1770.731 -1863.695)" fill="#494949"/>
      <path id="Tracé_454" data-name="Tracé 454" d="M1894.149,1358.738a.573.573,0,0,1,.04-.269c.1-.181.372-.132.575-.081a13.486,13.486,0,0,0,2.517.067,1.989,1.989,0,0,1,1.957,1.283,6.116,6.116,0,0,0,1.552-1.583,1.893,1.893,0,0,0,.4-1.159,2.264,2.264,0,0,0-1.022-1.428l-1.4-1.133a2.111,2.111,0,0,0-.626-.4,3.149,3.149,0,0,0-1.017-.057c-1.018,0-2.1-.459-3.009,0a3.241,3.241,0,0,0-.937.846l-1.248,1.466a.781.781,0,0,0-.2.336,1.48,1.48,0,0,0,.089.535c.059.328-.083.677.026.992.181.522.821.6,1.211.9.146.112.374.49.548.485C1893.924,1359.535,1894.141,1358.98,1894.149,1358.738Z" transform="translate(-1729.382 -1277.917)" fill="#3f3d56"/>
      <ellipse id="Ellipse_50" data-name="Ellipse 50" cx="3.997" cy="3.967" rx="3.997" ry="3.967" transform="translate(162.888 77.211)" fill="#efb7b9"/>
      <path id="Tracé_455" data-name="Tracé 455" d="M1863.29,1447.925a1.936,1.936,0,0,0-1.885-1.287.579.579,0,0,1-.348-.044.482.482,0,0,1-.143-.177,6.917,6.917,0,0,1-.583-1.367c-.064-.21-.151-.457-.365-.512a.494.494,0,0,0-.465.2,4.067,4.067,0,0,1-.333.415c-.5.446-1.394.04-1.928.449-.087.067-.159.152-.25.213a1.187,1.187,0,0,1-.294.125,28.273,28.273,0,0,0-3.025,1.176,28.127,28.127,0,0,0,1.551,6.265c.4.945.845,1.87,1.162,2.844a21.9,21.9,0,0,1,.741,6.733,13.928,13.928,0,0,1-.508,4.605,4.315,4.315,0,0,0-.286,1.011,1.045,1.045,0,0,0,.358.943,1.23,1.23,0,0,0,.552.192,7.209,7.209,0,0,0,2.624-.3c2.313-.532,4.673-.836,7.028-1.139l3.947-.509a2.312,2.312,0,0,0,.816-.209,1.545,1.545,0,0,0,.342-2.155,11.764,11.764,0,0,1-.7-.946.874.874,0,0,1,.115-1.076c.633-.491.444-1.4.474-2.2q.127-3.339-.034-6.681a13.183,13.183,0,0,1-.022-1.386,12.155,12.155,0,0,1,.435-2.312l1.2-4.685a2.461,2.461,0,0,0-1.481-.944c-.568-.141-1.16-.183-1.72-.355-1.146-.352-2.167-1.247-3.364-1.164a.614.614,0,0,0-.26.063c-.27.152-.228.538-.245.845a2.334,2.334,0,0,1-1.1,1.647,19.716,19.716,0,0,0-1.7,1.144A.755.755,0,0,0,1863.29,1447.925Z" transform="translate(-1695.469 -1358.066)" fill="green"/>
      <path id="Tracé_456" data-name="Tracé 456" d="M2018.247,1515.185l1.04,1.178c.223.253.447.506.65.775a9.024,9.024,0,0,1,1.19,2.225,3.86,3.86,0,0,1,.334,1.84,4.445,4.445,0,0,1-.26.936,11.585,11.585,0,0,1-.706,1.688,9.615,9.615,0,0,1-.795,1.182,27.7,27.7,0,0,1-2.635,2.991,3.4,3.4,0,0,0-.659,1.385,5.792,5.792,0,0,1-1.621,2.191,4.53,4.53,0,0,1-.7.594,2.278,2.278,0,0,1-1.267.358,1.4,1.4,0,0,1-.57-.117,1.462,1.462,0,0,1-.725-1.219,2.578,2.578,0,0,1,.219-1.3c.6-1.311,2.128-1.879,3.211-2.836a10.373,10.373,0,0,0,1.6-1.963,6.772,6.772,0,0,0,.809-1.407c.242-.64.148-1.4.359-2.049.089-.275.248-.523.344-.8a.922.922,0,0,0-.048-.833,1.217,1.217,0,0,0-.47-.342c-.692-.348-1.466-.8-1.6-1.555a1.654,1.654,0,0,1,.31-1.188,4.959,4.959,0,0,1,.872-.907C2017.436,1515.749,2017.944,1515.45,2018.247,1515.185Z" transform="translate(-1836.123 -1421.877)" fill="#efb7b9"/>
      <path id="Tracé_457" data-name="Tracé 457" d="M1892.224,1347.188a.573.573,0,0,1,.039-.269c.1-.181.372-.132.575-.081a13.5,13.5,0,0,0,2.518.067,1.989,1.989,0,0,1,1.957,1.283,6.109,6.109,0,0,0,1.552-1.583,1.891,1.891,0,0,0,.4-1.159,2.262,2.262,0,0,0-1.021-1.428l-1.4-1.133a2.109,2.109,0,0,0-.626-.4,3.147,3.147,0,0,0-1.016-.057c-1.018,0-2.1-.459-3.009,0a3.238,3.238,0,0,0-.937.846l-1.248,1.466a.78.78,0,0,0-.2.336,1.485,1.485,0,0,0,.089.535c.059.328-.083.677.026.992.182.522.821.6,1.211.9.146.111.374.49.547.485C1892,1347.984,1892.216,1347.43,1892.224,1347.188Z" transform="translate(-1727.667 -1267.615)" fill="#3f3d56"/>
      <path id="Tracé_458" data-name="Tracé 458" d="M1798.213,1500.983a4.943,4.943,0,0,1,.708,1.038,1.654,1.654,0,0,1,.107,1.222c-.257.726-1.1,1.041-1.836,1.271a1.227,1.227,0,0,0-.521.26.924.924,0,0,0-.186.814c.049.285.164.556.206.842.1.677-.12,1.409.012,2.08a6.768,6.768,0,0,0,.563,1.52,10.333,10.333,0,0,0,1.249,2.2c.908,1.122,2.324,1.934,2.693,3.325a2.574,2.574,0,0,1,0,1.321,1.467,1.467,0,0,1-.918,1.083,1.4,1.4,0,0,1-.582.022,2.273,2.273,0,0,1-1.189-.561,4.481,4.481,0,0,1-.587-.7,5.769,5.769,0,0,1-1.232-2.427,3.39,3.39,0,0,0-.418-1.475,27.568,27.568,0,0,1-2.1-3.383,9.616,9.616,0,0,1-.586-1.3,11.6,11.6,0,0,1-.415-1.781,4.471,4.471,0,0,1-.1-.965,3.87,3.87,0,0,1,.637-1.76,9.054,9.054,0,0,1,1.546-2c.246-.232.508-.445.771-.657l1.222-.991C1797.507,1500.294,1797.959,1500.672,1798.213,1500.983Z" transform="translate(-1641.474 -1408.317)" fill="#efb7b9"/>
      <path id="Tracé_459" data-name="Tracé 459" d="M1816.6,1477.083a1.651,1.651,0,0,0-.425.392c-.149.223-.179.505-.307.741-.273.5-.913.684-1.312,1.1a.408.408,0,0,0-.126.215.476.476,0,0,0,.107.309l1.924,3c.64.056,1.255-.342,1.9-.29a1.923,1.923,0,0,0,.714.032,2.056,2.056,0,0,0,.458-.278c.382-.24.892-.268,1.212-.584a1.638,1.638,0,0,0,.343-1.21,4.833,4.833,0,0,0-.114-1.113,13.614,13.614,0,0,0-1.728-3.056c-.271-.5-.418-.788-.992-.447S1817.141,1476.689,1816.6,1477.083Z" transform="translate(-1660.5 -1386.699)" fill="green"/>
      <path id="Tracé_460" data-name="Tracé 460" d="M2017.843,1462.727a4.485,4.485,0,0,1,.968.841c.293.375.459.834.741,1.218a13.668,13.668,0,0,0,.954,1,7.741,7.741,0,0,1,1.1,1.778,26.686,26.686,0,0,1-2.489,2.791.8.8,0,0,1-.378.246.611.611,0,0,1-.534-.216c-.138-.144-.237-.322-.369-.472a1.909,1.909,0,0,0-1.176-.565,8.15,8.15,0,0,0-1.333-.018.529.529,0,0,1-.285-.047.478.478,0,0,1-.156-.177,4.335,4.335,0,0,1-.169-2.988l.422-2.3a5.141,5.141,0,0,1,.351-1.28c.16-.339.517-.913.956-.812S2017.471,1462.461,2017.843,1462.727Z" transform="translate(-1838.815 -1374.185)" fill="green"/>
    </g>
  </g>
</svg>
