<svg xmlns="http://www.w3.org/2000/svg" xmlns:xlink="http://www.w3.org/1999/xlink" width="170.723" height="133.584" viewBox="0 0 170.723 133.584">
  <defs>
    <linearGradient id="linear-gradient" x1="-1.953" y1="3.879" x2="-0.953" y2="3.879" gradientUnits="objectBoundingBox">
      <stop offset="0" stop-color="gray" stop-opacity="0.251"/>
      <stop offset="0.54" stop-color="gray" stop-opacity="0.122"/>
      <stop offset="1" stop-color="gray" stop-opacity="0.102"/>
    </linearGradient>
  </defs>
  <g id="Groupe_62" data-name="Groupe 62" transform="translate(-686.464 -694.297)">
    <ellipse id="Ellipse_42" data-name="Ellipse 42" cx="29.78" cy="5.641" rx="29.78" ry="5.641" transform="translate(716.571 814.01)" fill="#ffc000" opacity="0.1" style="isolation: isolate"/>
    <path id="Tracé_275" data-name="Tracé 275" d="M785.656,713.135c-10.945-.379-21.369-3.913-31.322-7.779s-19.813-8.148-30.5-10.2c-6.871-1.317-14.729-1.505-20.264,2.175-5.329,3.551-7.05,9.665-7.975,15.342-.7,4.272-1.106,8.768.8,12.768,1.326,2.777,3.676,5.11,5.3,7.771,5.66,9.254,1.659,20.665-4.473,29.7-2.875,4.238-6.215,8.286-8.435,12.793s-3.247,9.688-1.3,14.3c1.924,4.566,6.512,7.989,11.482,10.4,10.094,4.9,21.984,6.3,33.587,7.091,25.676,1.755,51.487,1,77.23.233,9.527-.281,19.1-.567,28.468-2.039,5.205-.818,10.578-2.117,14.357-5.253a12.022,12.022,0,0,0,2.77-15.705c-5.391-8.371-20.293-10.449-24.066-19.431-2.073-4.945.056-10.451,3.071-15.036,6.467-9.837,17.3-18.467,17.875-29.709.392-7.722-4.818-15.455-12.874-19.109-8.444-3.83-20.154-3.348-26.381,2.992C806.593,710.96,795.32,713.471,785.656,713.135Z" fill="#bcbcbc" opacity="0.1" style="isolation: isolate"/>
    <path id="Tracé_276" data-name="Tracé 276" d="M1144.141,915.862l-5.18-3.492h0l2.613-3.889-13.681-1.091-4.916,3.8-6.154-3.45-5.132.617-.061-1.353a38.194,38.194,0,0,0-.424-4.211c.022-.423.037-.908.036-1.436,0-2.224-.3-5.171-1.623-7.136l.3-2.736-2.469-2.917a18.651,18.651,0,0,1,1.353-2.276c.084-.122.169-.24.26-.355a6.14,6.14,0,0,0,5.733-6.088,3.909,3.909,0,0,0-.017-.445,1.594,1.594,0,0,0-.019-.179c.313.169.629.338.945.507.059.085.127.169.2.269h0l.015.019.095.117.03.036c.034.041.069.079.1.12l.024.027c.09.1.184.2.286.3a.3.3,0,0,1,.034.032l.127.118.036.032c.108.1.223.189.338.277l.037.027.145.1.047.03c.056.034.113.069.169.1l.02.012c.066.036.134.069.2.1l.034.014.169.071.052.019c.059.02.117.039.177.056l.037.01a.169.169,0,0,0,.225-.1h.008a.3.3,0,0,0,.216.169h.389a1.955,1.955,0,0,0,.2,0h.043a2.115,2.115,0,0,0,.247-.028,2.791,2.791,0,0,0,1.087-.376.937.937,0,0,0,.221-.2.762.762,0,0,0-.035-.913h0c-.135-.309-1.008-.527-1.008-.527s-2.761-1.111-2.761-2-.69-5.475-7.815-6.524c0,0-4.635-.251-5.938,2.14l-.028.279c-.383.231-.7.7-1.078.831a1.81,1.81,0,0,0-.468.166v-.032h0a.43.43,0,0,0-.105.131,1.293,1.293,0,0,0-.143.5,1.831,1.831,0,0,1-.226.6,1.346,1.346,0,0,1-.1.153h0l-.029.045a1.3,1.3,0,0,0,.587-.091,2.732,2.732,0,0,1-.173.665.576.576,0,0,0,.531-.306v-.013l.022-.03a1.368,1.368,0,0,0,.107-.241l-.019.02c.035-.108.066-.218.1-.324a.5.5,0,0,1,.084-.166.428.428,0,0,1,.357-.115l-.071,1.442h-.056a2,2,0,0,1-.149.308c-.24.389-.675.654-.836,1.081a1.593,1.593,0,0,0-.078.639c0,.127.015.255.025.382v-.01a1.429,1.429,0,0,1-.152.932c-.125.186-.326.326-.4.538a.526.526,0,0,0-.025.183,2.051,2.051,0,0,0,.115.543.024.024,0,0,0,0-.01.826.826,0,0,1,.029.4c-.076.338-.486.621-.466.944a.362.362,0,0,0,.019.125.685.685,0,0,0,.382.338,1.484,1.484,0,0,0,.858.189,1.128,1.128,0,0,0,.321-.11c-.118.272-.24.541-.363.8-.019.041-.039.081-.059.122,0,0-1.043-.7-1.636.725a3.165,3.165,0,0,0-.366.954,2.294,2.294,0,0,1-.125.392,2.524,2.524,0,0,1-1.128,1.015c-1.209.555-6.092,6.654-6.178,8.234a9.221,9.221,0,0,1-.311,1.823,10.864,10.864,0,0,0-.29,4.311,8.257,8.257,0,0,0,.3,1.375,30.834,30.834,0,0,1,.865,4.522l.561,5.111a14.569,14.569,0,0,0,.091,2.112c-.573.654-2.871,3.382-1.993,4.125a3.236,3.236,0,0,0,2.521.369,21.509,21.509,0,0,0-1.555,5.447c-.169,2.447.289,5.689,1.013,6.933s3.139,4.438,3.139,4.438-.113,4.38.75,5.971a17.427,17.427,0,0,1,1.211,4.892s.805,2.787.4,3.812.748,1.877-.461,2.559-2.756,16.042-2.756,16.042-.623,10.067,0,10.579a.629.629,0,0,0,.106.063v3.352s-.434.713,1.332.857c1.21.1,4.639.316,6.673.443l1.576.1s3.732.743,5.382,0,4.572-.726,4.138-2.689a5.6,5.6,0,0,0-.231-.786c-.477-1.218-1.286-1.357-2.777-1.7-.087-.019-.17-.036-.246-.049-1.571-.273-2.087.458-2.967-.494-.765-.823-3.2-1.744-4.031-2.036.02-.061.046-.121.066-.183a1.241,1.241,0,0,1-.629-.307l2.248.143,1.339.083s3.173.633,4.581,0,3.885-.616,3.515-2.284a4.778,4.778,0,0,0-.2-.668c-.406-1.035-1.094-1.149-2.362-1.435-.073-.015-.141-.031-.209-.042-1.335-.233-1.773.388-2.521-.419a11.6,11.6,0,0,0-3.393-1.724c0-.377-.509-.913-.83-1.451-.377-.628.319-2.825.319-2.825l.4-9.116a1.76,1.76,0,0,1,.475-.136s1.8-1.714,1.39-3.539a11.7,11.7,0,0,1-.129-1.668,8.574,8.574,0,0,0,1.634-1.856c.377-.813,0-4.751,0-4.751V929.863l3.01.3,2.716.279.827.084,2.716.274,6.242.631,5.625-1.065,2.433-.46,5.011-.947V916.718Zm-41.2-40.571-.348-.037C1102.711,875.259,1102.833,875.281,1102.944,875.291Z" transform="translate(-367.182 -160.393)" fill="url(#linear-gradient)"/>
    <path id="Tracé_277" data-name="Tracé 277" d="M1401.37,1378.1c-1.691,2.42-7.771,1.138-7.771,1.138l-4.711-4.409-.634-.6,1.064-2.259s.338.093.918.259C1393.282,1373.112,1402.8,1376.061,1401.37,1378.1Z" transform="translate(-636.552 -614.677)" fill="#efb7b9"/>
    <path id="Tracé_278" data-name="Tracé 278" d="M1390.233,1372.228a9.916,9.916,0,0,1-1.344,2.6l-.634-.6,1.064-2.259S1389.659,1372.062,1390.233,1372.228Z" transform="translate(-636.552 -614.677)" opacity="0.1" style="isolation: isolate"/>
    <path id="Tracé_279" data-name="Tracé 279" d="M1195.348,1099.983s-4.343,1.926-4.13,6.656a77.954,77.954,0,0,0,.994,9.091s-.888,7.118,2.809,8.953,7.118,3.343,7.118,3.343,5.783.622,6.5.88,2.964-3.673,2.55-4.285-5.723-1.9-6.4-2.917a5.647,5.647,0,0,0-2.241-1.652s-1.615-.977-1.725-1.86a4.015,4.015,0,0,1,.425-1.928c.108-.387.382-4.126.382-4.126S1203.456,1098.828,1195.348,1099.983Z" transform="translate(-457.825 -367.909)" fill="#dce6f2"/>
    <path id="Tracé_280" data-name="Tracé 280" d="M1213.663,1267.985s-5.958,1-5.381,3.083A12.63,12.63,0,0,1,1213.663,1267.985Z" transform="translate(-473.274 -520.359)" opacity="0.1" style="isolation: isolate"/>
    <path id="Tracé_281" data-name="Tracé 281" d="M1240.524,1277.063s-3.276,2.674-2.635,2.811S1240.524,1277.063,1240.524,1277.063Z" transform="translate(-500.089 -528.593)" opacity="0.1" style="isolation: isolate"/>
    <path id="Tracé_282" data-name="Tracé 282" d="M1278.969,1287.086s-.878,1.8-.338,1.676S1278.969,1287.086,1278.969,1287.086Z" transform="translate(-536.96 -537.684)" opacity="0.1" style="isolation: isolate"/>
    <path id="Tracé_283" data-name="Tracé 283" d="M1213.856,1127.5l-.362-.1a1.033,1.033,0,0,0,.047-.739c-.414-.612-5.719-1.894-6.394-2.917a5.616,5.616,0,0,0-2.241-1.652s-1.615-.977-1.725-1.86a4.016,4.016,0,0,1,.424-1.928c.108-.387.382-4.128.382-4.128s1.818-13.307-6.291-12.152c0,0-4.343,1.928-4.131,6.658a77.8,77.8,0,0,0,1,9.091s-.888,7.118,2.809,8.953,7.118,3.343,7.118,3.343,5.782.621,6.5.879c.272.1.764-.408,1.246-1.1l.274.255,4.711,4.407s6.08,1.284,7.771-1.136C1226.422,1131.331,1216.908,1128.382,1213.856,1127.5Z" transform="translate(-459.955 -369.757)" fill="green"/>
    <path id="Tracé_284" data-name="Tracé 284" d="M1198.9,900.208a1.439,1.439,0,0,0-.468.181c-.169.14-.169.38-.211.59a1.942,1.942,0,0,1-.338.808,1.216,1.216,0,0,0,.563-.093,2.9,2.9,0,0,1-.169.677.548.548,0,0,0,.507-.309,3.253,3.253,0,0,0,.211-.594.49.49,0,0,1,.081-.169c.156-.184.445-.1.685-.078a1.125,1.125,0,0,0,1.028-.494c.255-.387.271-1.378-.338-1.483C1199.811,899.14,1199.415,900.016,1198.9,900.208Z" transform="translate(-463.873 -185.888)" fill="#303030"/>
    <g id="Groupe_60" data-name="Groupe 60" transform="translate(734.03 714.457)" opacity="0.1">
      <path id="Tracé_285" data-name="Tracé 285" d="M1201,911.424c.015-.083.025-.169.044-.252h0a.993.993,0,0,0-.211.59,1.858,1.858,0,0,1-.1.357A1.941,1.941,0,0,0,1201,911.424Z" transform="translate(-1200.494 -911.172)"/>
      <path id="Tracé_286" data-name="Tracé 286" d="M1198.712,922.308a2.816,2.816,0,0,0,.169-.676,1.211,1.211,0,0,1-.536.093,1.972,1.972,0,0,1-.194.338,1.2,1.2,0,0,0,.561-.091,2.816,2.816,0,0,1-.169.676.55.55,0,0,0,.507-.309,1.258,1.258,0,0,0,.1-.242A.507.507,0,0,1,1198.712,922.308Z" transform="translate(-1198.151 -920.66)"/>
      <path id="Tracé_287" data-name="Tracé 287" d="M1212.276,912.5c-.24-.024-.531-.107-.687.078a.522.522,0,0,0-.081.169c-.015.044-.029.09-.041.135.161-.127.421-.059.639-.037a1.13,1.13,0,0,0,1.028-.494.935.935,0,0,0,.113-.266A1.126,1.126,0,0,1,1212.276,912.5Z" transform="translate(-1210.229 -911.997)"/>
    </g>
    <path id="Tracé_288" data-name="Tracé 288" d="M1255.056,1059.944l2.579,3.1-.337,3.13-3.117-4.879Z" transform="translate(-514.943 -331.658)" fill="#dce6f2"/>
    <path id="Tracé_289" data-name="Tracé 289" d="M1257.633,1063.046l-.316,2.944-.02.186-2.812-4.4-.3-.475.088-.137.785-1.216.174.21Z" transform="translate(-514.943 -331.658)" fill="green"/>
    <path id="Tracé_290" data-name="Tracé 290" d="M1201.483,970.3a5.171,5.171,0,0,0-2.432,2.153,18.365,18.365,0,0,0-1.312,2.256c-.239.477-.448.935-.622,1.334l-.122.284c-.294.7-.458,1.16-.458,1.16s-6.68-5.023-5.623-5.361c.355-.113.822-.874,1.284-1.833l.057-.122c.293-.616.58-1.3.835-1.948.522-1.328.91-2.481.91-2.481S1204.146,969.544,1201.483,970.3Z" transform="translate(-457.453 -246.217)" fill="#efb7b9"/>
    <path id="Tracé_291" data-name="Tracé 291" d="M1348.706,962.709s1.542,2.79,3.614,2.41,1.219-1.5,1.219-1.5Z" transform="translate(-600.68 -243.461)" fill="#444053"/>
    <path id="Tracé_292" data-name="Tracé 292" d="M1196.079,1937.477c-1.366.624-4.456,0-4.456,0l-1.3-.081c-1.691-.108-4.522-.291-5.523-.372-1.461-.12-1.1-.719-1.1-.719v-3.617l7.089-1.8s2.8.959,3.57,1.8c.729.8,1.155.184,2.455.414.064.012.132.025.2.042,1.234.282,1.9.394,2.3,1.417a4.726,4.726,0,0,1,.191.66C1199.868,1936.868,1197.443,1936.856,1196.079,1937.477Z" transform="translate(-450.973 -1121.642)" fill="#494949"/>
    <path id="Tracé_293" data-name="Tracé 293" d="M1199.312,1956.128a5.3,5.3,0,0,1-.8.409c-.93.424-1.815.942-2.755,1.343a6.442,6.442,0,0,1-2.971.61,4.434,4.434,0,0,0-1.586-.017,3.665,3.665,0,0,0-.881.489c-1.691-.108-4.522-.291-5.523-.372-1.461-.12-1.1-.719-1.1-.719v-.423c.052,0,.112-.015.179-.02a3.187,3.187,0,0,1,1.031.154c.734.2,1.464.4,2.2.592a1.737,1.737,0,0,1,.846-1.079,2.7,2.7,0,0,1,1.363-.313c1.138.015,2.215.555,3.352.609a1.847,1.847,0,0,0,.928-.156c.156-.078.293-.191.445-.277a3.25,3.25,0,0,1,.766-.259,16.88,16.88,0,0,0,2.19-.707c.2-.08.44-.223.413-.44-.036-.288-.487-.321-.605-.585a.338.338,0,0,1,.013-.3c.064.012.132.025.2.042C1198.247,1954.994,1198.916,1955.105,1199.312,1956.128Z" transform="translate(-450.973 -1143.209)" fill="#494949" opacity="0.1" style="isolation: isolate"/>
    <path id="Tracé_294" data-name="Tracé 294" d="M1158.173,2011.245c-1.607.734-5.242,0-5.242,0l-1.53-.09c-1.982-.127-5.32-.338-6.5-.438-1.72-.142-1.3-.846-1.3-.846v-4.263l8.342-2.114s3.3,1.128,4.2,2.114c.857.938,1.353.217,2.89.487.076.014.156.031.238.049,1.453.338,2.241.465,2.706,1.669a5.447,5.447,0,0,1,.225.776C1162.625,2010.528,1159.779,2010.513,1158.173,2011.245Z" transform="translate(-414.603 -1187.496)" fill="#494949"/>
    <path id="Tracé_295" data-name="Tracé 295" d="M1161.978,2033.275a6.281,6.281,0,0,1-.938.482c-1.094.5-2.136,1.108-3.242,1.579a7.6,7.6,0,0,1-3.5.719,5.1,5.1,0,0,0-1.86-.02,4.3,4.3,0,0,0-1.04.582c-1.982-.127-5.32-.338-6.5-.438-1.72-.142-1.3-.846-1.3-.846v-.5a2.115,2.115,0,0,1,.211-.024,3.708,3.708,0,0,1,1.214.181l2.586.7a2.046,2.046,0,0,1,1-1.27,3.158,3.158,0,0,1,1.6-.369c1.339.019,2.606.653,3.944.717a2.183,2.183,0,0,0,1.089-.181c.184-.093.338-.227.524-.327a3.681,3.681,0,0,1,.9-.3,20.265,20.265,0,0,0,2.564-.832c.238-.095.517-.264.485-.518-.042-.338-.573-.379-.714-.69a.408.408,0,0,1,.017-.352c.076.014.156.031.239.049C1160.724,2031.939,1161.512,2032.071,1161.978,2033.275Z" transform="translate(-414.603 -1212.957)" fill="#494949"/>
    <path id="Tracé_296" data-name="Tracé 296" d="M1207.84,1772.169l-.452,10.625s-.676,2.17-.31,2.79.986,1.24.761,1.606-2.931,4.334-3.805,2.812-1.737-8.117-1.737-8.117l.807-8.146Z" transform="translate(-467.882 -977.674)" fill="#2d2d2d"/>
    <path id="Tracé_297" data-name="Tracé 297" d="M1258.613,1487.4l1.255,1.678v14.591s.367,3.89,0,4.693a12.6,12.6,0,0,1-2.227,2.41l-1.564-8.033.338-8.5Z" transform="translate(-516.661 -719.374)" fill="#2d2d2d"/>
    <path id="Tracé_298" data-name="Tracé 298" d="M1207.84,1772.169l-.452,10.625s-.676,2.17-.31,2.79.986,1.24.761,1.606-2.931,4.334-3.805,2.812-1.737-8.117-1.737-8.117l.807-8.146Z" transform="translate(-467.882 -977.674)" fill="#202020" opacity="0.1" style="isolation: isolate"/>
    <path id="Tracé_299" data-name="Tracé 299" d="M1258.751,1485.4l1.255,1.677v14.591s.367,3.889,0,4.693a12.6,12.6,0,0,1-2.227,2.41l-1.564-8.033.338-8.5Z" transform="translate(-516.786 -717.56)" fill="#202020" opacity="0.1" style="isolation: isolate"/>
    <path id="Tracé_300" data-name="Tracé 300" d="M1124.272,1380.849v7.892l-1.423,6.144s-.456,14.826-.058,16.628-1.367,3.5-1.367,3.5-1.025.113-1.025.9-1.708,3.044-1.708,3.044l.056,4.4s.741,8.23-.4,9.808.4,1.8.4,1.8c-1.423,4.622-8.256,3.551-8.872,3.044s0-10.485,0-10.485,1.527-15.22,2.723-15.9.058-1.522.456-2.537-.4-3.776-.4-3.776a17.255,17.255,0,0,0-1.2-4.848c-.854-1.578-.741-5.919-.741-5.919s-2.391-3.157-3.1-4.4-1.168-4.453-1-6.878a21.441,21.441,0,0,1,1.537-5.4c.265-.658.456-1.084.456-1.084l.162.042,9.33,2.418Z" transform="translate(-381.066 -619.049)" fill="#202020"/>
    <path id="Tracé_301" data-name="Tracé 301" d="M1223.81,969.838a5.171,5.171,0,0,0-2.432,2.153h-.189a6.04,6.04,0,0,1-5.242-3.032,5.947,5.947,0,0,1-.531-1.209c.522-1.327.91-2.481.91-2.481S1226.473,969.077,1223.81,969.838Z" transform="translate(-479.78 -245.783)" opacity="0.1" style="isolation: isolate"/>
    <path id="Tracé_302" data-name="Tracé 302" d="M1224.577,910.253a6.046,6.046,0,1,1-11.31-2.963,5.915,5.915,0,0,1,.639-.923,6.12,6.12,0,0,1,1.39-1.221,6.045,6.045,0,0,1,9.272,4.664C1224.572,909.959,1224.577,910.106,1224.577,910.253Z" transform="translate(-477.123 -190.393)" fill="#efb7b9"/>
    <path id="Tracé_303" data-name="Tracé 303" d="M1199.827,1023.765l-.02.186-2.812-4.4c-.294.7-.458,1.16-.458,1.16s-6.68-5.029-5.623-5.368c.355-.113.822-.874,1.284-1.833l.057-.122c.49,1.461,3.34,4.382,4.525,5.552.137.135.25.247.338.328l.181.169.095.095C1197.825,1019.98,1199.645,1021.942,1199.827,1023.765Z" transform="translate(-457.453 -289.433)" opacity="0.1" style="isolation: isolate"/>
    <path id="Tracé_304" data-name="Tracé 304" d="M1116.171,1038.2l-.308,9.9-.054,1.764s-3.646-.338-7.048-.71a45.887,45.887,0,0,1-5.719-.812,10.76,10.76,0,0,0-2.452-.539c-.663-.09-1.184-.137-1.184-.137s-.194.058-.494.112a3.137,3.137,0,0,1-2.467-.365c-.854-.742,1.39-3.44,1.95-4.087l.123-.14-.211-1.953-.55-5.065a30.885,30.885,0,0,0-.846-4.481,8.257,8.257,0,0,1-.292-1.361,10.9,10.9,0,0,1,.284-4.272,9.321,9.321,0,0,0,.3-1.808c.084-1.564,4.862-7.61,6.046-8.159a2.51,2.51,0,0,0,1.211-1.207,2.3,2.3,0,0,0,.184-.526c.507-2.2,1.791-1.326,1.791-1.326.309,1.72,5.1,6.272,5.1,6.272l.095.095c.475.487,2.592,2.773,2.442,4.725a5.729,5.729,0,0,0,.32,2.137,36.152,36.152,0,0,1,1.666,9.47Z" transform="translate(-371.695 -288.953)" fill="green"/>
    <path id="Tracé_305" data-name="Tracé 305" d="M1215.831,1158.944s-1.184,2.875-2.072,3.34S1216.253,1163.265,1215.831,1158.944Z" transform="translate(-478.143 -421.454)" opacity="0.1" style="isolation: isolate"/>
    <path id="Tracé_306" data-name="Tracé 306" d="M1220.649,1216.7s-2.706.338-2.706.845S1220.649,1216.7,1220.649,1216.7Z" transform="translate(-482.073 -473.844)" opacity="0.1" style="isolation: isolate"/>
    <path id="Tracé_307" data-name="Tracé 307" d="M1227.145,1252.176s-3.932,8.371-5.031,8.625S1227.145,1252.176,1227.145,1252.176Z" transform="translate(-485.736 -506.02)" opacity="0.1" style="isolation: isolate"/>
    <path id="Tracé_308" data-name="Tracé 308" d="M1189.865,1022.948l-3.252,1.414-3.925-5.929a2.308,2.308,0,0,0,.184-.526c.507-2.2,1.791-1.326,1.791-1.326.309,1.72,5.1,6.272,5.1,6.272Z" transform="translate(-450.095 -292.171)" opacity="0.1" style="isolation: isolate"/>
    <path id="Tracé_309" data-name="Tracé 309" d="M1191.684,1019.31l-3.252,1.414-3.925-5.929a2.306,2.306,0,0,0,.184-.526c.507-2.2,1.791-1.326,1.791-1.326.309,1.72,5.1,6.272,5.1,6.272Z" transform="translate(-451.745 -288.87)" fill="green"/>
    <path id="Tracé_310" data-name="Tracé 310" d="M1133.34,1151.654s-3.646-.338-7.048-.71l6.1,1.6v1.86c-.267.242-.5.367-.649.3-.7-.3-6.445-1.226-6.445-1.226s-3.335-1.691-6.933-3.72a2.784,2.784,0,0,1-.254-.159,4,4,0,0,1-1.065-1.067,7.573,7.573,0,0,1-1.13-3.411,14.754,14.754,0,0,1-.088-2.094,17.186,17.186,0,0,1,.217-2.366,77.8,77.8,0,0,1-.507-9.132c.042-4.735,4.481-6.426,4.481-6.426,8.16-.719,5.63,12.472,5.63,12.472s-.472,3.72-.6,4.1a4.012,4.012,0,0,0-.528,1.9c.063.888,1.622,1.95,1.622,1.95a5.694,5.694,0,0,1,2.149,1.771c.457.78,3.423,1.837,5.1,2.591Z" transform="translate(-389.19 -390.734)" opacity="0.1" style="isolation: isolate"/>
    <path id="Tracé_311" data-name="Tracé 311" d="M1223.853,898.829a1.917,1.917,0,0,1-.169.808,5.017,5.017,0,0,1-.3.6,2.774,2.774,0,0,1-.741.92,3.791,3.791,0,0,1-1.353.47,1.958,1.958,0,0,0-1.223.693,2.425,2.425,0,0,0-.286.829,1.782,1.782,0,0,1-.338.8.665.665,0,0,1-.792.189.8.8,0,0,1-.306-.394,5.651,5.651,0,0,1-.32-1.385,2.947,2.947,0,0,0-.475-1.328,1.189,1.189,0,0,0-1.248-.479,1.2,1.2,0,0,0-.676.656,3.76,3.76,0,0,0-.255.933q-.315,1.721-.742,3.423a.315.315,0,0,1-.056.129.244.244,0,0,1-.169.071c-.379.051-.742-.215-1.124-.186a.639.639,0,0,0-.117.019,6.042,6.042,0,0,1,.61-6.9l.03-.008a1.821,1.821,0,0,0,.676-.426,7.132,7.132,0,0,0,.677-.783l.135-.169a7.7,7.7,0,0,1,1.319-1.253,1.353,1.353,0,0,1,.45-.243,1.333,1.333,0,0,1,.426-.014,10.744,10.744,0,0,0,1.76.066,11.268,11.268,0,0,1,1.236-.125,3.805,3.805,0,0,1,2.66,1.615A2.5,2.5,0,0,1,1223.853,898.829Z" transform="translate(-477.006 -182.723)" opacity="0.1" style="isolation: isolate"/>
    <path id="Tracé_312" data-name="Tracé 312" d="M1195.37,898.18c-.235.386-.66.648-.819,1.071-.233.614.161,1.378-.2,1.926-.12.184-.318.321-.386.533-.115.357.2.737.118,1.1s-.565.677-.436,1.035a.676.676,0,0,0,.372.338,1.454,1.454,0,0,0,.846.188c.462-.076.8-.529,1.273-.563.38-.027.744.237,1.123.188a.254.254,0,0,0,.169-.073.293.293,0,0,0,.056-.129q.426-1.7.744-3.423a3.685,3.685,0,0,1,.254-.933,1.211,1.211,0,0,1,.677-.656,1.193,1.193,0,0,1,1.248.479,2.93,2.93,0,0,1,.477,1.328,5.728,5.728,0,0,0,.318,1.385.808.808,0,0,0,.308.4.662.662,0,0,0,.79-.189,1.765,1.765,0,0,0,.338-.8,2.417,2.417,0,0,1,.286-.827,1.962,1.962,0,0,1,1.223-.693,3.825,3.825,0,0,0,1.353-.472,2.785,2.785,0,0,0,.741-.918,2.7,2.7,0,0,0,.463-1.412,2.591,2.591,0,0,0-.693-1.463,3.8,3.8,0,0,0-2.662-1.613,10.522,10.522,0,0,0-1.236.125,10.571,10.571,0,0,1-1.76-.068,1.383,1.383,0,0,0-.426.015,1.274,1.274,0,0,0-.448.244,7.714,7.714,0,0,0-1.321,1.251,9.692,9.692,0,0,1-.815.947,1.836,1.836,0,0,1-.676.428c-.169.047-.338.013-.5.066C1195.667,897.147,1195.6,897.8,1195.37,898.18Z" transform="translate(-460.016 -181.122)" fill="#303030"/>
    <path id="Tracé_313" data-name="Tracé 313" d="M1352.32,965.117c-1.353.249-2.474-.845-3.095-1.644a6.653,6.653,0,0,1-.519-.764l4.644.876.188.036S1354.391,964.738,1352.32,965.117Z" transform="translate(-600.68 -243.461)" fill="green" opacity="0.1" style="isolation: isolate"/>
    <g id="Groupe_61" data-name="Groupe 61" transform="translate(733.601 715.768)" opacity="0.1">
      <path id="Tracé_314" data-name="Tracé 314" d="M1197.145,977.457a1.411,1.411,0,0,0-.1-.649c0,.017-.015.034-.02.051a1.259,1.259,0,0,0,.088.7A.509.509,0,0,0,1197.145,977.457Z" transform="translate(-1196.679 -972.017)"/>
      <path id="Tracé_315" data-name="Tracé 315" d="M1202.779,954.014a3.745,3.745,0,0,0,.013.7A3.745,3.745,0,0,0,1202.779,954.014Z" transform="translate(-1201.911 -951.342)"/>
      <path id="Tracé_316" data-name="Tracé 316" d="M1206.15,926.362a2.771,2.771,0,0,1-.741.92,3.78,3.78,0,0,1-1.353.47,1.952,1.952,0,0,0-1.223.693,2.438,2.438,0,0,0-.286.829,1.77,1.77,0,0,1-.338.8.66.66,0,0,1-.79.189.808.808,0,0,1-.308-.4,5.624,5.624,0,0,1-.318-1.385,2.921,2.921,0,0,0-.477-1.327,1.188,1.188,0,0,0-1.248-.479,1.207,1.207,0,0,0-.676.656,3.68,3.68,0,0,0-.254.933q-.316,1.723-.744,3.423a.292.292,0,0,1-.056.129.254.254,0,0,1-.169.073c-.379.049-.742-.215-1.123-.188-.469.034-.812.487-1.273.561a1.428,1.428,0,0,1-.846-.188.905.905,0,0,1-.309-.22.457.457,0,0,0-.063.394.66.66,0,0,0,.372.338,1.429,1.429,0,0,0,.846.188c.462-.074.805-.528,1.273-.561.38-.027.744.237,1.123.188a.253.253,0,0,0,.169-.073.292.292,0,0,0,.056-.129q.426-1.691.744-3.423a3.68,3.68,0,0,1,.254-.933,1.207,1.207,0,0,1,.676-.656,1.189,1.189,0,0,1,1.248.479,2.927,2.927,0,0,1,.477,1.327,5.725,5.725,0,0,0,.318,1.385.808.808,0,0,0,.308.4.662.662,0,0,0,.79-.189,1.77,1.77,0,0,0,.338-.8,2.438,2.438,0,0,1,.286-.829,1.97,1.97,0,0,1,1.223-.693,3.857,3.857,0,0,0,1.353-.47,2.772,2.772,0,0,0,.741-.92,2.692,2.692,0,0,0,.463-1.41,1.791,1.791,0,0,0-.02-.193A3.321,3.321,0,0,1,1206.15,926.362Z" transform="translate(-1193.536 -925.271)"/>
    </g>
    <path id="Tracé_317" data-name="Tracé 317" d="M1231.382,907.316a5.973,5.973,0,0,1,.753,2.511c-1.507-.846-2.924-1.774-3.639-2.1-1.246-.563-5.907-.479-7.659-.426a5.908,5.908,0,0,1,.639-.923,6.121,6.121,0,0,1,1.4-1.221,6.049,6.049,0,0,1,8.349,1.866q.09.141.171.287Z" transform="translate(-484.697 -190.407)" opacity="0.1" style="isolation: isolate"/>
    <path id="Tracé_318" data-name="Tracé 318" d="M1352.743,964.4c-.813.25-2.141-.233-3.518-.927a6.653,6.653,0,0,1-.519-.764l4.644.876C1353.657,963.795,1353.735,964.094,1352.743,964.4Z" transform="translate(-600.68 -243.461)" opacity="0.1" style="isolation: isolate"/>
    <path id="Tracé_319" data-name="Tracé 319" d="M1219.98,874.4s-4.439-.254-5.687,2.156l-.2,2.136-.338-.037-.068,1.453s6.785-.3,8.329.4,6.342,4.207,8.264,3.616-.169-1.141-.169-1.141-2.647-1.121-2.647-2S1226.807,875.461,1219.98,874.4Z" transform="translate(-478.212 -163.358)" fill="#ffc000"/>
    <path id="Tracé_320" data-name="Tracé 320" d="M1189.291,1726.217s2.833,2.748,4.059,2.537C1193.35,1728.754,1189.883,1728.458,1189.291,1726.217Z" transform="translate(-456.084 -935.994)" opacity="0.1" style="isolation: isolate"/>
    <path id="Tracé_321" data-name="Tracé 321" d="M1182.924,1739.915s.254,1.414.93,1.275S1182.924,1739.915,1182.924,1739.915Z" transform="translate(-450.309 -948.419)" opacity="0.1" style="isolation: isolate"/>
    <path id="Tracé_322" data-name="Tracé 322" d="M1197.3,1994.09s-4.021,3.129-3.343,3.213S1197.3,1994.09,1197.3,1994.09Z" transform="translate(-460.25 -1178.966)" opacity="0.1" style="isolation: isolate"/>
    <path id="Tracé_323" data-name="Tracé 323" d="M1287.766,1305.469l13.021-2.119v12.328l-12.372-.648Z" transform="translate(-545.406 -552.436)" fill="#a3825b"/>
    <path id="Tracé_324" data-name="Tracé 324" d="M1287.766,1305.469l13.021-2.119v12.328l-12.372-.648Z" transform="translate(-545.406 -552.436)" opacity="0.05" style="isolation: isolate"/>
    <path id="Tracé_325" data-name="Tracé 325" d="M1427.843,1303.35l15.616,1.168-.864,10.728-14.751.431Z" transform="translate(-672.461 -552.436)" fill="#a3825b"/>
    <path id="Tracé_326" data-name="Tracé 326" d="M1427.843,1303.35l15.616,1.168-.864,10.728-14.751.431Z" transform="translate(-672.461 -552.436)" opacity="0.1" style="isolation: isolate"/>
    <path id="Tracé_327" data-name="Tracé 327" d="M1433.423,1262.873l-4.8,3.763,15.615,1.169,2.552-3.851Z" transform="translate(-673.167 -515.722)" fill="#a3825b"/>
    <path id="Tracé_328" data-name="Tracé 328" d="M1237.827,1268.011l11.723-1.427,6.014,3.418-13.021,2.119Z" transform="translate(-500.108 -519.088)" fill="#a3825b"/>
    <path id="Tracé_329" data-name="Tracé 329" d="M1303.663,1327.1v16.877l-6.108-.626-2.657-.271-.809-.085-2.655-.273-3.668-.376v-16.33l13.036.887Z" transform="translate(-545.406 -573)" fill="#a3825b"/>
    <path id="Tracé_330" data-name="Tracé 330" d="M1473.271,1316.54v16.337l-4.859.933-2.363.454-5.461,1.049V1318.56Z" transform="translate(-702.162 -564.4)" fill="#a3825b"/>
    <path id="Tracé_331" data-name="Tracé 331" d="M1473.271,1316.54v16.337l-4.859.933-2.363.454-5.461,1.049V1318.56Z" transform="translate(-702.162 -564.4)" fill="#a3825b" opacity="0.05" style="isolation: isolate"/>
    <path id="Tracé_332" data-name="Tracé 332" d="M1237.827,1329.692l4.715-3.548,15.876,1.082-2.337,3.937Z" transform="translate(-500.108 -573.112)" fill="#a3825b"/>
    <path id="Tracé_333" data-name="Tracé 333" d="M1237.827,1329.692l4.715-3.548,15.876,1.082-2.337,3.937Z" transform="translate(-500.108 -573.112)" fill="#fff" opacity="0.1" style="isolation: isolate"/>
    <path id="Tracé_334" data-name="Tracé 334" d="M1472.09,1315.92l-12.761,2.033,4.153,3.72,13.669-2.293Z" transform="translate(-701.02 -563.838)" fill="#a3825b"/>
    <path id="Tracé_335" data-name="Tracé 335" d="M1472.09,1315.92l-12.761,2.033,4.153,3.72,13.669-2.293Z" transform="translate(-701.02 -563.838)" fill="#fff" opacity="0.1" style="isolation: isolate"/>
    <path id="Tracé_336" data-name="Tracé 336" d="M1521.179,1467.546l-2.378.457v-3.512l2.227-.561Z" transform="translate(-754.964 -698.088)" fill="#fff" opacity="0.1" style="isolation: isolate"/>
    <path id="Tracé_337" data-name="Tracé 337" d="M1366.878,1486.917v2.324l-2.706-.271v-2.053Z" transform="translate(-614.708 -718.939)" fill="#fff" opacity="0.1" style="isolation: isolate"/>
    <path id="Tracé_338" data-name="Tracé 338" d="M1330.494,1496.013v1.236l-2.706-.272v-.964Z" transform="translate(-581.707 -727.19)" fill="#fff" opacity="0.1" style="isolation: isolate"/>
    <path id="Tracé_339" data-name="Tracé 339" d="M1316.4,1408.113c-1.818,2.325-7.821.719-7.821.719l-4.461-4.654-.605-.631,1.184-2.2s.338.112.9.308C1308.594,1402.7,1317.935,1406.157,1316.4,1408.113Z" transform="translate(-559.692 -641.326)" opacity="0.1" style="isolation: isolate"/>
    <path id="Tracé_340" data-name="Tracé 340" d="M1314.586,1404.474c-1.818,2.325-7.821.719-7.821.719l-4.461-4.654-.605-.631,1.184-2.2s.338.112.9.308C1306.775,1399.063,1316.116,1402.518,1314.586,1404.474Z" transform="translate(-558.042 -638.025)" fill="#efb7b9"/>
    <path id="Tracé_341" data-name="Tracé 341" d="M1303.712,1398.018a10,10,0,0,1-1.481,2.521l-.605-.631,1.184-2.2S1303.149,1397.822,1303.712,1398.018Z" transform="translate(-557.976 -638.025)" opacity="0.1" style="isolation: isolate"/>
    <path id="Tracé_342" data-name="Tracé 342" d="M1121.456,1117.82s-4.439,1.691-4.481,6.426a77.8,77.8,0,0,0,.507,9.132s-1.268,7.06,2.325,9.09,6.933,3.72,6.933,3.72,5.741.93,6.446,1.226,3.156-3.509,2.775-4.143-5.608-2.2-6.228-3.255a5.631,5.631,0,0,0-2.149-1.769s-1.559-1.064-1.622-1.951a3.994,3.994,0,0,1,.528-1.9c.13-.38.6-4.1.6-4.1S1129.616,1117.093,1121.456,1117.82Z" transform="translate(-390.49 -384.127)" fill="green"/>
    <path id="Tracé_343" data-name="Tracé 343" d="M1132.727,1286.741s-6,.676-5.538,2.79A12.629,12.629,0,0,1,1132.727,1286.741Z" transform="translate(-399.732 -537.371)" opacity="0.1" style="isolation: isolate"/>
    <path id="Tracé_344" data-name="Tracé 344" d="M1159.125,1295.837s-3.407,2.494-2.782,2.663S1159.125,1295.837,1159.125,1295.837Z" transform="translate(-426.13 -545.622)" opacity="0.1" style="isolation: isolate"/>
    <path id="Tracé_345" data-name="Tracé 345" d="M1197.623,1306.752s-.972,1.749-.423,1.657S1197.623,1306.752,1197.623,1306.752Z" transform="translate(-463.105 -555.522)" opacity="0.1" style="isolation: isolate"/>
    <path id="Tracé_346" data-name="Tracé 346" d="M1819.822,898.666s-6.426-.387-5.675,4.121a1.1,1.1,0,0,0,.572,1.158s.012-.338.66-.222a2.963,2.963,0,0,0,.7.034,1.449,1.449,0,0,0,.856-.353h0s1.808-.746,2.511-3.7c0,0,.521-.646.507-.812l-1.086.465a1.946,1.946,0,0,1,.078,1.434s-.034-1.405-.243-1.373c-.042,0-.563.272-.563.272a3.208,3.208,0,0,1,.156,2.356s.182-1.681-.355-2.258l-.764.447a3.374,3.374,0,0,1,.24,2.559,4.794,4.794,0,0,0-.4-2.45l-.693.539a3.3,3.3,0,0,1,.274,2.344s-.056-2.053-.424-2.208a4.177,4.177,0,0,0-.7.754s.479,1.015.181,1.541c0,0-.182-1.368-.338-1.375a4.552,4.552,0,0,0-.666,1.522,3.291,3.291,0,0,1,.519-1.613,1.811,1.811,0,0,0-.923.479s.093-.641,1.072-.7a4.632,4.632,0,0,1,.633-.731,3.965,3.965,0,0,0-1.564.181,1.772,1.772,0,0,1,1.744-.338l.677-.558a5.836,5.836,0,0,0-1.826.019,2.223,2.223,0,0,1,2.011-.145l.744-.445a6.677,6.677,0,0,0-1.743-.151,2.675,2.675,0,0,1,1.962.03l.533-.238s-.8-.157-1.035-.183-.247-.09-.247-.09a2.765,2.765,0,0,1,1.5.169A6.64,6.64,0,0,0,1819.822,898.666Z" transform="translate(-1022.799 -185.364)" fill="#ffc000"/>
    <path id="Tracé_347" data-name="Tracé 347" d="M2029.863,1141.235s-6.426-.387-5.675,4.121a1.1,1.1,0,0,0,.572,1.158s.012-.338.661-.222a2.954,2.954,0,0,0,.7.034,1.446,1.446,0,0,0,.846-.352h0s1.809-.747,2.513-3.7c0,0,.519-.644.5-.81l-1.086.463a1.951,1.951,0,0,1,.08,1.434s-.036-1.405-.244-1.373c-.042,0-.565.272-.565.272a3.207,3.207,0,0,1,.157,2.356s.183-1.681-.357-2.258l-.756.441a3.373,3.373,0,0,1,.24,2.559,4.794,4.794,0,0,0-.4-2.45l-.692.541a3.3,3.3,0,0,1,.274,2.342s-.056-2.053-.424-2.208a4.244,4.244,0,0,0-.7.754s.48,1.015.183,1.541c0,0-.183-1.368-.338-1.375a4.551,4.551,0,0,0-.666,1.522,3.3,3.3,0,0,1,.521-1.613,1.82,1.82,0,0,0-.925.479s.095-.641,1.074-.7a4.226,4.226,0,0,1,.632-.731,3.966,3.966,0,0,0-1.564.181,1.757,1.757,0,0,1,1.742-.33l.676-.558a5.838,5.838,0,0,0-1.826.019,2.223,2.223,0,0,1,2.011-.145l.744-.445a6.781,6.781,0,0,0-1.745-.151,2.68,2.68,0,0,1,1.963.031l.533-.239s-.8-.157-1.037-.183-.247-.09-.247-.09a2.771,2.771,0,0,1,1.505.169A6.832,6.832,0,0,0,2029.863,1141.235Z" transform="translate(-1213.314 -405.384)" fill="#ffc000" opacity="0.1" style="isolation: isolate"/>
    <path id="Tracé_348" data-name="Tracé 348" d="M1623.082,1036.237s1.48-6.272-3.093-6.294a1.1,1.1,0,0,0-1.238.365s.326.069.1.688a3,3,0,0,0-.152.677,1.453,1.453,0,0,0,.2.9h0s.428,1.911,3.213,3.108c0,0,.548.622.714.629l-.271-1.148a1.942,1.942,0,0,1-1.427-.169s1.392.2,1.393,0c0-.042-.169-.6-.169-.6a3.211,3.211,0,0,1-2.349-.249s1.625.467,2.286.036l-.3-.832a3.375,3.375,0,0,1-2.564-.2,4.8,4.8,0,0,0,2.484.024l-.414-.775a3.305,3.305,0,0,1-2.356-.13s2.029.294,2.249-.041a4.2,4.2,0,0,0-.624-.817s-1.075.3-1.549-.083c0,0,1.378.052,1.41-.093a4.56,4.56,0,0,0-1.392-.918,3.313,3.313,0,0,1,1.5.788,1.823,1.823,0,0,0-.314-.993s.615.2.507,1.184a4.215,4.215,0,0,1,.61.747,3.977,3.977,0,0,0,.088-1.573,1.758,1.758,0,0,1,.029,1.774l.433.769a5.61,5.61,0,0,0,.292-1.8,2.217,2.217,0,0,1-.2,2.006l.313.81a6.771,6.771,0,0,0,.445-1.691,2.674,2.674,0,0,1-.365,1.93l.145.565s.291-.763.355-.989.13-.228.13-.228a2.769,2.769,0,0,1-.421,1.454A6.712,6.712,0,0,0,1623.082,1036.237Z" transform="translate(-845.572 -304.388)" fill="#ffc000" opacity="0.1" style="isolation: isolate"/>
    <path id="Tracé_349" data-name="Tracé 349" d="M1443.149,1105.4s-5.161-3.861-7.006.321a1.1,1.1,0,0,0-.159,1.282s.193-.272.676.179a2.958,2.958,0,0,0,.565.412,1.451,1.451,0,0,0,.908.169h0s1.921.37,4.133-1.711c0,0,.79-.254.864-.4l-1.165-.2a1.954,1.954,0,0,1-.722,1.241s.742-1.194.55-1.28c-.039-.019-.62-.084-.62-.084a3.209,3.209,0,0,1-1.163,2.055s1.077-1.3.944-2.082l-.884-.047a3.373,3.373,0,0,1-1.206,2.271,4.828,4.828,0,0,0,1.015-2.268l-.876.071a3.3,3.3,0,0,1-1.058,2.105s1.08-1.745.859-2.077a4.255,4.255,0,0,0-1,.245s-.154,1.106-.695,1.387c0,0,.6-1.243.479-1.329a4.546,4.546,0,0,0-1.4.908,3.3,3.3,0,0,1,1.322-1.062,1.821,1.821,0,0,0-1.035-.108s.429-.484,1.279.008a4.274,4.274,0,0,1,.93-.262,3.957,3.957,0,0,0-1.407-.709,1.761,1.761,0,0,1,1.639.676l.878-.09a5.794,5.794,0,0,0-1.536-.988s.817-.1,1.759.982l.866.039a6.745,6.745,0,0,0-1.373-1.086,2.673,2.673,0,0,1,1.622,1.1l.577.093s-.583-.571-.766-.72-.157-.211-.157-.211a2.779,2.779,0,0,1,1.165.967A6.837,6.837,0,0,0,1443.149,1105.4Z" transform="translate(-679.713 -371.414)" fill="#ffc000" opacity="0.1" style="isolation: isolate"/>
    <path id="Tracé_350" data-name="Tracé 350" d="M1628,719.527s-5.161-3.862-7.006.321a1.1,1.1,0,0,0-.159,1.282s.193-.272.676.179a3.005,3.005,0,0,0,.567.411,1.448,1.448,0,0,0,.908.169h0s1.921.37,4.133-1.713c0,0,.79-.252.863-.4l-1.165-.2a1.945,1.945,0,0,1-.722,1.241s.744-1.194.551-1.28c-.039-.019-.621-.084-.621-.084a3.223,3.223,0,0,1-1.17,2.055s1.076-1.3.944-2.082l-.885-.047a3.376,3.376,0,0,1-1.206,2.269,4.827,4.827,0,0,0,1.015-2.268l-.874.071a3.3,3.3,0,0,1-1.06,2.107s1.082-1.745.861-2.077a4.251,4.251,0,0,0-1,.245s-.154,1.106-.7,1.387c0,0,.6-1.243.479-1.331a4.562,4.562,0,0,0-1.4.91,3.287,3.287,0,0,1,1.322-1.062,1.81,1.81,0,0,0-1.037-.108s.431-.484,1.28.008a4.171,4.171,0,0,1,.93-.262,3.978,3.978,0,0,0-1.407-.71,1.763,1.763,0,0,1,1.637.676l.878-.09a5.8,5.8,0,0,0-1.536-.989s.817-.1,1.76.984l.866.037a6.685,6.685,0,0,0-1.375-1.084,2.675,2.675,0,0,1,1.623,1.1l.575.093s-.585-.565-.768-.71-.157-.21-.157-.21a2.773,2.773,0,0,1,1.165.967A7.294,7.294,0,0,0,1628,719.527Z" transform="translate(-847.376 -21.411)" fill="#ffc000" opacity="0.1" style="isolation: isolate"/>
    <path id="Tracé_351" data-name="Tracé 351" d="M1845.021,746.393s-2.063-6.107-5.954-3.707a1.111,1.111,0,0,0-.857.966s.313-.115.452.528a3.043,3.043,0,0,0,.232.661,1.466,1.466,0,0,0,.649.658h0s1.373,1.4,4.376.933c0,0,.793.24.939.157l-.846-.83a1.945,1.945,0,0,1-1.3.612s1.291-.562,1.184-.742c-.022-.036-.464-.419-.464-.419a3.214,3.214,0,0,1-2.124,1.032s1.625-.463,1.957-1.184l-.7-.54a3.37,3.37,0,0,1-2.281,1.184s1.691-.543,2.119-1.294l-.761-.438a3.272,3.272,0,0,1-2.067,1.135s1.88-.824,1.886-1.223a4.232,4.232,0,0,0-.96-.364s-.754.824-1.353.749c0,0,1.2-.685,1.147-.825a4.538,4.538,0,0,0-1.666-.042,3.3,3.3,0,0,1,1.691-.127,1.825,1.825,0,0,0-.793-.676s.629-.154,1.05.732a4.258,4.258,0,0,1,.913.311,3.977,3.977,0,0,0-.756-1.382,1.761,1.761,0,0,1,.962,1.492l.775.423a5.71,5.71,0,0,0-.705-1.691s.732.379.891,1.808l.693.523a6.725,6.725,0,0,0-.517-1.674,2.677,2.677,0,0,1,.71,1.831l.421.4s-.156-.8-.22-1.028-.012-.242-.012-.242a2.791,2.791,0,0,1,.411,1.458A6.732,6.732,0,0,0,1845.021,746.393Z" transform="translate(-1044.68 -43.385)" fill="#ffc000" opacity="0.1" style="isolation: isolate"/>
    <path id="Tracé_352" data-name="Tracé 352" d="M1708.967,790.855s-6.409-.714-5.88,3.834a1.1,1.1,0,0,0,.507,1.184s.029-.338.677-.186a3.114,3.114,0,0,0,.7.069,1.455,1.455,0,0,0,.871-.309h0s1.845-.654,2.706-3.572c0,0,.551-.617.539-.785l-1.108.409a1.886,1.886,0,0,1,0,1.436s.036-1.405-.169-1.383c-.042,0-.577.244-.577.244a3.225,3.225,0,0,1,.037,2.367s.267-1.671-.242-2.273l-.786.406a3.362,3.362,0,0,1,.11,2.569,4.794,4.794,0,0,0-.276-2.467l-.719.507a3.3,3.3,0,0,1,.154,2.354s.049-2.053-.311-2.227a4.4,4.4,0,0,0-.736.717s.428,1.032.1,1.547c0,0-.113-1.375-.262-1.388a4.544,4.544,0,0,0-.744,1.492,3.291,3.291,0,0,1,.6-1.586,1.819,1.819,0,0,0-.947.431s.125-.634,1.106-.641c0,0,.533-.661.676-.7a3.977,3.977,0,0,0-1.573.1,1.755,1.755,0,0,1,1.757-.242l.712-.523a5.481,5.481,0,0,0-1.831-.091,2.2,2.2,0,0,1,2.016-.042l.766-.408a6.732,6.732,0,0,0-1.735-.238,2.656,2.656,0,0,1,1.958.13l.545-.211s-.793-.2-1.026-.235-.242-.1-.242-.1a2.781,2.781,0,0,1,1.495.244A6.912,6.912,0,0,0,1708.967,790.855Z" transform="translate(-922.09 -87.545)" fill="#ffc000" opacity="0.1" style="isolation: isolate"/>
    <path id="Tracé_353" data-name="Tracé 353" d="M2312.237,1326s-6.406-.714-5.877,3.829a1.1,1.1,0,0,0,.508,1.184s.029-.338.676-.188a2.938,2.938,0,0,0,.7.069,1.442,1.442,0,0,0,.871-.31h0s1.845-.655,2.7-3.57c0,0,.551-.619.539-.785l-1.107.407a1.891,1.891,0,0,1,0,1.437s.035-1.407-.169-1.383c-.042,0-.577.242-.577.242a3.226,3.226,0,0,1,.037,2.368s.267-1.669-.242-2.273l-.786.408a3.367,3.367,0,0,1,.112,2.569,4.805,4.805,0,0,0-.278-2.469l-.719.507a3.3,3.3,0,0,1,.154,2.352s.049-2.053-.311-2.225a4.473,4.473,0,0,0-.736.717s.43,1.032.1,1.547c0,0-.113-1.375-.262-1.388a4.548,4.548,0,0,0-.744,1.492,3.294,3.294,0,0,1,.6-1.586,1.806,1.806,0,0,0-.947.431s.125-.636,1.106-.643c0,0,.534-.661.677-.695a3.963,3.963,0,0,0-1.573.1,1.759,1.759,0,0,1,1.759-.24l.71-.523a5.651,5.651,0,0,0-1.825-.074,2.2,2.2,0,0,1,2.016-.044l.766-.406a6.733,6.733,0,0,0-1.735-.238,2.656,2.656,0,0,1,1.958.13l.544-.213s-.793-.2-1.026-.233-.242-.1-.242-.1a2.77,2.77,0,0,1,1.495.242A6.634,6.634,0,0,0,2312.237,1326Z" transform="translate(-1469.284 -572.945)" fill="#ffc000" opacity="0.1" style="isolation: isolate"/>
    <path id="Tracé_354" data-name="Tracé 354" d="M2417.586,1390.365s-6.406-.712-5.877,3.829a1.1,1.1,0,0,0,.507,1.184s.029-.338.677-.186a2.993,2.993,0,0,0,.695.068,1.462,1.462,0,0,0,.868-.308h0s1.843-.654,2.7-3.572c0,0,.553-.617.54-.785l-1.108.407a1.891,1.891,0,0,1,0,1.438s.035-1.405-.169-1.383c-.042,0-.577.242-.577.242a3.225,3.225,0,0,1,.037,2.368s.267-1.669-.242-2.271l-.786.406a3.367,3.367,0,0,1,.112,2.569,4.8,4.8,0,0,0-.277-2.467l-.719.507a3.308,3.308,0,0,1,.156,2.354s.047-2.055-.313-2.227a4.47,4.47,0,0,0-.736.717s.43,1.031.1,1.547c0,0-.113-1.375-.262-1.388a4.517,4.517,0,0,0-.742,1.492,3.3,3.3,0,0,1,.6-1.586,1.821,1.821,0,0,0-.947.431s.127-.636,1.108-.641c0,0,.533-.661.677-.7a3.977,3.977,0,0,0-1.573.1,1.757,1.757,0,0,1,1.759-.242l.71-.522a5.651,5.651,0,0,0-1.825-.074,2.2,2.2,0,0,1,2.016-.042l.766-.407a6.74,6.74,0,0,0-1.735-.239,2.656,2.656,0,0,1,1.958.13l.545-.211s-.793-.2-1.025-.235-.244-.1-.244-.1a2.782,2.782,0,0,1,1.5.244A6.7,6.7,0,0,0,2417.586,1390.365Z" transform="translate(-1564.84 -631.326)" fill="#ffc000" opacity="0.1" style="isolation: isolate"/>
    <path id="Tracé_355" data-name="Tracé 355" d="M2170,832.778s-5.161-3.861-7.006.321a1.1,1.1,0,0,0-.159,1.282s.193-.272.677.179a2.952,2.952,0,0,0,.565.413,1.453,1.453,0,0,0,.908.169h0s1.921.37,4.135-1.711c0,0,.788-.254.863-.4l-1.162-.21a1.952,1.952,0,0,1-.722,1.241s.742-1.194.55-1.28c-.039-.019-.619-.084-.619-.084a3.213,3.213,0,0,1-1.165,2.055s1.077-1.3.944-2.082l-.885-.047a3.373,3.373,0,0,1-1.206,2.271,4.812,4.812,0,0,0,1.015-2.268l-.876.071a3.251,3.251,0,0,1-1.059,2.105s1.082-1.745.859-2.077a4.25,4.25,0,0,0-1,.245s-.152,1.106-.693,1.387c0,0,.6-1.243.477-1.329a4.545,4.545,0,0,0-1.4.908,3.3,3.3,0,0,1,1.322-1.062,1.821,1.821,0,0,0-1.035-.108s.431-.484,1.28.008a4.251,4.251,0,0,1,.928-.262,3.958,3.958,0,0,0-1.407-.709,1.761,1.761,0,0,1,1.639.676l.878-.09a5.763,5.763,0,0,0-1.536-.988s.817-.1,1.759.983l.867.039a6.771,6.771,0,0,0-1.375-1.086,2.67,2.67,0,0,1,1.622,1.1l.576.093s-.583-.572-.766-.72-.156-.2-.156-.2a2.78,2.78,0,0,1,1.163.967A6.784,6.784,0,0,0,2170,832.778Z" transform="translate(-1338.996 -124.135)" fill="#ffc000" opacity="0.1" style="isolation: isolate"/>
    <path id="Tracé_356" data-name="Tracé 356" d="M2219.04,1105.02s-1.779-6.194-5.78-3.971a1.1,1.1,0,0,0-.9.925s.318-.1.428.548a3,3,0,0,0,.2.677,1.452,1.452,0,0,0,.619.69h0s1.309,1.454,4.329,1.13c0,0,.781.274.93.2l-.8-.869a1.944,1.944,0,0,1-1.324.555s1.312-.507,1.211-.688c-.02-.037-.443-.441-.443-.441a3.2,3.2,0,0,1-2.168.935s1.645-.389,2.007-1.089l-.676-.572a3.378,3.378,0,0,1-2.332,1.082s1.7-.468,2.175-1.2l-.741-.472a3.3,3.3,0,0,1-2.115,1.04s1.916-.739,1.939-1.136a4.221,4.221,0,0,0-.945-.406s-.79.788-1.39.687c0,0,1.228-.631,1.184-.773a4.568,4.568,0,0,0-1.662-.118,3.3,3.3,0,0,1,1.691-.049,1.818,1.818,0,0,0-.761-.71s.636-.127,1.015.778a4.214,4.214,0,0,1,.9.352,3.953,3.953,0,0,0-.693-1.414,1.756,1.756,0,0,1,.895,1.532l.754.458a5.625,5.625,0,0,0-.629-1.715,2.221,2.221,0,0,1,.81,1.845l.677.553a6.708,6.708,0,0,0-.441-1.691,2.672,2.672,0,0,1,.627,1.86l.4.423s-.118-.808-.169-1.038,0-.262,0-.262a2.772,2.772,0,0,1,.347,1.475A6.722,6.722,0,0,0,2219.04,1105.02Z" transform="translate(-1384.049 -368.504)" fill="#ffc000" opacity="0.1" style="isolation: isolate"/>
    <path id="Tracé_357" data-name="Tracé 357" d="M1786.716,1267.164s-3.455-5.442-6.663-2.185a1.094,1.094,0,0,0-.605,1.142s.279-.186.567.406a2.9,2.9,0,0,0,.382.585,1.444,1.444,0,0,0,.786.487h0s1.666,1.028,4.473-.135c0,0,.827.044.949-.069l-1.015-.609a1.944,1.944,0,0,1-1.116.9s1.119-.846.969-1c-.029-.03-.55-.3-.55-.3a3.213,3.213,0,0,1-1.818,1.507s1.47-.837,1.622-1.612l-.81-.357a3.368,3.368,0,0,1-1.933,1.691s1.505-.928,1.75-1.76l-.845-.244s-.714,1.382-1.737,1.593c0,0,1.63-1.248,1.541-1.637a4.2,4.2,0,0,0-1.015-.124s-.536.979-1.141,1.05c0,0,1-.95.918-1.076a4.553,4.553,0,0,0-1.628.355,3.29,3.29,0,0,1,1.613-.524,1.818,1.818,0,0,0-.928-.469s.573-.3,1.184.462a4.183,4.183,0,0,1,.962.084,3.892,3.892,0,0,0-1.064-1.162s.795.068,1.289,1.219l.854.227a5.654,5.654,0,0,0-1.086-1.468s.8.193,1.3,1.544l.8.338a6.739,6.739,0,0,0-.9-1.5,2.665,2.665,0,0,1,1.125,1.608l.507.293s-.338-.742-.458-.947-.073-.252-.073-.252a2.773,2.773,0,0,1,.746,1.317A6.877,6.877,0,0,0,1786.716,1267.164Z" transform="translate(-991.367 -516.69)" fill="#ffc000" opacity="0.1" style="isolation: isolate"/>
    <path id="Tracé_358" data-name="Tracé 358" d="M2031.355,966.721s-3.286-5.545-6.6-2.39a1.1,1.1,0,0,0-.639,1.123s.282-.179.553.421a2.917,2.917,0,0,0,.364.6,1.436,1.436,0,0,0,.771.507h0s1.632,1.079,4.475,0c0,0,.825.069.95-.041l-.993-.639a1.944,1.944,0,0,1-1.143.869s1.145-.817,1-.971c-.031-.032-.541-.316-.541-.316a3.214,3.214,0,0,1-1.86,1.451s1.495-.791,1.669-1.559l-.8-.375a3.372,3.372,0,0,1-1.985,1.634s1.534-.881,1.8-1.7l-.835-.271s-.758,1.353-1.786,1.539c0,0,1.667-1.2,1.59-1.588a4.178,4.178,0,0,0-1.015-.156s-.567.962-1.174,1.015c0,0,1.03-.917.952-1.045a4.552,4.552,0,0,0-1.639.3,3.3,3.3,0,0,1,1.629-.474,1.818,1.818,0,0,0-.915-.5s.583-.282,1.184.5a4.28,4.28,0,0,1,.959.115,4.045,4.045,0,0,0-1.026-1.194s.792.091,1.25,1.258l.845.254a5.621,5.621,0,0,0-1.04-1.5s.795.218,1.248,1.583l.786.367a6.8,6.8,0,0,0-.845-1.522,2.675,2.675,0,0,1,1.075,1.642l.5.308s-.318-.752-.429-.96-.064-.254-.064-.254a2.778,2.778,0,0,1,.705,1.339A6.547,6.547,0,0,0,2031.355,966.721Z" transform="translate(-1213.3 -244.052)" fill="#ffc000"/>
    <path id="Tracé_359" data-name="Tracé 359" d="M1825.264,1070.081s.169-6.443-4.307-5.535a1.1,1.1,0,0,0-1.14.61s.338,0,.244.651a2.965,2.965,0,0,0-.01.7,1.446,1.446,0,0,0,.38.846h0s.807,1.782,3.785,2.388c0,0,.661.5.827.472l-.507-1.069a1.952,1.952,0,0,1-1.431.127s1.4-.083,1.365-.289c0-.042-.291-.556-.291-.556a3.2,3.2,0,0,1-2.349.235s1.691.127,2.244-.429l-.472-.749a3.378,3.378,0,0,1-2.55.325,4.806,4.806,0,0,0,2.437-.482l-.563-.677a3.3,3.3,0,0,1-2.332.352s2.05-.123,2.2-.5a4.377,4.377,0,0,0-.778-.677s-.991.507-1.532.233c0,0,1.353-.227,1.361-.377a4.537,4.537,0,0,0-1.549-.615,3.291,3.291,0,0,1,1.632.467,1.818,1.818,0,0,0-.507-.908s.644.073.732,1.048a4.207,4.207,0,0,1,.751.609,3.954,3.954,0,0,0-.233-1.557,1.754,1.754,0,0,1,.389,1.73l.58.667a5.667,5.667,0,0,0-.079-1.825,2.224,2.224,0,0,1,.213,2l.469.729a6.747,6.747,0,0,0,.093-1.749,2.684,2.684,0,0,1,.034,1.963l.257.524s.13-.807.147-1.042.081-.25.081-.25a2.776,2.776,0,0,1-.117,1.51A6.428,6.428,0,0,0,1825.264,1070.081Z" transform="translate(-1027.997 -335.752)" fill="#ffc000"/>
    <ellipse id="Ellipse_43" data-name="Ellipse 43" cx="4.554" cy="0.769" rx="4.554" ry="0.769" transform="translate(800.113 814.659)" fill="#ffc000" opacity="0.1" style="isolation: isolate"/>
    <ellipse id="Ellipse_44" data-name="Ellipse 44" cx="4.554" cy="0.769" rx="4.554" ry="0.769" transform="translate(783.511 826.341)" fill="#ffc000" opacity="0.1" style="isolation: isolate"/>
    <ellipse id="Ellipse_45" data-name="Ellipse 45" cx="4.554" cy="0.769" rx="4.554" ry="0.769" transform="translate(697.662 820.356)" fill="#bcbcbc" opacity="0.1" style="isolation: isolate"/>
    <ellipse id="Ellipse_46" data-name="Ellipse 46" cx="4.554" cy="0.769" rx="4.554" ry="0.769" transform="translate(818.054 825.572)" fill="#ffc000" opacity="0.1" style="isolation: isolate"/>
    <ellipse id="Ellipse_47" data-name="Ellipse 47" cx="6.8" cy="1.15" rx="6.8" ry="1.15" transform="translate(820.55 815.429)" fill="#ffc000"/>
    <path id="Tracé_360" data-name="Tracé 360" d="M2170.977,1958.05a1.962,1.962,0,0,0,.648-.978.869.869,0,0,0-.451-1,1.277,1.277,0,0,0-1.2.419,1.607,1.607,0,0,1-1.164.563,1.777,1.777,0,0,0,.548-1.659.7.7,0,0,0-.152-.338c-.232-.247-.649-.14-.927.054a3.452,3.452,0,0,0-1.13,2.888,5.419,5.419,0,0,1-.015-1.184,1.214,1.214,0,0,0-.448-1.052,1.337,1.337,0,0,0-.677-.169,1.413,1.413,0,0,0-1.106.315,1.09,1.09,0,0,0,.042,1.353,4.373,4.373,0,0,0,1.145.917,2.557,2.557,0,0,1,.818.78.793.793,0,0,1,.059.139h2.479A6.84,6.84,0,0,0,2170.977,1958.05Z" transform="translate(-1340.808 -1143.435)" fill="#ffc000"/>
    <path id="Tracé_361" data-name="Tracé 361" d="M823.019,2006.484s2.6-.079,3.382-.638,4-1.223,4.19-.328,3.9,4.446.971,4.469-6.813-.457-7.595-.933S823.019,2006.484,823.019,2006.484Z" transform="translate(-123.861 -1188.935)" fill="#a8a8a8"/>
    <path id="Tracé_362" data-name="Tracé 362" d="M831.611,2023.131c-2.932.024-6.813-.457-7.595-.933-.6-.362-.832-1.662-.911-2.263h-.086s.169,2.1.945,2.571,4.662.957,7.595.934c.846,0,1.138-.308,1.123-.754C832.563,2022.957,832.24,2023.126,831.611,2023.131Z" transform="translate(-123.861 -1202.408)" opacity="0.2" style="isolation: isolate"/>
  </g>
</svg>
