<svg xmlns="http://www.w3.org/2000/svg" width="28" height="28" viewBox="0 0 28 28">
  <g id="Groupe_81" data-name="Groupe 81" transform="translate(-121 -594)">
    <circle id="Ellipse_54" data-name="Ellipse 54" cx="14" cy="14" r="14" transform="translate(121 594)" fill="green" opacity="0.09"/>
    <path id="invoice" d="M9.276,11.259H5.307a.661.661,0,0,0,0,1.323H9.276a.661.661,0,0,0,0-1.323ZM6.63,7.29H7.953a.661.661,0,0,0,0-1.323H6.63a.661.661,0,0,0,0,1.323Zm7.938,1.323H12.583V2.66a.661.661,0,0,0-.992-.575L9.607,3.222,7.622,2.085a.661.661,0,0,0-.661,0L4.977,3.222,2.992,2.085A.661.661,0,0,0,2,2.66V13.244a1.984,1.984,0,0,0,1.984,1.984h9.261a1.984,1.984,0,0,0,1.984-1.984V9.275A.661.661,0,0,0,14.568,8.613ZM3.984,13.905a.661.661,0,0,1-.661-.661V3.8l1.323.754a.714.714,0,0,0,.661,0L7.292,3.421,9.276,4.559a.714.714,0,0,0,.661,0L11.261,3.8v9.439a1.984,1.984,0,0,0,.119.661Zm9.922-.661a.661.661,0,1,1-1.323,0V9.936h1.323Zm-4.63-4.63H5.307a.661.661,0,0,0,0,1.323H9.276a.661.661,0,0,0,0-1.323Z" transform="translate(127.205 599.388)" fill="#008100"/>
  </g>
</svg>
