<svg xmlns="http://www.w3.org/2000/svg" width="28" height="28" viewBox="0 0 28 28">
  <g id="Groupe_56" data-name="Groupe 56" transform="translate(-52 -340)">
    <circle id="Ellipse_41" data-name="Ellipse 41" cx="14" cy="14" r="14" transform="translate(52 340)" fill="green" opacity="0.09"/>
    <path id="file-info-alt" d="M11.029,10.946H7.195a.639.639,0,0,0,0,1.278h3.834a.639.639,0,0,0,0-1.278ZM7.195,7.112h.639a.639.639,0,1,0,0-1.278H7.195a.639.639,0,0,0,0,1.278ZM11.029,8.39H7.195a.639.639,0,0,0,0,1.278h3.834a.639.639,0,0,0,0-1.278Zm3.01,2.1a.639.639,0,0,0-.211-.134.588.588,0,0,0-.486,0,.639.639,0,0,0-.211.134A.735.735,0,0,0,13,10.7a.633.633,0,0,0,.831.831.735.735,0,0,0,.211-.134.639.639,0,0,0,.134-.7.735.735,0,0,0-.134-.211Zm.185-4.057a.837.837,0,0,0-.038-.173V6.2a.684.684,0,0,0-.121-.179h0L10.23,2.192h0a.684.684,0,0,0-.179-.121.2.2,0,0,0-.058,0A.562.562,0,0,0,9.783,2H5.917A1.917,1.917,0,0,0,4,3.917v8.946A1.917,1.917,0,0,0,5.917,14.78h5.112a.639.639,0,1,0,0-1.278H5.917a.639.639,0,0,1-.639-.639V3.917a.639.639,0,0,1,.639-.639H9.112V5.195a1.917,1.917,0,0,0,1.917,1.917h1.917V8.39a.639.639,0,0,0,1.278,0V6.434Zm-3.195-.6a.639.639,0,0,1-.639-.639V4.179l1.655,1.655Zm2.556,6.39a.639.639,0,0,0-.639.639v1.278a.639.639,0,0,0,1.278,0V12.863A.639.639,0,0,0,13.585,12.224Z" transform="translate(56.888 345.61)" fill="#008100"/>
  </g>
</svg>
