<svg xmlns="http://www.w3.org/2000/svg" width="18.172" height="17.263" viewBox="0 0 18.172 17.263">
  <path id="folder_1_" data-name="folder (1)" d="M17.446,5.226H11.74l-.291-.909A2.726,2.726,0,0,0,8.869,2.5H4.726A2.726,2.726,0,0,0,2,5.226V17.038a2.726,2.726,0,0,0,2.726,2.726h12.72a2.726,2.726,0,0,0,2.726-2.726V7.952A2.726,2.726,0,0,0,17.446,5.226Zm.909,11.812a.909.909,0,0,1-.909.909H4.726a.909.909,0,0,1-.909-.909V5.226a.909.909,0,0,1,.909-.909H8.869a.909.909,0,0,1,.863.618l.491,1.49a.909.909,0,0,0,.863.618h6.36a.909.909,0,0,1,.909.909Z" transform="translate(-2 -2.5)" fill="#a0a0a0"/>
</svg>
