<svg xmlns="http://www.w3.org/2000/svg" width="17.979" height="20" viewBox="0 0 17.979 20">
  <path id="estate_2_" data-name="estate (2)" d="M19.98,7.993h0L13.987,2.739a3,3,0,0,0-4,0L4,7.993A3,3,0,0,0,3,10.25v8.73a3,3,0,0,0,3,3H17.982a3,3,0,0,0,3-3V10.24A3,3,0,0,0,19.98,7.993ZM13.987,19.978h-4V14.984a1,1,0,0,1,1-1h2a1,1,0,0,1,1,1Zm4.994-1a1,1,0,0,1-1,1h-2V14.984a3,3,0,0,0-3-3h-2a3,3,0,0,0-3,3v4.994H6a1,1,0,0,1-1-1V10.24a1,1,0,0,1,.34-.749L11.33,4.247a1,1,0,0,1,1.318,0l5.993,5.244a1,1,0,0,1,.34.749Z" transform="translate(-3 -1.976)" fill="#a0a0a0"/>
</svg>
