<svg xmlns="http://www.w3.org/2000/svg" width="94.763" height="85.832" viewBox="0 0 94.763 85.832">
  <g id="Logo_RF" transform="translate(-16.792 -15.134)">
    <g id="Calque_1" data-name="Calque 1" transform="translate(16.792 15.134)">
      <path id="Devise_Républicaine" data-name="Devise Républicaine" d="M68.5,160.7c.267,0,.535.267.428.856l-1.444.321c.214-.642.642-1.177,1.016-1.177m.749,2.353h-.267c-.374.374-.749.749-1.123.749s-.588-.267-.588-.749a2.406,2.406,0,0,1,.053-.642l2.3-.749c.481-1.07-.053-1.551-.7-1.551s-2.353,1.818-2.353,3.423c0,.7.374,1.123.856,1.123s1.283-.642,1.818-1.6m-.428-3.369,1.6-1.5v-.214h-.856l-1.016,1.711Zm-4.973,1.07H64.6l-1.23,3.316a.428.428,0,0,0,.321.588A2.941,2.941,0,0,0,65.933,163h-.267a2.46,2.46,0,0,1-1.39.856l1.123-3.1h1.123l.16-.481H65.558l.428-1.176h-.428l-.8,1.176-.909.107Zm-1.07-.16c.107-.321-.107-.481-.267-.481a2.139,2.139,0,0,0-1.765,1.444h.214a1.6,1.6,0,0,1,.909-.7l-1.283,3.316a.374.374,0,0,0,.321.481,2.188,2.188,0,0,0,1.658-1.444H62.35a1.925,1.925,0,0,1-.909.7Zm.267-1.658a.562.562,0,1,0-.588-.588.588.588,0,0,0,.588.588m-7.38,5.08a.428.428,0,0,0,.374.642c.267,0,.321-.053.428-.321l.909-2.353a3.1,3.1,0,0,1,1.551-1.016c.267,0,.214.214.053.481l-1.337,2.62a.374.374,0,0,0,.321.588,2.193,2.193,0,0,0,1.765-1.444h-.214a1.925,1.925,0,0,1-.909.7l1.177-2.353a1.818,1.818,0,0,0,.214-.8.588.588,0,0,0-.642-.642c-.535,0-1.123.642-1.818,1.444v-.642c0-.428-.16-.8-.535-.8a1.016,1.016,0,0,0-.749.535h0c.428,0,.642.642.321,1.337Zm0-2.888c.16-.535.053-1.016-.321-1.016s-.642.374-1.123,1.444v-.642c0-.428-.16-.8-.535-.8s-.909.7-1.23,1.444h.214c.214-.321.428-.535.588-.535s.321.321,0,1.016l-.909,1.979a.428.428,0,0,0,.374.642c.267,0,.321-.053.428-.321l.909-2.353a5.724,5.724,0,0,1,.749-.856Zm-5.134-.428c.321,0,.588.267.481.856l-1.444.321c.214-.642.642-1.177.963-1.177m.8,2.353h-.267c-.374.374-.749.749-1.123.749s-.588-.267-.588-.749a2.407,2.407,0,0,1,.053-.642l2.3-.749c.481-1.07-.053-1.551-.7-1.551s-2.353,1.818-2.353,3.423c0,.7.321,1.123.856,1.123s1.283-.642,1.818-1.6m-5.4-2.3h.749l-1.23,3.316a.428.428,0,0,0,.321.588A2.781,2.781,0,0,0,47.964,163H47.75a2.46,2.46,0,0,1-1.39.856l1.123-3.1h1.123l.16-.481H47.643l.428-1.177h-.428l-.8,1.177-.909.107Zm-4.225,2.567c0-1.016,1.123-2.407,1.765-2.407h.374l-.642,1.765c-.374.481-.963,1.07-1.23,1.07s-.267-.16-.267-.481m3.476-3.423h-.321l-.374.374h-.107c-1.925,0-3.53,2.139-3.53,3.69a.642.642,0,0,0,.7.7c.481,0,.963-.7,1.5-1.444v.214c-.053.8.214,1.23.588,1.23s.909-.749,1.23-1.444h-.214c-.214.321-.428.481-.588.481s-.321-.321,0-.963Zm-4.011,1.23c.16-.535.053-1.016-.374-1.016s-.588.374-1.123,1.444v-.642c0-.428-.107-.8-.535-.8s-.856.7-1.177,1.444h.214c.214-.321.428-.535.588-.535s.321.321,0,1.016l-.909,1.979c-.16.374,0,.642.374.642s.321-.053.428-.321l.856-2.353a6.1,6.1,0,0,1,.8-.856Zm-6.417,3.316.107-.214c-1.123-.214-1.23-.214-.8-1.444l.428-1.177h1.23c.535,0,.588.214.481.8h.321l.749-1.979h-.321c-.267.481-.481.8-1.123.8H34.648l.642-1.765c.16-.535.321-.642,1.07-.642h.535c.749,0,.856.214.856.963h.321l.214-1.337h-4.6v.267c.909.16.963.267.535,1.39l-.963,2.727c-.428,1.177-.588,1.23-1.658,1.444v.214Zm22.568-14.065c.321,0,.588.214.428.8l-1.444.321c.267-.642.7-1.123,1.016-1.123m.8,2.3H57.8a1.551,1.551,0,0,1-1.123.749c-.374,0-.588-.214-.588-.749a2.674,2.674,0,0,1,.107-.642l2.3-.749c.428-1.07-.107-1.551-.749-1.551s-2.3,1.818-2.3,3.423c0,.749.321,1.123.856,1.123s1.283-.588,1.818-1.6m-.481-3.369,1.658-1.5v-.16h-.909l-1.016,1.658Zm-4.973,1.07h.749l-1.177,3.316c-.107.321,0,.588.321.588a2.834,2.834,0,0,0,2.193-1.6h-.214a3.369,3.369,0,0,1-1.39.856l1.07-3.155H55.4l.107-.481h-1.07l.428-1.177h-.481l-.749,1.177-.963.16Zm-1.016-.16c.053-.321-.107-.481-.267-.481a2.139,2.139,0,0,0-1.818,1.444h.214a1.551,1.551,0,0,1,.963-.7l-1.283,3.316c-.107.321.107.481.267.481a2.086,2.086,0,0,0,1.711-1.444h-.214a1.551,1.551,0,0,1-.963.7Zm.214-1.658a.481.481,0,0,0,.535-.535.535.535,0,0,0-1.07,0,.481.481,0,0,0,.535.535m-4.439,4.973,2.353-6.1h-.107l-1.444.16v.16l.267.214c.267.214.214.374-.053,1.016l-1.818,4.76a.428.428,0,0,0,.321.588,2.032,2.032,0,0,0,1.711-1.444h-.214a1.658,1.658,0,0,1-1.016.7M43.044,153c0-1.07,1.123-2.46,1.765-2.46h.374l-.642,1.818c-.374.428-.963,1.016-1.283,1.016s-.214-.16-.214-.428m3.476-3.423H46.2l-.428.374h-.053c-1.925,0-3.53,2.139-3.53,3.69a.642.642,0,0,0,.642.7c.535,0,1.016-.7,1.551-1.444v.267c-.053.749.16,1.176.588,1.176s.856-.749,1.23-1.444h-.214c-.267.321-.481.535-.642.535s-.267-.321,0-1.016Zm-8.449,5.508c0-.428.428-.7,1.016-.963l.909.321c.642.214.856.321.856.535s-.7.7-1.6.7-1.177-.16-1.177-.588m1.711-2.674c-.267,0-.374-.267-.374-.535S39.782,150,40.424,150s.374.214.374.481-.374,1.872-1.016,1.872M41.6,154.6c0-.535-.481-.7-1.283-.963s-.963-.214-.963-.428a.588.588,0,0,1,.428-.535A1.979,1.979,0,0,0,41.6,150.8a1.284,1.284,0,0,0-.107-.481H42.4l.16-.481H41.119l-.588-.16a1.925,1.925,0,0,0-1.925,1.872,1.016,1.016,0,0,0,.856,1.07c-.535.267-.8.535-.8.856a.588.588,0,0,0,.214.481c-1.23.374-1.765.749-1.765,1.337s.749.856,1.658.856S41.6,155.3,41.6,154.6m-5.829-3.53c.535,0,.535.214.481.8h.321l.7-1.979h-.321c-.267.428-.481.8-1.07.8h-1.23l.642-1.658c.16-.588.321-.7,1.07-.7h.535c.749,0,.856.214.856,1.016h.321l.214-1.39h-4.6v.267c.909.16.963.267.535,1.39l-.963,2.727c-.428,1.176-.588,1.283-1.658,1.444v.267h5.027l.909-1.444h-.374a3.369,3.369,0,0,1-2.353,1.07c-1.337,0-1.23-.053-.749-1.337l.481-1.283Zm.642-3.53,1.658-1.07v-.214H37.055l-.909,1.283Zm20.375-7.647c.321,0,.588.214.428.8l-1.444.374c.267-.7.7-1.176,1.016-1.176m.8,2.3h-.321a1.6,1.6,0,0,1-1.123.749c-.374,0-.588-.214-.588-.749a4.474,4.474,0,0,1,.053-.642l2.353-.749c.428-1.07-.107-1.551-.749-1.551s-2.353,1.872-2.353,3.423.374,1.123.909,1.123,1.283-.588,1.818-1.6m-.481-3.369,1.6-1.5v-.16h-.856l-1.016,1.658Zm-4.76,1.07h.588l-1.23,3.369a.374.374,0,0,0,.374.535,2.888,2.888,0,0,0,2.193-1.6h-.214a3.262,3.262,0,0,1-1.444.856l1.123-3.155h1.177l.107-.428h-1.07l.374-1.23H53.9l-.8,1.23-.749.107Zm-.588.374c.16-.535.053-1.016-.374-1.016s-.588.374-1.123,1.5v-.642c0-.428-.107-.856-.535-.856S48.82,140,48.5,140.7h.214q.374-.481.642-.481c.16,0,.267.267,0,.963l-.909,2.032c-.16.374,0,.588.374.588a.374.374,0,0,0,.428-.267l.856-2.353.749-.909Zm-5.134-.374c.321,0,.588.214.428.8l-1.444.374c.267-.7.7-1.176,1.016-1.176m.8,2.3h-.321a1.551,1.551,0,0,1-1.123.749c-.374,0-.588-.214-.588-.749a2.673,2.673,0,0,1,.107-.642l2.3-.749c.428-1.07-.107-1.551-.749-1.551s-2.3,1.872-2.3,3.423.321,1.123.856,1.123,1.283-.588,1.818-1.6m-5.669.963c-.214,0-.535-.214-.535-.428s.107-.321.214-.642l.374-.963c.374-.481,1.016-1.016,1.337-1.016s.374.16.374.481-.856,2.567-1.765,2.567m2.62-2.941c0-.7-.267-.963-.7-.963s-1.177.642-1.711,1.39l1.39-3.637V136.9l-1.5.16v.16l.321.214c.267.214.16.428-.053,1.016l-1.551,3.85a6.955,6.955,0,0,0-.267.749c0,.374.535.749,1.016.749s3.048-2.032,3.048-3.583m-4.546-.481a.321.321,0,0,0-.267-.481A2.246,2.246,0,0,0,37.8,140.7h.214a1.925,1.925,0,0,1,.909-.7l-1.283,3.316a.374.374,0,0,0,.321.481,2.086,2.086,0,0,0,1.658-1.444h-.214a1.6,1.6,0,0,1-.909.7Zm.267-1.658a.535.535,0,1,0-.535-.535.535.535,0,0,0,.535.535m-3.369-.535H33.686v.267c.856.214.963.267.535,1.444l-.963,2.727c-.428,1.123-.588,1.23-1.658,1.39v.267h4.492l1.016-1.765h-.374a3.226,3.226,0,0,1-2.246,1.39c-1.016,0-.856-.107-.428-1.283l.963-2.727c.428-1.177.588-1.23,1.6-1.444Z" transform="translate(-31.493 -78.823)"/>
      <path id="Tracé_98" data-name="Tracé 98" d="M31.4,81.908V70.892h3.369a4.332,4.332,0,0,1,2.888.856,3,3,0,0,1,1.07,2.407,3.209,3.209,0,0,1-.481,1.765,3.262,3.262,0,0,1-1.283,1.123l3.423,4.866H37.71l-2.941-4.439H33.646v4.439Zm3.476-9.145h-1.23v2.781h1.23A1.5,1.5,0,0,0,36,75.17a1.283,1.283,0,0,0,.428-1.016A1.39,1.39,0,0,0,36,73.138,1.765,1.765,0,0,0,34.876,72.763Z" transform="translate(-31.4 -48.11)"/>
      <path id="Tracé_99" data-name="Tracé 99" d="M50.8,79.218V68.2h6.471v1.872H53.046V72.64h3.583v1.925H53.046v2.727h4.225v1.925Zm4.225-11.979H52.993L54.757,65.1H57.11Z" transform="translate(-40.425 -45.42)"/>
      <path id="Tracé_100" data-name="Tracé 100" d="M67.7,81.91V70.893h3.69a4.278,4.278,0,0,1,2.834.856,3.262,3.262,0,0,1,0,4.813,4.278,4.278,0,0,1-2.834.909H69.946V81.91Zm3.743-9.145h-1.5v2.781h1.5a1.5,1.5,0,0,0,1.123-.374,1.283,1.283,0,0,0,.428-1.016,1.39,1.39,0,0,0-.428-1.016A1.765,1.765,0,0,0,71.443,72.765Z" transform="translate(-48.288 -48.112)"/>
      <path id="Tracé_101" data-name="Tracé 101" d="M91.678,77.8V70.9h2.246v6.685a4.813,4.813,0,0,1-1.23,3.423,4.92,4.92,0,0,1-6.524,0,4.759,4.759,0,0,1-1.177-3.423V70.9h2.246v6.9a2.246,2.246,0,0,0,.588,1.711,2.086,2.086,0,0,0,1.6.642,2.193,2.193,0,0,0,1.658-.642A2.46,2.46,0,0,0,91.678,77.8Z" transform="translate(-56.329 -48.118)"/>
      <path id="Tracé_102" data-name="Tracé 102" d="M106.9,81.91V70.894h3.155a4.064,4.064,0,0,1,2.674.8,2.674,2.674,0,0,1,1.016,2.193,2.46,2.46,0,0,1-.321,1.23,2.353,2.353,0,0,1-.856.909,3.1,3.1,0,0,1,1.337,1.123,2.513,2.513,0,0,1,.481,1.5,2.888,2.888,0,0,1-1.123,2.407,4.653,4.653,0,0,1-2.995.856Zm3.155-9.145h-.909v2.46h.909a1.551,1.551,0,0,0,1.016-.321,1.283,1.283,0,0,0,0-1.818A1.551,1.551,0,0,0,110.055,72.766Zm.321,4.385h-1.23v2.834h1.23a1.711,1.711,0,0,0,1.23-.374,1.283,1.283,0,0,0,.481-1.07,1.337,1.337,0,0,0-.481-1.07A1.979,1.979,0,0,0,110.376,77.151Z" transform="translate(-66.524 -48.112)"/>
      <path id="Tracé_103" data-name="Tracé 103" d="M125.1,81.916V70.9h2.246v8.984h4.225v2.032Z" transform="translate(-74.991 -48.118)"/>
      <path id="Tracé_104" data-name="Tracé 104" d="M140.9,81.916V70.9h2.246V81.916Z" transform="translate(-82.342 -48.118)"/>
      <path id="Tracé_105" data-name="Tracé 105" d="M159.314,81.323a3.851,3.851,0,0,0,1.176.8,2.888,2.888,0,0,0,1.123.267h.374l.428-.107v1.925l-.535.16h-.642A4.706,4.706,0,0,1,159.475,84a6.738,6.738,0,0,1-1.711-1.123l-1.283-1.123-.749.107h-.8a5.615,5.615,0,0,1-2.353-.481,6.685,6.685,0,0,1-1.872-1.23,6.087,6.087,0,0,1,0-8.236,5.722,5.722,0,0,1,1.872-1.23,5.615,5.615,0,0,1,2.353-.481,5.883,5.883,0,0,1,2.407.481,6.311,6.311,0,0,1,1.872,1.23,6.016,6.016,0,0,1,1.016,6.685,5.455,5.455,0,0,1-1.6,2.032Zm-4.385-1.5a3.85,3.85,0,0,0,2.567-1.07,5.454,5.454,0,0,0,.749-1.176,4.332,4.332,0,0,0,0-2.995,4.439,4.439,0,0,0-.749-1.177,4.278,4.278,0,0,0-1.123-.8,4.064,4.064,0,0,0-1.444-.267,4.011,4.011,0,0,0-1.39.267,3.048,3.048,0,0,0-1.123.8,3.423,3.423,0,0,0-.749,1.177,4.332,4.332,0,0,0,0,2.995,3.958,3.958,0,0,0,.749,1.177,2.46,2.46,0,0,0,1.123.749A3.1,3.1,0,0,0,154.929,79.826Z" transform="translate(-86.157 -47.792)"/>
      <path id="Tracé_106" data-name="Tracé 106" d="M181.334,77.8V70.9h2.246v6.685a4.813,4.813,0,0,1-1.23,3.423,4.92,4.92,0,0,1-6.524,0,4.813,4.813,0,0,1-1.23-3.423V70.9h2.246v6.9a2.246,2.246,0,0,0,.642,1.711,2.032,2.032,0,0,0,1.6.642,2.193,2.193,0,0,0,1.658-.642A2.46,2.46,0,0,0,181.334,77.8Z" transform="translate(-98.016 -48.118)"/>
      <path id="Tracé_107" data-name="Tracé 107" d="M196.6,81.916V70.9h6.417v1.872h-4.171v2.567h3.53v1.925h-3.53v2.727h4.171v1.925Z" transform="translate(-108.255 -48.118)"/>
      <path id="Tracé_108" data-name="Tracé 108" d="M31.4,113.116V102.1h6.417v1.872H33.646v2.567h3.583v1.925H33.646v4.653Z" transform="translate(-31.4 -62.633)"/>
      <path id="Tracé_109" data-name="Tracé 109" d="M47.1,113.108V102.092h3.369a4.332,4.332,0,0,1,2.888.856,3,3,0,0,1,1.07,2.407,3.209,3.209,0,0,1-.481,1.765,3.262,3.262,0,0,1-1.283,1.123l3.476,4.866H53.464l-2.941-4.439H49.346v4.439Zm3.53-9.145H49.346v2.781H50.63a1.39,1.39,0,0,0,1.07-.374,1.283,1.283,0,0,0,.428-1.016,1.39,1.39,0,0,0-.428-1.016A1.6,1.6,0,0,0,50.63,103.963Z" transform="translate(-38.704 -62.625)"/>
      <path id="Tracé_110" data-name="Tracé 110" d="M64.9,113.116,69.071,102.1h2.941l4.171,11.016H73.777l-1.07-2.888H68.323l-1.07,2.888Zm4.118-4.76h2.995l-1.5-4.171Z" transform="translate(-46.985 -62.633)"/>
      <path id="Tracé_111" data-name="Tracé 111" d="M89.2,113.116V102.1h2.834l4.973,7.861V102.1h2.246v11.016H96.366L91.393,105.2v7.915Z" transform="translate(-58.29 -62.633)"/>
      <path id="Tracé_112" data-name="Tracé 112" d="M117.829,111.072a3.53,3.53,0,0,0,1.711-.428,3.743,3.743,0,0,0,1.177-1.07l1.765,1.337a4.653,4.653,0,0,1-1.6,1.444,5.669,5.669,0,0,1-2.139.749l-1.39,2.3h-1.979l1.39-2.353a5.776,5.776,0,0,1-1.979-.7,7.005,7.005,0,0,1-1.5-1.283,5.669,5.669,0,0,1-.963-1.765,6.15,6.15,0,0,1-.321-1.979,6.043,6.043,0,0,1,1.6-4.118,5.722,5.722,0,0,1,1.872-1.23,5.615,5.615,0,0,1,2.353-.481,6.364,6.364,0,0,1,2.727.588,5.294,5.294,0,0,1,1.925,1.658l-1.765,1.337a3.743,3.743,0,0,0-1.176-1.07,3.53,3.53,0,0,0-1.711-.428,4.011,4.011,0,0,0-1.39.267,3.8,3.8,0,0,0-1.177.8,4.278,4.278,0,0,0-.7,1.177,4.332,4.332,0,0,0,0,2.995,5.24,5.24,0,0,0,.7,1.177,2.941,2.941,0,0,0,1.177.749A3.1,3.1,0,0,0,117.829,111.072Z" transform="translate(-68.897 -62.354)"/>
      <path id="Tracé_113" data-name="Tracé 113" d="M132.5,113.116l4.171-11.016h2.941l4.171,11.016h-2.353l-1.07-2.888h-4.385l-1.07,2.888Zm4.171-4.76h2.995l-1.5-4.171Z" transform="translate(-78.434 -62.633)"/>
      <path id="Tracé_114" data-name="Tracé 114" d="M156.8,113.116V102.1h2.246v11.016Z" transform="translate(-89.739 -62.633)"/>
      <path id="Tracé_115" data-name="Tracé 115" d="M164.9,111.336l1.658-1.5a3.85,3.85,0,0,0,1.123.963,2.407,2.407,0,0,0,1.337.374,1.551,1.551,0,0,0,1.016-.321,1.272,1.272,0,0,0-.428-2.086l-1.711-.856a7.594,7.594,0,0,1-1.765-1.123,2.834,2.834,0,0,1-.749-2.086,2.46,2.46,0,0,1,.267-1.23,2.834,2.834,0,0,1,.7-1.07,3.85,3.85,0,0,1,1.123-.642,3.155,3.155,0,0,1,1.444-.267,4.867,4.867,0,0,1,2.193.481,5.883,5.883,0,0,1,1.658,1.39l-1.658,1.444a4.546,4.546,0,0,0-1.016-1.016,2.353,2.353,0,0,0-1.176-.374,1.123,1.123,0,0,0-.909.374.963.963,0,0,0-.374.8,1.23,1.23,0,0,0,.8,1.123l1.711.856a6.363,6.363,0,0,1,1.765,1.177,2.674,2.674,0,0,1,.8,2.086,5.3,5.3,0,0,1-.321,1.39,4.011,4.011,0,0,1-.8,1.07,3.851,3.851,0,0,1-1.123.642,4.278,4.278,0,0,1-1.444.214,5.294,5.294,0,0,1-2.353-.481,5.508,5.508,0,0,1-1.765-1.337Z" transform="translate(-93.507 -62.351)"/>
      <path id="Tracé_116" data-name="Tracé 116" d="M183.9,113.116V102.1h6.417v1.872h-4.225v2.567h3.583v1.925h-3.583v2.727h4.225v1.925Z" transform="translate(-102.346 -62.633)"/>
      <g id="Marianne">
        <path id="Fond" d="M55.924,41.669l.481-.481h0a8.181,8.181,0,0,1,.963-.963l.321-.267a.16.16,0,0,0,.053-.107l-.374.214s-.053,0,0-.053l.267-.214h-.053a1.07,1.07,0,0,0-.909.428h-.107c-.428.16-.749.535-1.177.7h0l-.535.214a3,3,0,0,1-.7,0l-1.07.214h0l-.535.214H52.5a.053.053,0,0,1-.053.053l-.16.16a3.8,3.8,0,0,0-.481.374h-.053l-.481.481h-.053c.053,0,.053-.053.107-.107a.16.16,0,0,1,.053-.107.428.428,0,0,0,.107-.214h0l.481-.321h0a.053.053,0,0,1-.053-.053h-.107c-.053.107-.107.214-.214.214h0a.053.053,0,0,1,.053-.053h0l.214-.16h0l.321-.214h.053l-.481.214H51.7s0,.053-.053,0h0l.16-.16h.053c.909-.7,2.193-.535,3.262-.909l.267-.16c.107-.053.214-.214.428-.267a1.6,1.6,0,0,0,.481-.7h-.053a4.064,4.064,0,0,1-1.23.267,4.867,4.867,0,0,1-1.925.321h.16c0-.053.053-.107.107-.16h.107a.053.053,0,0,1,.053-.053h.107c-.107-.107-.267.107-.428,0s.053-.107.107-.16h.107a.16.16,0,0,1,.053-.107c.428-.267.856-.428,1.23-.7s-.107.107-.214.053,0-.107.053-.107a6.525,6.525,0,0,0,.909-.374c-.107,0-.214.107-.321,0h.16v-.107a.053.053,0,0,1,.053-.053h-.053l.16-.107h-.053a.428.428,0,0,1,.374-.16c-.053-.053-.16,0-.16-.053s.053-.053.107-.053H55.6a.053.053,0,0,1,0-.107,3.69,3.69,0,0,0,.267-.7h-.053a3.048,3.048,0,0,1-1.177.588h-.16A.535.535,0,0,1,54,37.819l-.267-.214-.749-.374A7.487,7.487,0,0,0,50.79,36.7a5.616,5.616,0,0,1,1.016-.267,3.316,3.316,0,0,1,1.444-.267c-.107-.053-.214,0-.267,0a3.262,3.262,0,0,0-1.23.16l-.856.214c-.16.053-.267.267-.428.214v-.107a1.658,1.658,0,0,1,1.07-.7,4.652,4.652,0,0,1,1.5.053l1.123.214c.107,0,.16.214.267.267s.321,0,.535.107-.053-.107,0-.16.214,0,.374-.053-.214-.374-.321-.588h0a3.423,3.423,0,0,0,.7.535c.16.107.481.16.428,0a5.08,5.08,0,0,0-.642-.856v-.107h-.107v-.267c-.107-.053-.053-.16-.16-.214s0-.374-.053-.535a1.551,1.551,0,0,1-.107-.481,12.728,12.728,0,0,1-.267-1.39c-.053-.535.321-.963.588-1.444a1.872,1.872,0,0,1,.8-.909,1.979,1.979,0,0,1,.535-.909,1.765,1.765,0,0,1,.856-.588l.8-.321h5.722l.107.107.428.214a1.444,1.444,0,0,1,.535.428c.053.107.16.267.107.374s-.107.374-.214.428a1.337,1.337,0,0,1-.642.107l-.321-.107a2.407,2.407,0,0,1,1.123.8l.267.107h0c-.053.053-.107.107-.053.16H65.5c.16-.053.107-.321.321-.214a.267.267,0,0,1,.107.428L65.6,31.4a.16.16,0,0,0,0,.214l.16.321.16.642a3.583,3.583,0,0,1,.214,1.283c0,.214-.107.428-.053.642a7.168,7.168,0,0,0,.321.642,1.123,1.123,0,0,1,.321.428c.16.267.481.588.374.909s-.428.16-.642.321,0,.374.107.481-.214.428-.374.535.16.053.16.107.214.214.107.374-.481.267-.267.535,0,.428-.053.588a.7.7,0,0,1-.535.428.642.642,0,0,1-.535.053h-.16a13.422,13.422,0,0,0-1.444-.214l-.428.107-.321.321h-.16l-.214.321h0c0,.053,0,.053-.053.053l-.214.535c-.16.642-.107,1.23.053,1.337s.963.321,1.551.642l.7.321H52.608a20.108,20.108,0,0,1,1.872-.963,4.92,4.92,0,0,0,1.444-.856m-4.385-2.032c-.053,0-.16.053-.16,0s.214-.16.374-.214.107-.107.16-.053l.214.107c-.16.16-.374.107-.588.16m-4.385-.642H47.1a8.5,8.5,0,0,0,.963-1.444,6.364,6.364,0,0,0,.963-.7,5.294,5.294,0,0,1,1.6-1.283,1.23,1.23,0,0,1,.749.053c-.107.107-.267.107-.374.16H50.95V35.52c-.267.321-.7.481-.909.856s-.267.642-.642.7,0-.053-.053-.053A12.888,12.888,0,0,0,47.153,39m2.353-1.872c0,.053-.053.053-.053.107a.115.115,0,0,1-.107.107h-.053c0-.107.107-.267.214-.267h0m1.337,4.278c0,.053-.053.053-.053.107s.053,0,.053.053l-.214.107a.053.053,0,0,0-.053.053h-.107c-.053.053-.214.053-.16,0l.214-.214c.053-.053.107-.053.107-.107h.214m-.481-.214h0l-.374.214-.374.16H49.56l-.267.214h-.16a.053.053,0,0,1-.053.053h-.053c0,.053,0,.053-.053.053h-.053c-.053.053-.107.053-.107.107l-.16.16h-.16l.107-.107H48.7a.107.107,0,0,1,.107-.107h0a.053.053,0,0,1,.053-.053h0c.053-.053.053-.053.053-.107h0c.053-.053.107-.107.107-.16h0l-.107.107a.053.053,0,0,1-.053-.053.053.053,0,0,0,.053-.053h.053l.107-.16h.107V41.3h0c.321-.267.749-.214,1.123-.428s.321.053.428,0H51l-.7.481M50.9,39.37c-.053-.053.053,0,.107-.107H50.79l-.481.16-.588.214a7.488,7.488,0,0,1-.909.481c-.053,0-.053,0-.053-.053l.214-.16h0a3.529,3.529,0,0,1,.8-.749v-.107a1.818,1.818,0,0,0,.321-.321.428.428,0,0,1,.267-.267h-.107c-.107,0-.214.053-.321-.053l.16-.107h-.053c-.053-.107.053-.16.16-.16l.321-.107c-.214-.053-.428.053-.642-.053a1.5,1.5,0,0,1,.749-.856h.053c0,.16-.053.267-.214.267l.7.214a.053.053,0,0,1-.107,0c.107.107.321.053.428.16s-.16,0-.214,0a7.586,7.586,0,0,1,2.567,1.016,6.471,6.471,0,0,1-1.979.267h-.267c-.107,0-.214,0-.267.107H50.95" transform="translate(-38.704 -28.3)" fill="#fff"/>
        <path id="Rouge" d="M48.62,41.669l.481-.481h0a8.181,8.181,0,0,1,.963-.963l.321-.267a.16.16,0,0,0,.053-.107l-.374.214s-.053,0,0-.053l.267-.214h-.053a1.07,1.07,0,0,0-.909.428h-.107c-.428.16-.749.535-1.177.7h0l-.535.214a3,3,0,0,1-.7,0l-1.07.214h0l-.535.214H45.2a.053.053,0,0,1-.053.053l-.16.16-.481.374a.053.053,0,0,0-.053.053l-.481.428h-.053c.053,0,.053-.053.107-.107a.16.16,0,0,1,.053-.107.428.428,0,0,0,.107-.214h0l.481-.321h0a.053.053,0,0,1-.053-.053H44.5c-.053.107-.107.214-.214.214h0a.053.053,0,0,1,.053-.053h0l.214-.16h0l.321-.214h.053l-.481.214H44.4s0,.053-.053,0h0l.16-.16h.053c.909-.7,2.193-.535,3.262-.909l.267-.16c.107-.053.214-.214.428-.267a1.6,1.6,0,0,0,.481-.7h-.053a4.064,4.064,0,0,1-1.23.267,4.867,4.867,0,0,1-1.925.321h.16c0-.053.053-.107.107-.16h.107a.053.053,0,0,1,.053-.053h.107c-.107-.107-.267.107-.428,0s.053-.107.107-.16h.107a.16.16,0,0,1,.053-.107c.428-.267.856-.428,1.23-.7s-.107.107-.214.053,0-.107.053-.107a6.525,6.525,0,0,0,.909-.374c-.107,0-.214.107-.321,0h.16v-.107a.053.053,0,0,1,.053-.053h-.053l.16-.107h-.053a.428.428,0,0,1,.374-.16c-.053-.053-.16,0-.16-.053s.053-.053.107-.053H48.3a.053.053,0,0,1,0-.107,3.69,3.69,0,0,0,.267-.7h-.053a3.048,3.048,0,0,1-1.177.588h-.16a.535.535,0,0,1-.481-.053l-.267-.214-.749-.374a7.487,7.487,0,0,0-2.193-.535,5.615,5.615,0,0,1,1.016-.267,3.316,3.316,0,0,1,1.444-.267c-.107-.053-.214,0-.267,0a3.262,3.262,0,0,0-1.23.16l-.856.214c-.16.053-.267.267-.428.214v-.107a1.658,1.658,0,0,1,1.07-.7,4.652,4.652,0,0,1,1.5.053l1.123.214c.107,0,.16.214.267.267s.321,0,.535.107-.053-.107,0-.16.214,0,.374-.053-.214-.374-.321-.588h0c.267.16.428.428.7.535s.481.16.428,0a5.081,5.081,0,0,0-.642-.856v-.107h-.107v-.267c-.107-.053-.053-.16-.107-.214s-.053-.374-.107-.535a1.551,1.551,0,0,1-.107-.481,12.728,12.728,0,0,1-.267-1.39c-.053-.535.321-.963.588-1.444a1.872,1.872,0,0,1,.8-.909,1.979,1.979,0,0,1,.535-.909,1.765,1.765,0,0,1,.856-.588l.8-.321H31.4V43.488H45.3a20.107,20.107,0,0,1,1.872-.963,4.92,4.92,0,0,0,1.444-.856m-4.385-2.032c-.053,0-.16.053-.16,0s.214-.16.374-.214.107-.107.16-.053l.214.107c-.16.16-.374.107-.588.16M39.849,39H39.8a8.5,8.5,0,0,0,.963-1.444,4.492,4.492,0,0,0,.963-.856,5.294,5.294,0,0,1,1.6-1.283,1.23,1.23,0,0,1,.749.053c-.107.107-.267.107-.374.16h-.053V35.52c-.267.321-.7.481-.909.856s-.267.642-.642.7,0-.053-.053-.053A12.888,12.888,0,0,0,39.85,39M42.2,37.124c0,.053-.053.053-.053.107a.115.115,0,0,1-.107.107h-.053c0-.107.107-.267.214-.267h0m1.337,4.278c0,.053-.053.053-.053.107s.053,0,.053.053l-.214.107h-.16c-.053.053-.214.053-.16,0l.214-.214c.053-.053.107-.053.107-.107a.053.053,0,0,0,.053-.053h.16m-.481-.214h0l-.374.214-.374.16h-.053l-.267.214h-.16a.053.053,0,0,1-.053.053h-.053c0,.053,0,.053-.053.053h-.053c-.053.053-.107.053-.107.107l-.16.16h-.16l.107-.107H41.4a.107.107,0,0,1,.107-.107h0a.053.053,0,0,1,.053-.053h0c.053-.053.053-.053.053-.107h0c.053-.053.107-.107.107-.16h0l-.107.107a.053.053,0,0,1-.053-.053.053.053,0,0,0,.053-.053h.053l.107-.16h.107v-.107h0c.321-.267.749-.214,1.123-.428s.321.053.428,0H43.7l-.7.481m.588-1.979c-.053-.053.053,0,.107-.107h-.214l-.481.16-.588.214a7.486,7.486,0,0,1-.909.481c-.053,0-.053,0-.053-.053l.214-.16h0a3.53,3.53,0,0,1,.8-.749v-.107a1.818,1.818,0,0,0,.321-.321.428.428,0,0,1,.267-.267h-.107c-.107,0-.214.053-.321-.053l.16-.107h-.053c-.053-.107.053-.16.16-.16l.321-.107c-.214-.053-.428.053-.642-.053a1.5,1.5,0,0,1,.749-.856h.053c0,.16-.053.267-.214.267l.7.214a.053.053,0,1,1-.107,0c.107.107.321.053.428.16s-.16,0-.214,0a7.586,7.586,0,0,1,2.567,1.016,6.471,6.471,0,0,1-1.979.374h-.267c-.107,0-.214,0-.267.107h-.374" transform="translate(-31.4 -28.3)" fill="#000091"/>
        <path id="Bleu" d="M93.305,28.3H77.048l.107.107.428.214a1.444,1.444,0,0,1,.535.428c.053.107.16.267.107.374s-.107.374-.214.428a1.337,1.337,0,0,1-.642.107l-.321-.107a2.406,2.406,0,0,1,1.123.8l.267.107h0c-.053.053-.107.107-.053.16h.053c.16-.053.107-.321.321-.214a.267.267,0,0,1,.107.428l-.321.267a.16.16,0,0,0,0,.214l.16.321.16.642a3.582,3.582,0,0,1,.214,1.283c0,.214-.107.428,0,.642a2.3,2.3,0,0,0,.267.642,1.123,1.123,0,0,1,.321.428c.214.267.481.588.374.909s-.428.16-.642.321,0,.374.107.481-.214.428-.374.535.16.053.16.107.214.214.107.374-.481.267-.267.535,0,.428-.053.588a.7.7,0,0,1-.535.428.642.642,0,0,1-.535.053h-.16a13.423,13.423,0,0,0-1.444-.214l-.428.107-.321.321H75.5l-.214.321h0c0,.053,0,.053-.053.053l-.214.535c-.16.642-.107,1.23.053,1.337s.963.321,1.551.642l.7.321h15.99Z" transform="translate(-51.646 -28.3)" fill="#e1000f"/>
        <path id="Yeux" d="M79.723,38.452h.267c-.053.267-.374.321-.588.535h-.053c-.107.053-.053.214-.16.214h-.267a.481.481,0,0,0,.428.214l.107.107h.107v.16c-.107.107-.214.053-.321.107h.642c.16-.107,0-.374.107-.535s0-.053-.053-.053.107-.16.16-.16.16-.053.16-.107-.107-.107-.053-.16.321-.267.267-.428-.267-.107-.428-.16a.749.749,0,0,0-.481.053l-.428.107-.535.267a2.246,2.246,0,0,1,.642-.16,1.444,1.444,0,0,1,.481,0" transform="translate(-53.358 -32.89)" fill="#9c9b9b"/>
      </g>
    </g>
  </g>
</svg>
