<svg xmlns="http://www.w3.org/2000/svg" width="18.814" height="19.152" viewBox="0 0 18.814 19.152">
  <path id="setting_2_" data-name="setting (2)" d="M19.133,12.207a.957.957,0,0,1,0-1.264l1.226-1.379a.957.957,0,0,0,.115-1.12L18.558,5.131a.957.957,0,0,0-1.025-.46l-1.8.364a.957.957,0,0,1-1.1-.632l-.584-1.752A.957.957,0,0,0,13.139,2H9.309a.957.957,0,0,0-.957.651L7.815,4.4a.957.957,0,0,1-1.1.632L4.866,4.671a.957.957,0,0,0-.957.46L1.994,8.444a.957.957,0,0,0,.1,1.12l1.216,1.379a.957.957,0,0,1,0,1.264L2.09,13.586a.957.957,0,0,0-.1,1.12l1.915,3.313a.957.957,0,0,0,1.025.46l1.8-.364a.957.957,0,0,1,1.1.632L8.419,20.5a.957.957,0,0,0,.957.651h3.83a.957.957,0,0,0,.91-.651l.584-1.752a.957.957,0,0,1,1.1-.632l1.8.364a.957.957,0,0,0,1.025-.46l1.915-3.313a.957.957,0,0,0-.115-1.12ZM17.706,13.49l.766.862-1.226,2.126-1.13-.23a2.872,2.872,0,0,0-3.3,1.915l-.364,1.072H10l-.345-1.092a2.872,2.872,0,0,0-3.3-1.915l-1.13.23L3.976,14.342l.766-.862a2.872,2.872,0,0,0,0-3.83l-.766-.862L5.2,6.682l1.13.23A2.872,2.872,0,0,0,9.635,5L10,3.915H12.45l.364,1.092a2.872,2.872,0,0,0,3.3,1.915l1.13-.23,1.226,2.126-.766.862a2.872,2.872,0,0,0,0,3.811ZM11.224,7.745a3.83,3.83,0,1,0,3.83,3.83A3.83,3.83,0,0,0,11.224,7.745Zm0,5.745a1.915,1.915,0,1,1,1.915-1.915A1.915,1.915,0,0,1,11.224,13.49Z" transform="translate(-1.857 -1.999)" fill="#a0a0a0"/>
</svg>
