<svg xmlns="http://www.w3.org/2000/svg" width="27" height="27" viewBox="0 0 27 27">
  <g id="Groupe_59" data-name="Groupe 59" transform="translate(-0.178 0.361)">
    <g id="Groupe_56" data-name="Groupe 56" transform="translate(0 0)">
      <circle id="Ellipse_41" data-name="Ellipse 41" cx="13.5" cy="13.5" r="13.5" transform="translate(0.178 -0.361)" fill="green" opacity="0.09"/>
    </g>
    <path id="spinner-alt" d="M5.184,10.616a.663.663,0,0,0-.906-.243l-1.148.663a.663.663,0,0,0,.663,1.148l1.148-.663a.663.663,0,0,0,.243-.906ZM3.13,6.22l1.148.663a.663.663,0,1,0,.663-1.148L3.793,5.071A.663.663,0,1,0,3.13,6.22ZM4.651,8.628a.663.663,0,0,0-.663-.663H2.663a.663.663,0,1,0,0,1.326H3.988A.663.663,0,0,0,4.651,8.628ZM12.072,6.64a.663.663,0,0,0,.906.243l1.148-.663a.663.663,0,1,0-.663-1.148l-1.148.663a.663.663,0,0,0-.243.906ZM10.616,5.184a.663.663,0,0,0,.906-.243l.663-1.148a.663.663,0,0,0-1.148-.663l-.663,1.148A.663.663,0,0,0,10.616,5.184Zm3.509,5.852-1.148-.663a.663.663,0,1,0-.663,1.148l1.148.663a.663.663,0,1,0,.663-1.148Zm-2.6,1.278a.663.663,0,1,0-1.148.663l.663,1.148a.663.663,0,1,0,1.148-.663Zm3.071-4.349H13.268a.663.663,0,0,0,0,1.326h1.326a.663.663,0,0,0,0-1.326ZM8.628,12.6a.663.663,0,0,0-.663.663v1.326a.663.663,0,0,0,1.326,0V13.268A.663.663,0,0,0,8.628,12.6ZM6.64,12.072a.662.662,0,0,0-.906.243l-.663,1.148a.663.663,0,1,0,1.148.663l.663-1.148A.663.663,0,0,0,6.64,12.072ZM8.628,2a.663.663,0,0,0-.663.663V3.988a.663.663,0,1,0,1.326,0V2.663A.663.663,0,0,0,8.628,2Z" transform="translate(4.94 4.94)" fill="#008100"/>
  </g>
</svg>
