<svg xmlns="http://www.w3.org/2000/svg" width="102.664" height="69.118" viewBox="0 0 102.664 69.118">
  <g id="delivery-truck-svgrepo-com" transform="translate(0 -99.987)">
    <path id="Tracé_560" data-name="Tracé 560" d="M102.664,138.163v-3.624a6.616,6.616,0,0,0-1.963-4.7L81.21,110.55a6.616,6.616,0,0,0-4.653-1.913H66.723v-3.689a4.962,4.962,0,0,0-4.962-4.962H4.962A4.962,4.962,0,0,0,0,104.949v33.214Zm-30.1-23.025a.777.777,0,0,1,.778-.777h3.589a.838.838,0,0,1,.546.215L92.74,129.147a.776.776,0,0,1-.529,1.34H73.339a.777.777,0,0,1-.778-.777V115.138Zm30.1,25.767V151.89a4.962,4.962,0,0,1-4.962,4.962H92.393a13.615,13.615,0,0,0-26.944,0H38.538a13.606,13.606,0,0,0-26.927,0H4.962A4.962,4.962,0,0,1,0,151.89V140.9H102.664ZM78.92,148.522a10.292,10.292,0,1,0,10.292,10.292A10.292,10.292,0,0,0,78.92,148.522Zm0,15.438a5.146,5.146,0,1,1,5.146-5.146A5.146,5.146,0,0,1,78.92,163.959ZM25.073,148.522a10.292,10.292,0,1,0,10.292,10.292A10.292,10.292,0,0,0,25.073,148.522Zm0,15.438a5.146,5.146,0,1,1,5.146-5.146A5.146,5.146,0,0,1,25.073,163.959Z" fill="green"/>
  </g>
</svg>
