<svg xmlns="http://www.w3.org/2000/svg" width="19.989" height="17.263" viewBox="0 0 19.989 17.263">
  <path id="truck" d="M1,11.586v4.543a.909.909,0,0,0,.909.909h.909a2.726,2.726,0,1,0,5.452,0H13.72a2.726,2.726,0,1,0,5.452,0h.909a.909.909,0,0,0,.909-.909V5.226A2.726,2.726,0,0,0,18.263,2.5H10.086A2.726,2.726,0,0,0,7.36,5.226V7.043H5.543a2.726,2.726,0,0,0-2.181,1.09L1.182,11.041a.554.554,0,0,0-.064.127l-.055.1A.909.909,0,0,0,1,11.586Zm14.538,5.452a.909.909,0,1,1,.909.909A.909.909,0,0,1,15.538,17.038ZM9.177,5.226a.909.909,0,0,1,.909-.909h8.177a.909.909,0,0,1,.909.909V15.22h-.709a2.726,2.726,0,0,0-4.034,0H9.177ZM7.36,10.677H3.726l1.09-1.454a.909.909,0,0,1,.727-.363H7.36Zm-2.726,6.36a.909.909,0,1,1,.909.909A.909.909,0,0,1,4.634,17.038ZM2.817,12.495H7.36v2.526a2.726,2.726,0,0,0-3.834.2H2.817Z" transform="translate(-1 -2.5)" fill="#a0a0a0"/>
</svg>
