<svg id="Groupe_57" data-name="Groupe 57" xmlns="http://www.w3.org/2000/svg" width="27.135" height="27.135" viewBox="0 0 27.135 27.135">
  <path id="user_3_" data-name="user (3)" d="M11.036,9.04a3.945,3.945,0,1,0-4.879,0,6.575,6.575,0,0,0-4.09,5.378.661.661,0,1,0,1.315.145,5.26,5.26,0,0,1,10.454,0,.658.658,0,0,0,.658.585h.072a.658.658,0,0,0,.579-.723A6.575,6.575,0,0,0,11.036,9.04ZM8.6,8.573a2.63,2.63,0,1,1,2.63-2.63A2.63,2.63,0,0,1,8.6,8.573Z" transform="translate(4.956 4.583)" fill="green"/>
  <path id="Tracé_273" data-name="Tracé 273" d="M13.568,0A13.568,13.568,0,1,1,0,13.568,13.568,13.568,0,0,1,13.568,0Z" transform="translate(0 0)" fill="green" opacity="0.07"/>
</svg>
